M48
; DRILL file {KiCad 8.0.4+dfsg-1} date 2024-11-21T19:10:56-0500
; FORMAT={-:-/ absolute / inch / decimal}
; #@! TF.CreationDate,2024-11-21T19:10:56-05:00
; #@! TF.GenerationSoftware,Kicad,Pcbnew,8.0.4+dfsg-1
; #@! TF.FileFunction,Plated,1,2,PTH
FMAT,2
INCH
; #@! TA.AperFunction,Plated,PTH,ComponentDrill
T1C0.0197
; #@! TA.AperFunction,Plated,PTH,ComponentDrill
T2C0.0300
; #@! TA.AperFunction,Plated,PTH,ComponentDrill
T3C0.0315
; #@! TA.AperFunction,Plated,PTH,ComponentDrill
T4C0.0354
; #@! TA.AperFunction,Plated,PTH,ComponentDrill
T5C0.0374
; #@! TA.AperFunction,Plated,PTH,ComponentDrill
T6C0.0394
; #@! TA.AperFunction,Plated,PTH,ComponentDrill
T7C0.0512
; #@! TA.AperFunction,Plated,PTH,ComponentDrill
T8C0.1260
%
G90
G05
T1
X2.5827Y-2.0866
X2.5827Y-3.622
X2.6104Y-2.0198
X2.6104Y-2.1534
X2.6104Y-3.5552
X2.6104Y-3.6889
X2.6772Y-1.9921
X2.6772Y-2.1811
X2.6772Y-3.5276
X2.6772Y-3.7165
X2.744Y-2.0198
X2.744Y-2.1534
X2.744Y-3.5552
X2.744Y-3.6889
X2.7717Y-2.0866
X2.7717Y-3.622
X4.6299Y-2.7165
X4.6576Y-2.6497
X4.6576Y-2.7833
X4.7244Y-2.622
X4.7244Y-2.811
X4.7912Y-2.6497
X4.7912Y-2.7833
X4.8189Y-2.7165
T2
X3.437Y-1.9685
X3.437Y-2.0685
X3.437Y-2.1685
X3.437Y-2.2685
X3.437Y-2.3685
X3.437Y-2.4685
X3.437Y-2.5685
X3.437Y-2.6685
X3.437Y-2.7685
X3.437Y-2.8685
X3.437Y-2.9685
X3.437Y-3.0685
X3.437Y-3.1685
X3.437Y-3.2685
X3.437Y-3.3685
X4.437Y-1.9685
X4.437Y-2.0685
X4.437Y-2.1685
X4.437Y-2.2685
X4.437Y-2.3685
X4.437Y-2.4685
X4.437Y-2.5685
X4.437Y-2.6685
X4.437Y-2.7685
X4.437Y-2.8685
X4.437Y-2.9685
X4.437Y-3.0685
X4.437Y-3.1685
X4.437Y-3.2685
X4.437Y-3.3685
T3
X2.6378Y-2.3622
X2.6378Y-2.6772
X2.6378Y-2.9921
X3.0378Y-2.3622
X3.0378Y-2.6772
X3.0378Y-2.9921
X4.5866Y-3.0709
X4.9866Y-3.0709
T4
X3.189Y-2.3622
X3.189Y-2.6772
X3.189Y-2.9921
X3.289Y-2.3622
X3.289Y-2.6772
X3.289Y-2.9921
T5
X4.6457Y-3.6713
X4.7441Y-3.6713
X4.8425Y-3.6713
T7
X4.626Y-3.3465
X4.8819Y-3.3465
T8
X2.6772Y-2.0866
X2.6772Y-3.622
X4.7244Y-2.7165
T6
G00X2.9528Y-3.5236
M15
G01X2.9528Y-3.5827
M16
G05
G00X3.0906Y-3.2776
M15
G01X3.1693Y-3.2776
M16
G05
G00X3.1043Y-3.5138
M15
G01X3.1555Y-3.5138
M16
G05
G00X3.3071Y-3.5236
M15
G01X3.3071Y-3.5827
M16
G05
M30
