%TF.GenerationSoftware,KiCad,Pcbnew,8.0.4+dfsg-1*%
%TF.CreationDate,2024-11-21T19:10:24-05:00*%
%TF.ProjectId,smart-fluid-flow-meter,736d6172-742d-4666-9c75-69642d666c6f,rev?*%
%TF.SameCoordinates,Original*%
%TF.FileFunction,Legend,Top*%
%TF.FilePolarity,Positive*%
%FSLAX46Y46*%
G04 Gerber Fmt 4.6, Leading zero omitted, Abs format (unit mm)*
G04 Created by KiCad (PCBNEW 8.0.4+dfsg-1) date 2024-11-21 19:10:24*
%MOMM*%
%LPD*%
G01*
G04 APERTURE LIST*
%ADD10C,0.100000*%
%ADD11C,0.150000*%
%ADD12C,0.120000*%
%ADD13C,1.000000*%
%ADD14C,0.800000*%
G04 APERTURE END LIST*
D10*
X65303884Y-43372419D02*
X65303884Y-42372419D01*
X65732455Y-43372419D02*
X65732455Y-42848609D01*
X65732455Y-42848609D02*
X65684836Y-42753371D01*
X65684836Y-42753371D02*
X65589598Y-42705752D01*
X65589598Y-42705752D02*
X65446741Y-42705752D01*
X65446741Y-42705752D02*
X65351503Y-42753371D01*
X65351503Y-42753371D02*
X65303884Y-42800990D01*
X66065789Y-42705752D02*
X66446741Y-42705752D01*
X66208646Y-42372419D02*
X66208646Y-43229561D01*
X66208646Y-43229561D02*
X66256265Y-43324800D01*
X66256265Y-43324800D02*
X66351503Y-43372419D01*
X66351503Y-43372419D02*
X66446741Y-43372419D01*
X66637218Y-42705752D02*
X67018170Y-42705752D01*
X66780075Y-42372419D02*
X66780075Y-43229561D01*
X66780075Y-43229561D02*
X66827694Y-43324800D01*
X66827694Y-43324800D02*
X66922932Y-43372419D01*
X66922932Y-43372419D02*
X67018170Y-43372419D01*
X67351504Y-42705752D02*
X67351504Y-43705752D01*
X67351504Y-42753371D02*
X67446742Y-42705752D01*
X67446742Y-42705752D02*
X67637218Y-42705752D01*
X67637218Y-42705752D02*
X67732456Y-42753371D01*
X67732456Y-42753371D02*
X67780075Y-42800990D01*
X67780075Y-42800990D02*
X67827694Y-42896228D01*
X67827694Y-42896228D02*
X67827694Y-43181942D01*
X67827694Y-43181942D02*
X67780075Y-43277180D01*
X67780075Y-43277180D02*
X67732456Y-43324800D01*
X67732456Y-43324800D02*
X67637218Y-43372419D01*
X67637218Y-43372419D02*
X67446742Y-43372419D01*
X67446742Y-43372419D02*
X67351504Y-43324800D01*
X68208647Y-43324800D02*
X68303885Y-43372419D01*
X68303885Y-43372419D02*
X68494361Y-43372419D01*
X68494361Y-43372419D02*
X68589599Y-43324800D01*
X68589599Y-43324800D02*
X68637218Y-43229561D01*
X68637218Y-43229561D02*
X68637218Y-43181942D01*
X68637218Y-43181942D02*
X68589599Y-43086704D01*
X68589599Y-43086704D02*
X68494361Y-43039085D01*
X68494361Y-43039085D02*
X68351504Y-43039085D01*
X68351504Y-43039085D02*
X68256266Y-42991466D01*
X68256266Y-42991466D02*
X68208647Y-42896228D01*
X68208647Y-42896228D02*
X68208647Y-42848609D01*
X68208647Y-42848609D02*
X68256266Y-42753371D01*
X68256266Y-42753371D02*
X68351504Y-42705752D01*
X68351504Y-42705752D02*
X68494361Y-42705752D01*
X68494361Y-42705752D02*
X68589599Y-42753371D01*
X69065790Y-43277180D02*
X69113409Y-43324800D01*
X69113409Y-43324800D02*
X69065790Y-43372419D01*
X69065790Y-43372419D02*
X69018171Y-43324800D01*
X69018171Y-43324800D02*
X69065790Y-43277180D01*
X69065790Y-43277180D02*
X69065790Y-43372419D01*
X69065790Y-42753371D02*
X69113409Y-42800990D01*
X69113409Y-42800990D02*
X69065790Y-42848609D01*
X69065790Y-42848609D02*
X69018171Y-42800990D01*
X69018171Y-42800990D02*
X69065790Y-42753371D01*
X69065790Y-42753371D02*
X69065790Y-42848609D01*
X70256265Y-42324800D02*
X69399123Y-43610514D01*
X71303884Y-42324800D02*
X70446742Y-43610514D01*
X72065789Y-42705752D02*
X72065789Y-43515276D01*
X72065789Y-43515276D02*
X72018170Y-43610514D01*
X72018170Y-43610514D02*
X71970551Y-43658133D01*
X71970551Y-43658133D02*
X71875313Y-43705752D01*
X71875313Y-43705752D02*
X71732456Y-43705752D01*
X71732456Y-43705752D02*
X71637218Y-43658133D01*
X72065789Y-43324800D02*
X71970551Y-43372419D01*
X71970551Y-43372419D02*
X71780075Y-43372419D01*
X71780075Y-43372419D02*
X71684837Y-43324800D01*
X71684837Y-43324800D02*
X71637218Y-43277180D01*
X71637218Y-43277180D02*
X71589599Y-43181942D01*
X71589599Y-43181942D02*
X71589599Y-42896228D01*
X71589599Y-42896228D02*
X71637218Y-42800990D01*
X71637218Y-42800990D02*
X71684837Y-42753371D01*
X71684837Y-42753371D02*
X71780075Y-42705752D01*
X71780075Y-42705752D02*
X71970551Y-42705752D01*
X71970551Y-42705752D02*
X72065789Y-42753371D01*
X72541980Y-43372419D02*
X72541980Y-42705752D01*
X72541980Y-42372419D02*
X72494361Y-42420038D01*
X72494361Y-42420038D02*
X72541980Y-42467657D01*
X72541980Y-42467657D02*
X72589599Y-42420038D01*
X72589599Y-42420038D02*
X72541980Y-42372419D01*
X72541980Y-42372419D02*
X72541980Y-42467657D01*
X72875313Y-42705752D02*
X73256265Y-42705752D01*
X73018170Y-42372419D02*
X73018170Y-43229561D01*
X73018170Y-43229561D02*
X73065789Y-43324800D01*
X73065789Y-43324800D02*
X73161027Y-43372419D01*
X73161027Y-43372419D02*
X73256265Y-43372419D01*
X73589599Y-43372419D02*
X73589599Y-42372419D01*
X74018170Y-43372419D02*
X74018170Y-42848609D01*
X74018170Y-42848609D02*
X73970551Y-42753371D01*
X73970551Y-42753371D02*
X73875313Y-42705752D01*
X73875313Y-42705752D02*
X73732456Y-42705752D01*
X73732456Y-42705752D02*
X73637218Y-42753371D01*
X73637218Y-42753371D02*
X73589599Y-42800990D01*
X74922932Y-42705752D02*
X74922932Y-43372419D01*
X74494361Y-42705752D02*
X74494361Y-43229561D01*
X74494361Y-43229561D02*
X74541980Y-43324800D01*
X74541980Y-43324800D02*
X74637218Y-43372419D01*
X74637218Y-43372419D02*
X74780075Y-43372419D01*
X74780075Y-43372419D02*
X74875313Y-43324800D01*
X74875313Y-43324800D02*
X74922932Y-43277180D01*
X75399123Y-43372419D02*
X75399123Y-42372419D01*
X75399123Y-42753371D02*
X75494361Y-42705752D01*
X75494361Y-42705752D02*
X75684837Y-42705752D01*
X75684837Y-42705752D02*
X75780075Y-42753371D01*
X75780075Y-42753371D02*
X75827694Y-42800990D01*
X75827694Y-42800990D02*
X75875313Y-42896228D01*
X75875313Y-42896228D02*
X75875313Y-43181942D01*
X75875313Y-43181942D02*
X75827694Y-43277180D01*
X75827694Y-43277180D02*
X75780075Y-43324800D01*
X75780075Y-43324800D02*
X75684837Y-43372419D01*
X75684837Y-43372419D02*
X75494361Y-43372419D01*
X75494361Y-43372419D02*
X75399123Y-43324800D01*
X76303885Y-43277180D02*
X76351504Y-43324800D01*
X76351504Y-43324800D02*
X76303885Y-43372419D01*
X76303885Y-43372419D02*
X76256266Y-43324800D01*
X76256266Y-43324800D02*
X76303885Y-43277180D01*
X76303885Y-43277180D02*
X76303885Y-43372419D01*
X77208646Y-43324800D02*
X77113408Y-43372419D01*
X77113408Y-43372419D02*
X76922932Y-43372419D01*
X76922932Y-43372419D02*
X76827694Y-43324800D01*
X76827694Y-43324800D02*
X76780075Y-43277180D01*
X76780075Y-43277180D02*
X76732456Y-43181942D01*
X76732456Y-43181942D02*
X76732456Y-42896228D01*
X76732456Y-42896228D02*
X76780075Y-42800990D01*
X76780075Y-42800990D02*
X76827694Y-42753371D01*
X76827694Y-42753371D02*
X76922932Y-42705752D01*
X76922932Y-42705752D02*
X77113408Y-42705752D01*
X77113408Y-42705752D02*
X77208646Y-42753371D01*
X77780075Y-43372419D02*
X77684837Y-43324800D01*
X77684837Y-43324800D02*
X77637218Y-43277180D01*
X77637218Y-43277180D02*
X77589599Y-43181942D01*
X77589599Y-43181942D02*
X77589599Y-42896228D01*
X77589599Y-42896228D02*
X77637218Y-42800990D01*
X77637218Y-42800990D02*
X77684837Y-42753371D01*
X77684837Y-42753371D02*
X77780075Y-42705752D01*
X77780075Y-42705752D02*
X77922932Y-42705752D01*
X77922932Y-42705752D02*
X78018170Y-42753371D01*
X78018170Y-42753371D02*
X78065789Y-42800990D01*
X78065789Y-42800990D02*
X78113408Y-42896228D01*
X78113408Y-42896228D02*
X78113408Y-43181942D01*
X78113408Y-43181942D02*
X78065789Y-43277180D01*
X78065789Y-43277180D02*
X78018170Y-43324800D01*
X78018170Y-43324800D02*
X77922932Y-43372419D01*
X77922932Y-43372419D02*
X77780075Y-43372419D01*
X78541980Y-43372419D02*
X78541980Y-42705752D01*
X78541980Y-42800990D02*
X78589599Y-42753371D01*
X78589599Y-42753371D02*
X78684837Y-42705752D01*
X78684837Y-42705752D02*
X78827694Y-42705752D01*
X78827694Y-42705752D02*
X78922932Y-42753371D01*
X78922932Y-42753371D02*
X78970551Y-42848609D01*
X78970551Y-42848609D02*
X78970551Y-43372419D01*
X78970551Y-42848609D02*
X79018170Y-42753371D01*
X79018170Y-42753371D02*
X79113408Y-42705752D01*
X79113408Y-42705752D02*
X79256265Y-42705752D01*
X79256265Y-42705752D02*
X79351504Y-42753371D01*
X79351504Y-42753371D02*
X79399123Y-42848609D01*
X79399123Y-42848609D02*
X79399123Y-43372419D01*
X80589598Y-42324800D02*
X79732456Y-43610514D01*
X80875313Y-43324800D02*
X80970551Y-43372419D01*
X80970551Y-43372419D02*
X81161027Y-43372419D01*
X81161027Y-43372419D02*
X81256265Y-43324800D01*
X81256265Y-43324800D02*
X81303884Y-43229561D01*
X81303884Y-43229561D02*
X81303884Y-43181942D01*
X81303884Y-43181942D02*
X81256265Y-43086704D01*
X81256265Y-43086704D02*
X81161027Y-43039085D01*
X81161027Y-43039085D02*
X81018170Y-43039085D01*
X81018170Y-43039085D02*
X80922932Y-42991466D01*
X80922932Y-42991466D02*
X80875313Y-42896228D01*
X80875313Y-42896228D02*
X80875313Y-42848609D01*
X80875313Y-42848609D02*
X80922932Y-42753371D01*
X80922932Y-42753371D02*
X81018170Y-42705752D01*
X81018170Y-42705752D02*
X81161027Y-42705752D01*
X81161027Y-42705752D02*
X81256265Y-42753371D01*
X81875313Y-43372419D02*
X81780075Y-43324800D01*
X81780075Y-43324800D02*
X81732456Y-43277180D01*
X81732456Y-43277180D02*
X81684837Y-43181942D01*
X81684837Y-43181942D02*
X81684837Y-42896228D01*
X81684837Y-42896228D02*
X81732456Y-42800990D01*
X81732456Y-42800990D02*
X81780075Y-42753371D01*
X81780075Y-42753371D02*
X81875313Y-42705752D01*
X81875313Y-42705752D02*
X82018170Y-42705752D01*
X82018170Y-42705752D02*
X82113408Y-42753371D01*
X82113408Y-42753371D02*
X82161027Y-42800990D01*
X82161027Y-42800990D02*
X82208646Y-42896228D01*
X82208646Y-42896228D02*
X82208646Y-43181942D01*
X82208646Y-43181942D02*
X82161027Y-43277180D01*
X82161027Y-43277180D02*
X82113408Y-43324800D01*
X82113408Y-43324800D02*
X82018170Y-43372419D01*
X82018170Y-43372419D02*
X81875313Y-43372419D01*
X82780075Y-43372419D02*
X82684837Y-43324800D01*
X82684837Y-43324800D02*
X82637218Y-43277180D01*
X82637218Y-43277180D02*
X82589599Y-43181942D01*
X82589599Y-43181942D02*
X82589599Y-42896228D01*
X82589599Y-42896228D02*
X82637218Y-42800990D01*
X82637218Y-42800990D02*
X82684837Y-42753371D01*
X82684837Y-42753371D02*
X82780075Y-42705752D01*
X82780075Y-42705752D02*
X82922932Y-42705752D01*
X82922932Y-42705752D02*
X83018170Y-42753371D01*
X83018170Y-42753371D02*
X83065789Y-42800990D01*
X83065789Y-42800990D02*
X83113408Y-42896228D01*
X83113408Y-42896228D02*
X83113408Y-43181942D01*
X83113408Y-43181942D02*
X83065789Y-43277180D01*
X83065789Y-43277180D02*
X83018170Y-43324800D01*
X83018170Y-43324800D02*
X82922932Y-43372419D01*
X82922932Y-43372419D02*
X82780075Y-43372419D01*
X83541980Y-42705752D02*
X83541980Y-43372419D01*
X83541980Y-42800990D02*
X83589599Y-42753371D01*
X83589599Y-42753371D02*
X83684837Y-42705752D01*
X83684837Y-42705752D02*
X83827694Y-42705752D01*
X83827694Y-42705752D02*
X83922932Y-42753371D01*
X83922932Y-42753371D02*
X83970551Y-42848609D01*
X83970551Y-42848609D02*
X83970551Y-43372419D01*
X84446742Y-43372419D02*
X84446742Y-42705752D01*
X84446742Y-42372419D02*
X84399123Y-42420038D01*
X84399123Y-42420038D02*
X84446742Y-42467657D01*
X84446742Y-42467657D02*
X84494361Y-42420038D01*
X84494361Y-42420038D02*
X84446742Y-42372419D01*
X84446742Y-42372419D02*
X84446742Y-42467657D01*
X85351503Y-43324800D02*
X85256265Y-43372419D01*
X85256265Y-43372419D02*
X85065789Y-43372419D01*
X85065789Y-43372419D02*
X84970551Y-43324800D01*
X84970551Y-43324800D02*
X84922932Y-43277180D01*
X84922932Y-43277180D02*
X84875313Y-43181942D01*
X84875313Y-43181942D02*
X84875313Y-42896228D01*
X84875313Y-42896228D02*
X84922932Y-42800990D01*
X84922932Y-42800990D02*
X84970551Y-42753371D01*
X84970551Y-42753371D02*
X85065789Y-42705752D01*
X85065789Y-42705752D02*
X85256265Y-42705752D01*
X85256265Y-42705752D02*
X85351503Y-42753371D01*
X85780075Y-43372419D02*
X85780075Y-42372419D01*
X85875313Y-42991466D02*
X86161027Y-43372419D01*
X86161027Y-42705752D02*
X85780075Y-43086704D01*
X87303884Y-42324800D02*
X86446742Y-43610514D01*
X87589599Y-43324800D02*
X87684837Y-43372419D01*
X87684837Y-43372419D02*
X87875313Y-43372419D01*
X87875313Y-43372419D02*
X87970551Y-43324800D01*
X87970551Y-43324800D02*
X88018170Y-43229561D01*
X88018170Y-43229561D02*
X88018170Y-43181942D01*
X88018170Y-43181942D02*
X87970551Y-43086704D01*
X87970551Y-43086704D02*
X87875313Y-43039085D01*
X87875313Y-43039085D02*
X87732456Y-43039085D01*
X87732456Y-43039085D02*
X87637218Y-42991466D01*
X87637218Y-42991466D02*
X87589599Y-42896228D01*
X87589599Y-42896228D02*
X87589599Y-42848609D01*
X87589599Y-42848609D02*
X87637218Y-42753371D01*
X87637218Y-42753371D02*
X87732456Y-42705752D01*
X87732456Y-42705752D02*
X87875313Y-42705752D01*
X87875313Y-42705752D02*
X87970551Y-42753371D01*
X88446742Y-43372419D02*
X88446742Y-42705752D01*
X88446742Y-42800990D02*
X88494361Y-42753371D01*
X88494361Y-42753371D02*
X88589599Y-42705752D01*
X88589599Y-42705752D02*
X88732456Y-42705752D01*
X88732456Y-42705752D02*
X88827694Y-42753371D01*
X88827694Y-42753371D02*
X88875313Y-42848609D01*
X88875313Y-42848609D02*
X88875313Y-43372419D01*
X88875313Y-42848609D02*
X88922932Y-42753371D01*
X88922932Y-42753371D02*
X89018170Y-42705752D01*
X89018170Y-42705752D02*
X89161027Y-42705752D01*
X89161027Y-42705752D02*
X89256266Y-42753371D01*
X89256266Y-42753371D02*
X89303885Y-42848609D01*
X89303885Y-42848609D02*
X89303885Y-43372419D01*
X90208646Y-43372419D02*
X90208646Y-42848609D01*
X90208646Y-42848609D02*
X90161027Y-42753371D01*
X90161027Y-42753371D02*
X90065789Y-42705752D01*
X90065789Y-42705752D02*
X89875313Y-42705752D01*
X89875313Y-42705752D02*
X89780075Y-42753371D01*
X90208646Y-43324800D02*
X90113408Y-43372419D01*
X90113408Y-43372419D02*
X89875313Y-43372419D01*
X89875313Y-43372419D02*
X89780075Y-43324800D01*
X89780075Y-43324800D02*
X89732456Y-43229561D01*
X89732456Y-43229561D02*
X89732456Y-43134323D01*
X89732456Y-43134323D02*
X89780075Y-43039085D01*
X89780075Y-43039085D02*
X89875313Y-42991466D01*
X89875313Y-42991466D02*
X90113408Y-42991466D01*
X90113408Y-42991466D02*
X90208646Y-42943847D01*
X90684837Y-43372419D02*
X90684837Y-42705752D01*
X90684837Y-42896228D02*
X90732456Y-42800990D01*
X90732456Y-42800990D02*
X90780075Y-42753371D01*
X90780075Y-42753371D02*
X90875313Y-42705752D01*
X90875313Y-42705752D02*
X90970551Y-42705752D01*
X91161028Y-42705752D02*
X91541980Y-42705752D01*
X91303885Y-42372419D02*
X91303885Y-43229561D01*
X91303885Y-43229561D02*
X91351504Y-43324800D01*
X91351504Y-43324800D02*
X91446742Y-43372419D01*
X91446742Y-43372419D02*
X91541980Y-43372419D01*
X91875314Y-42991466D02*
X92637219Y-42991466D01*
X92970552Y-42705752D02*
X93351504Y-42705752D01*
X93113409Y-43372419D02*
X93113409Y-42515276D01*
X93113409Y-42515276D02*
X93161028Y-42420038D01*
X93161028Y-42420038D02*
X93256266Y-42372419D01*
X93256266Y-42372419D02*
X93351504Y-42372419D01*
X93827695Y-43372419D02*
X93732457Y-43324800D01*
X93732457Y-43324800D02*
X93684838Y-43229561D01*
X93684838Y-43229561D02*
X93684838Y-42372419D01*
X94637219Y-42705752D02*
X94637219Y-43372419D01*
X94208648Y-42705752D02*
X94208648Y-43229561D01*
X94208648Y-43229561D02*
X94256267Y-43324800D01*
X94256267Y-43324800D02*
X94351505Y-43372419D01*
X94351505Y-43372419D02*
X94494362Y-43372419D01*
X94494362Y-43372419D02*
X94589600Y-43324800D01*
X94589600Y-43324800D02*
X94637219Y-43277180D01*
X95113410Y-43372419D02*
X95113410Y-42705752D01*
X95113410Y-42372419D02*
X95065791Y-42420038D01*
X95065791Y-42420038D02*
X95113410Y-42467657D01*
X95113410Y-42467657D02*
X95161029Y-42420038D01*
X95161029Y-42420038D02*
X95113410Y-42372419D01*
X95113410Y-42372419D02*
X95113410Y-42467657D01*
X96018171Y-43372419D02*
X96018171Y-42372419D01*
X96018171Y-43324800D02*
X95922933Y-43372419D01*
X95922933Y-43372419D02*
X95732457Y-43372419D01*
X95732457Y-43372419D02*
X95637219Y-43324800D01*
X95637219Y-43324800D02*
X95589600Y-43277180D01*
X95589600Y-43277180D02*
X95541981Y-43181942D01*
X95541981Y-43181942D02*
X95541981Y-42896228D01*
X95541981Y-42896228D02*
X95589600Y-42800990D01*
X95589600Y-42800990D02*
X95637219Y-42753371D01*
X95637219Y-42753371D02*
X95732457Y-42705752D01*
X95732457Y-42705752D02*
X95922933Y-42705752D01*
X95922933Y-42705752D02*
X96018171Y-42753371D01*
X96494362Y-42991466D02*
X97256267Y-42991466D01*
X97589600Y-42705752D02*
X97970552Y-42705752D01*
X97732457Y-43372419D02*
X97732457Y-42515276D01*
X97732457Y-42515276D02*
X97780076Y-42420038D01*
X97780076Y-42420038D02*
X97875314Y-42372419D01*
X97875314Y-42372419D02*
X97970552Y-42372419D01*
X98446743Y-43372419D02*
X98351505Y-43324800D01*
X98351505Y-43324800D02*
X98303886Y-43229561D01*
X98303886Y-43229561D02*
X98303886Y-42372419D01*
X98970553Y-43372419D02*
X98875315Y-43324800D01*
X98875315Y-43324800D02*
X98827696Y-43277180D01*
X98827696Y-43277180D02*
X98780077Y-43181942D01*
X98780077Y-43181942D02*
X98780077Y-42896228D01*
X98780077Y-42896228D02*
X98827696Y-42800990D01*
X98827696Y-42800990D02*
X98875315Y-42753371D01*
X98875315Y-42753371D02*
X98970553Y-42705752D01*
X98970553Y-42705752D02*
X99113410Y-42705752D01*
X99113410Y-42705752D02*
X99208648Y-42753371D01*
X99208648Y-42753371D02*
X99256267Y-42800990D01*
X99256267Y-42800990D02*
X99303886Y-42896228D01*
X99303886Y-42896228D02*
X99303886Y-43181942D01*
X99303886Y-43181942D02*
X99256267Y-43277180D01*
X99256267Y-43277180D02*
X99208648Y-43324800D01*
X99208648Y-43324800D02*
X99113410Y-43372419D01*
X99113410Y-43372419D02*
X98970553Y-43372419D01*
X99637220Y-42705752D02*
X99827696Y-43372419D01*
X99827696Y-43372419D02*
X100018172Y-42896228D01*
X100018172Y-42896228D02*
X100208648Y-43372419D01*
X100208648Y-43372419D02*
X100399124Y-42705752D01*
X100780077Y-42991466D02*
X101541982Y-42991466D01*
X102018172Y-43372419D02*
X102018172Y-42705752D01*
X102018172Y-42800990D02*
X102065791Y-42753371D01*
X102065791Y-42753371D02*
X102161029Y-42705752D01*
X102161029Y-42705752D02*
X102303886Y-42705752D01*
X102303886Y-42705752D02*
X102399124Y-42753371D01*
X102399124Y-42753371D02*
X102446743Y-42848609D01*
X102446743Y-42848609D02*
X102446743Y-43372419D01*
X102446743Y-42848609D02*
X102494362Y-42753371D01*
X102494362Y-42753371D02*
X102589600Y-42705752D01*
X102589600Y-42705752D02*
X102732457Y-42705752D01*
X102732457Y-42705752D02*
X102827696Y-42753371D01*
X102827696Y-42753371D02*
X102875315Y-42848609D01*
X102875315Y-42848609D02*
X102875315Y-43372419D01*
X103732457Y-43324800D02*
X103637219Y-43372419D01*
X103637219Y-43372419D02*
X103446743Y-43372419D01*
X103446743Y-43372419D02*
X103351505Y-43324800D01*
X103351505Y-43324800D02*
X103303886Y-43229561D01*
X103303886Y-43229561D02*
X103303886Y-42848609D01*
X103303886Y-42848609D02*
X103351505Y-42753371D01*
X103351505Y-42753371D02*
X103446743Y-42705752D01*
X103446743Y-42705752D02*
X103637219Y-42705752D01*
X103637219Y-42705752D02*
X103732457Y-42753371D01*
X103732457Y-42753371D02*
X103780076Y-42848609D01*
X103780076Y-42848609D02*
X103780076Y-42943847D01*
X103780076Y-42943847D02*
X103303886Y-43039085D01*
X104065791Y-42705752D02*
X104446743Y-42705752D01*
X104208648Y-42372419D02*
X104208648Y-43229561D01*
X104208648Y-43229561D02*
X104256267Y-43324800D01*
X104256267Y-43324800D02*
X104351505Y-43372419D01*
X104351505Y-43372419D02*
X104446743Y-43372419D01*
X105161029Y-43324800D02*
X105065791Y-43372419D01*
X105065791Y-43372419D02*
X104875315Y-43372419D01*
X104875315Y-43372419D02*
X104780077Y-43324800D01*
X104780077Y-43324800D02*
X104732458Y-43229561D01*
X104732458Y-43229561D02*
X104732458Y-42848609D01*
X104732458Y-42848609D02*
X104780077Y-42753371D01*
X104780077Y-42753371D02*
X104875315Y-42705752D01*
X104875315Y-42705752D02*
X105065791Y-42705752D01*
X105065791Y-42705752D02*
X105161029Y-42753371D01*
X105161029Y-42753371D02*
X105208648Y-42848609D01*
X105208648Y-42848609D02*
X105208648Y-42943847D01*
X105208648Y-42943847D02*
X104732458Y-43039085D01*
X105637220Y-43372419D02*
X105637220Y-42705752D01*
X105637220Y-42896228D02*
X105684839Y-42800990D01*
X105684839Y-42800990D02*
X105732458Y-42753371D01*
X105732458Y-42753371D02*
X105827696Y-42705752D01*
X105827696Y-42705752D02*
X105922934Y-42705752D01*
D11*
X71913333Y-66084819D02*
X71580000Y-65608628D01*
X71341905Y-66084819D02*
X71341905Y-65084819D01*
X71341905Y-65084819D02*
X71722857Y-65084819D01*
X71722857Y-65084819D02*
X71818095Y-65132438D01*
X71818095Y-65132438D02*
X71865714Y-65180057D01*
X71865714Y-65180057D02*
X71913333Y-65275295D01*
X71913333Y-65275295D02*
X71913333Y-65418152D01*
X71913333Y-65418152D02*
X71865714Y-65513390D01*
X71865714Y-65513390D02*
X71818095Y-65561009D01*
X71818095Y-65561009D02*
X71722857Y-65608628D01*
X71722857Y-65608628D02*
X71341905Y-65608628D01*
X72294286Y-65180057D02*
X72341905Y-65132438D01*
X72341905Y-65132438D02*
X72437143Y-65084819D01*
X72437143Y-65084819D02*
X72675238Y-65084819D01*
X72675238Y-65084819D02*
X72770476Y-65132438D01*
X72770476Y-65132438D02*
X72818095Y-65180057D01*
X72818095Y-65180057D02*
X72865714Y-65275295D01*
X72865714Y-65275295D02*
X72865714Y-65370533D01*
X72865714Y-65370533D02*
X72818095Y-65513390D01*
X72818095Y-65513390D02*
X72246667Y-66084819D01*
X72246667Y-66084819D02*
X72865714Y-66084819D01*
X79166666Y-80404819D02*
X79166666Y-81119104D01*
X79166666Y-81119104D02*
X79119047Y-81261961D01*
X79119047Y-81261961D02*
X79023809Y-81357200D01*
X79023809Y-81357200D02*
X78880952Y-81404819D01*
X78880952Y-81404819D02*
X78785714Y-81404819D01*
X79595238Y-80500057D02*
X79642857Y-80452438D01*
X79642857Y-80452438D02*
X79738095Y-80404819D01*
X79738095Y-80404819D02*
X79976190Y-80404819D01*
X79976190Y-80404819D02*
X80071428Y-80452438D01*
X80071428Y-80452438D02*
X80119047Y-80500057D01*
X80119047Y-80500057D02*
X80166666Y-80595295D01*
X80166666Y-80595295D02*
X80166666Y-80690533D01*
X80166666Y-80690533D02*
X80119047Y-80833390D01*
X80119047Y-80833390D02*
X79547619Y-81404819D01*
X79547619Y-81404819D02*
X80166666Y-81404819D01*
X126666666Y-92704819D02*
X126666666Y-93419104D01*
X126666666Y-93419104D02*
X126619047Y-93561961D01*
X126619047Y-93561961D02*
X126523809Y-93657200D01*
X126523809Y-93657200D02*
X126380952Y-93704819D01*
X126380952Y-93704819D02*
X126285714Y-93704819D01*
X127666666Y-93704819D02*
X127095238Y-93704819D01*
X127380952Y-93704819D02*
X127380952Y-92704819D01*
X127380952Y-92704819D02*
X127285714Y-92847676D01*
X127285714Y-92847676D02*
X127190476Y-92942914D01*
X127190476Y-92942914D02*
X127095238Y-92990533D01*
X121413333Y-76084819D02*
X121080000Y-75608628D01*
X120841905Y-76084819D02*
X120841905Y-75084819D01*
X120841905Y-75084819D02*
X121222857Y-75084819D01*
X121222857Y-75084819D02*
X121318095Y-75132438D01*
X121318095Y-75132438D02*
X121365714Y-75180057D01*
X121365714Y-75180057D02*
X121413333Y-75275295D01*
X121413333Y-75275295D02*
X121413333Y-75418152D01*
X121413333Y-75418152D02*
X121365714Y-75513390D01*
X121365714Y-75513390D02*
X121318095Y-75561009D01*
X121318095Y-75561009D02*
X121222857Y-75608628D01*
X121222857Y-75608628D02*
X120841905Y-75608628D01*
X122270476Y-75418152D02*
X122270476Y-76084819D01*
X122032381Y-75037200D02*
X121794286Y-75751485D01*
X121794286Y-75751485D02*
X122413333Y-75751485D01*
X66666667Y-88254819D02*
X66666667Y-87254819D01*
X66666667Y-87254819D02*
X67000000Y-87969104D01*
X67000000Y-87969104D02*
X67333333Y-87254819D01*
X67333333Y-87254819D02*
X67333333Y-88254819D01*
X67809524Y-88254819D02*
X67809524Y-87254819D01*
X67809524Y-87731009D02*
X68380952Y-87731009D01*
X68380952Y-88254819D02*
X68380952Y-87254819D01*
X69380952Y-88254819D02*
X68809524Y-88254819D01*
X69095238Y-88254819D02*
X69095238Y-87254819D01*
X69095238Y-87254819D02*
X69000000Y-87397676D01*
X69000000Y-87397676D02*
X68904762Y-87492914D01*
X68904762Y-87492914D02*
X68809524Y-87540533D01*
X71913333Y-58084819D02*
X71580000Y-57608628D01*
X71341905Y-58084819D02*
X71341905Y-57084819D01*
X71341905Y-57084819D02*
X71722857Y-57084819D01*
X71722857Y-57084819D02*
X71818095Y-57132438D01*
X71818095Y-57132438D02*
X71865714Y-57180057D01*
X71865714Y-57180057D02*
X71913333Y-57275295D01*
X71913333Y-57275295D02*
X71913333Y-57418152D01*
X71913333Y-57418152D02*
X71865714Y-57513390D01*
X71865714Y-57513390D02*
X71818095Y-57561009D01*
X71818095Y-57561009D02*
X71722857Y-57608628D01*
X71722857Y-57608628D02*
X71341905Y-57608628D01*
X72865714Y-58084819D02*
X72294286Y-58084819D01*
X72580000Y-58084819D02*
X72580000Y-57084819D01*
X72580000Y-57084819D02*
X72484762Y-57227676D01*
X72484762Y-57227676D02*
X72389524Y-57322914D01*
X72389524Y-57322914D02*
X72294286Y-57370533D01*
X99238095Y-59924819D02*
X99238095Y-60734342D01*
X99238095Y-60734342D02*
X99285714Y-60829580D01*
X99285714Y-60829580D02*
X99333333Y-60877200D01*
X99333333Y-60877200D02*
X99428571Y-60924819D01*
X99428571Y-60924819D02*
X99619047Y-60924819D01*
X99619047Y-60924819D02*
X99714285Y-60877200D01*
X99714285Y-60877200D02*
X99761904Y-60829580D01*
X99761904Y-60829580D02*
X99809523Y-60734342D01*
X99809523Y-60734342D02*
X99809523Y-59924819D01*
X100238095Y-60020057D02*
X100285714Y-59972438D01*
X100285714Y-59972438D02*
X100380952Y-59924819D01*
X100380952Y-59924819D02*
X100619047Y-59924819D01*
X100619047Y-59924819D02*
X100714285Y-59972438D01*
X100714285Y-59972438D02*
X100761904Y-60020057D01*
X100761904Y-60020057D02*
X100809523Y-60115295D01*
X100809523Y-60115295D02*
X100809523Y-60210533D01*
X100809523Y-60210533D02*
X100761904Y-60353390D01*
X100761904Y-60353390D02*
X100190476Y-60924819D01*
X100190476Y-60924819D02*
X100809523Y-60924819D01*
D10*
X109875312Y-58372419D02*
X109541979Y-57896228D01*
X109303884Y-58372419D02*
X109303884Y-57372419D01*
X109303884Y-57372419D02*
X109684836Y-57372419D01*
X109684836Y-57372419D02*
X109780074Y-57420038D01*
X109780074Y-57420038D02*
X109827693Y-57467657D01*
X109827693Y-57467657D02*
X109875312Y-57562895D01*
X109875312Y-57562895D02*
X109875312Y-57705752D01*
X109875312Y-57705752D02*
X109827693Y-57800990D01*
X109827693Y-57800990D02*
X109780074Y-57848609D01*
X109780074Y-57848609D02*
X109684836Y-57896228D01*
X109684836Y-57896228D02*
X109303884Y-57896228D01*
X110208646Y-57372419D02*
X110875312Y-58372419D01*
X110875312Y-57372419D02*
X110208646Y-58372419D01*
X111446741Y-57372419D02*
X111541979Y-57372419D01*
X111541979Y-57372419D02*
X111637217Y-57420038D01*
X111637217Y-57420038D02*
X111684836Y-57467657D01*
X111684836Y-57467657D02*
X111732455Y-57562895D01*
X111732455Y-57562895D02*
X111780074Y-57753371D01*
X111780074Y-57753371D02*
X111780074Y-57991466D01*
X111780074Y-57991466D02*
X111732455Y-58181942D01*
X111732455Y-58181942D02*
X111684836Y-58277180D01*
X111684836Y-58277180D02*
X111637217Y-58324800D01*
X111637217Y-58324800D02*
X111541979Y-58372419D01*
X111541979Y-58372419D02*
X111446741Y-58372419D01*
X111446741Y-58372419D02*
X111351503Y-58324800D01*
X111351503Y-58324800D02*
X111303884Y-58277180D01*
X111303884Y-58277180D02*
X111256265Y-58181942D01*
X111256265Y-58181942D02*
X111208646Y-57991466D01*
X111208646Y-57991466D02*
X111208646Y-57753371D01*
X111208646Y-57753371D02*
X111256265Y-57562895D01*
X111256265Y-57562895D02*
X111303884Y-57467657D01*
X111303884Y-57467657D02*
X111351503Y-57420038D01*
X111351503Y-57420038D02*
X111446741Y-57372419D01*
X88803884Y-70872419D02*
X88803884Y-69872419D01*
X88803884Y-69872419D02*
X89041979Y-69872419D01*
X89041979Y-69872419D02*
X89184836Y-69920038D01*
X89184836Y-69920038D02*
X89280074Y-70015276D01*
X89280074Y-70015276D02*
X89327693Y-70110514D01*
X89327693Y-70110514D02*
X89375312Y-70300990D01*
X89375312Y-70300990D02*
X89375312Y-70443847D01*
X89375312Y-70443847D02*
X89327693Y-70634323D01*
X89327693Y-70634323D02*
X89280074Y-70729561D01*
X89280074Y-70729561D02*
X89184836Y-70824800D01*
X89184836Y-70824800D02*
X89041979Y-70872419D01*
X89041979Y-70872419D02*
X88803884Y-70872419D01*
X89756265Y-69967657D02*
X89803884Y-69920038D01*
X89803884Y-69920038D02*
X89899122Y-69872419D01*
X89899122Y-69872419D02*
X90137217Y-69872419D01*
X90137217Y-69872419D02*
X90232455Y-69920038D01*
X90232455Y-69920038D02*
X90280074Y-69967657D01*
X90280074Y-69967657D02*
X90327693Y-70062895D01*
X90327693Y-70062895D02*
X90327693Y-70158133D01*
X90327693Y-70158133D02*
X90280074Y-70300990D01*
X90280074Y-70300990D02*
X89708646Y-70872419D01*
X89708646Y-70872419D02*
X90327693Y-70872419D01*
X91184836Y-69872419D02*
X90994360Y-69872419D01*
X90994360Y-69872419D02*
X90899122Y-69920038D01*
X90899122Y-69920038D02*
X90851503Y-69967657D01*
X90851503Y-69967657D02*
X90756265Y-70110514D01*
X90756265Y-70110514D02*
X90708646Y-70300990D01*
X90708646Y-70300990D02*
X90708646Y-70681942D01*
X90708646Y-70681942D02*
X90756265Y-70777180D01*
X90756265Y-70777180D02*
X90803884Y-70824800D01*
X90803884Y-70824800D02*
X90899122Y-70872419D01*
X90899122Y-70872419D02*
X91089598Y-70872419D01*
X91089598Y-70872419D02*
X91184836Y-70824800D01*
X91184836Y-70824800D02*
X91232455Y-70777180D01*
X91232455Y-70777180D02*
X91280074Y-70681942D01*
X91280074Y-70681942D02*
X91280074Y-70443847D01*
X91280074Y-70443847D02*
X91232455Y-70348609D01*
X91232455Y-70348609D02*
X91184836Y-70300990D01*
X91184836Y-70300990D02*
X91089598Y-70253371D01*
X91089598Y-70253371D02*
X90899122Y-70253371D01*
X90899122Y-70253371D02*
X90803884Y-70300990D01*
X90803884Y-70300990D02*
X90756265Y-70348609D01*
X90756265Y-70348609D02*
X90708646Y-70443847D01*
X88803884Y-73372419D02*
X88803884Y-72372419D01*
X88803884Y-72372419D02*
X89041979Y-72372419D01*
X89041979Y-72372419D02*
X89184836Y-72420038D01*
X89184836Y-72420038D02*
X89280074Y-72515276D01*
X89280074Y-72515276D02*
X89327693Y-72610514D01*
X89327693Y-72610514D02*
X89375312Y-72800990D01*
X89375312Y-72800990D02*
X89375312Y-72943847D01*
X89375312Y-72943847D02*
X89327693Y-73134323D01*
X89327693Y-73134323D02*
X89280074Y-73229561D01*
X89280074Y-73229561D02*
X89184836Y-73324800D01*
X89184836Y-73324800D02*
X89041979Y-73372419D01*
X89041979Y-73372419D02*
X88803884Y-73372419D01*
X89756265Y-72467657D02*
X89803884Y-72420038D01*
X89803884Y-72420038D02*
X89899122Y-72372419D01*
X89899122Y-72372419D02*
X90137217Y-72372419D01*
X90137217Y-72372419D02*
X90232455Y-72420038D01*
X90232455Y-72420038D02*
X90280074Y-72467657D01*
X90280074Y-72467657D02*
X90327693Y-72562895D01*
X90327693Y-72562895D02*
X90327693Y-72658133D01*
X90327693Y-72658133D02*
X90280074Y-72800990D01*
X90280074Y-72800990D02*
X89708646Y-73372419D01*
X89708646Y-73372419D02*
X90327693Y-73372419D01*
X90661027Y-72372419D02*
X91327693Y-72372419D01*
X91327693Y-72372419D02*
X90899122Y-73372419D01*
D11*
X106500952Y-89611009D02*
X106643809Y-89658628D01*
X106643809Y-89658628D02*
X106691428Y-89706247D01*
X106691428Y-89706247D02*
X106739047Y-89801485D01*
X106739047Y-89801485D02*
X106739047Y-89944342D01*
X106739047Y-89944342D02*
X106691428Y-90039580D01*
X106691428Y-90039580D02*
X106643809Y-90087200D01*
X106643809Y-90087200D02*
X106548571Y-90134819D01*
X106548571Y-90134819D02*
X106167619Y-90134819D01*
X106167619Y-90134819D02*
X106167619Y-89134819D01*
X106167619Y-89134819D02*
X106500952Y-89134819D01*
X106500952Y-89134819D02*
X106596190Y-89182438D01*
X106596190Y-89182438D02*
X106643809Y-89230057D01*
X106643809Y-89230057D02*
X106691428Y-89325295D01*
X106691428Y-89325295D02*
X106691428Y-89420533D01*
X106691428Y-89420533D02*
X106643809Y-89515771D01*
X106643809Y-89515771D02*
X106596190Y-89563390D01*
X106596190Y-89563390D02*
X106500952Y-89611009D01*
X106500952Y-89611009D02*
X106167619Y-89611009D01*
X107310476Y-90134819D02*
X107215238Y-90087200D01*
X107215238Y-90087200D02*
X107167619Y-90039580D01*
X107167619Y-90039580D02*
X107120000Y-89944342D01*
X107120000Y-89944342D02*
X107120000Y-89658628D01*
X107120000Y-89658628D02*
X107167619Y-89563390D01*
X107167619Y-89563390D02*
X107215238Y-89515771D01*
X107215238Y-89515771D02*
X107310476Y-89468152D01*
X107310476Y-89468152D02*
X107453333Y-89468152D01*
X107453333Y-89468152D02*
X107548571Y-89515771D01*
X107548571Y-89515771D02*
X107596190Y-89563390D01*
X107596190Y-89563390D02*
X107643809Y-89658628D01*
X107643809Y-89658628D02*
X107643809Y-89944342D01*
X107643809Y-89944342D02*
X107596190Y-90039580D01*
X107596190Y-90039580D02*
X107548571Y-90087200D01*
X107548571Y-90087200D02*
X107453333Y-90134819D01*
X107453333Y-90134819D02*
X107310476Y-90134819D01*
X108215238Y-90134819D02*
X108120000Y-90087200D01*
X108120000Y-90087200D02*
X108072381Y-90039580D01*
X108072381Y-90039580D02*
X108024762Y-89944342D01*
X108024762Y-89944342D02*
X108024762Y-89658628D01*
X108024762Y-89658628D02*
X108072381Y-89563390D01*
X108072381Y-89563390D02*
X108120000Y-89515771D01*
X108120000Y-89515771D02*
X108215238Y-89468152D01*
X108215238Y-89468152D02*
X108358095Y-89468152D01*
X108358095Y-89468152D02*
X108453333Y-89515771D01*
X108453333Y-89515771D02*
X108500952Y-89563390D01*
X108500952Y-89563390D02*
X108548571Y-89658628D01*
X108548571Y-89658628D02*
X108548571Y-89944342D01*
X108548571Y-89944342D02*
X108500952Y-90039580D01*
X108500952Y-90039580D02*
X108453333Y-90087200D01*
X108453333Y-90087200D02*
X108358095Y-90134819D01*
X108358095Y-90134819D02*
X108215238Y-90134819D01*
X108834286Y-89468152D02*
X109215238Y-89468152D01*
X108977143Y-89134819D02*
X108977143Y-89991961D01*
X108977143Y-89991961D02*
X109024762Y-90087200D01*
X109024762Y-90087200D02*
X109120000Y-90134819D01*
X109120000Y-90134819D02*
X109215238Y-90134819D01*
D10*
X110158732Y-78556583D02*
X110158732Y-77556583D01*
X110158732Y-77556583D02*
X110396827Y-77556583D01*
X110396827Y-77556583D02*
X110539684Y-77604202D01*
X110539684Y-77604202D02*
X110634922Y-77699440D01*
X110634922Y-77699440D02*
X110682541Y-77794678D01*
X110682541Y-77794678D02*
X110730160Y-77985154D01*
X110730160Y-77985154D02*
X110730160Y-78128011D01*
X110730160Y-78128011D02*
X110682541Y-78318487D01*
X110682541Y-78318487D02*
X110634922Y-78413725D01*
X110634922Y-78413725D02*
X110539684Y-78508964D01*
X110539684Y-78508964D02*
X110396827Y-78556583D01*
X110396827Y-78556583D02*
X110158732Y-78556583D01*
X111111113Y-77651821D02*
X111158732Y-77604202D01*
X111158732Y-77604202D02*
X111253970Y-77556583D01*
X111253970Y-77556583D02*
X111492065Y-77556583D01*
X111492065Y-77556583D02*
X111587303Y-77604202D01*
X111587303Y-77604202D02*
X111634922Y-77651821D01*
X111634922Y-77651821D02*
X111682541Y-77747059D01*
X111682541Y-77747059D02*
X111682541Y-77842297D01*
X111682541Y-77842297D02*
X111634922Y-77985154D01*
X111634922Y-77985154D02*
X111063494Y-78556583D01*
X111063494Y-78556583D02*
X111682541Y-78556583D01*
X88803884Y-63372419D02*
X88803884Y-62372419D01*
X88803884Y-62372419D02*
X89041979Y-62372419D01*
X89041979Y-62372419D02*
X89184836Y-62420038D01*
X89184836Y-62420038D02*
X89280074Y-62515276D01*
X89280074Y-62515276D02*
X89327693Y-62610514D01*
X89327693Y-62610514D02*
X89375312Y-62800990D01*
X89375312Y-62800990D02*
X89375312Y-62943847D01*
X89375312Y-62943847D02*
X89327693Y-63134323D01*
X89327693Y-63134323D02*
X89280074Y-63229561D01*
X89280074Y-63229561D02*
X89184836Y-63324800D01*
X89184836Y-63324800D02*
X89041979Y-63372419D01*
X89041979Y-63372419D02*
X88803884Y-63372419D01*
X89708646Y-62372419D02*
X90327693Y-62372419D01*
X90327693Y-62372419D02*
X89994360Y-62753371D01*
X89994360Y-62753371D02*
X90137217Y-62753371D01*
X90137217Y-62753371D02*
X90232455Y-62800990D01*
X90232455Y-62800990D02*
X90280074Y-62848609D01*
X90280074Y-62848609D02*
X90327693Y-62943847D01*
X90327693Y-62943847D02*
X90327693Y-63181942D01*
X90327693Y-63181942D02*
X90280074Y-63277180D01*
X90280074Y-63277180D02*
X90232455Y-63324800D01*
X90232455Y-63324800D02*
X90137217Y-63372419D01*
X90137217Y-63372419D02*
X89851503Y-63372419D01*
X89851503Y-63372419D02*
X89756265Y-63324800D01*
X89756265Y-63324800D02*
X89708646Y-63277180D01*
X90708646Y-62467657D02*
X90756265Y-62420038D01*
X90756265Y-62420038D02*
X90851503Y-62372419D01*
X90851503Y-62372419D02*
X91089598Y-62372419D01*
X91089598Y-62372419D02*
X91184836Y-62420038D01*
X91184836Y-62420038D02*
X91232455Y-62467657D01*
X91232455Y-62467657D02*
X91280074Y-62562895D01*
X91280074Y-62562895D02*
X91280074Y-62658133D01*
X91280074Y-62658133D02*
X91232455Y-62800990D01*
X91232455Y-62800990D02*
X90661027Y-63372419D01*
X90661027Y-63372419D02*
X91280074Y-63372419D01*
X109161027Y-54872419D02*
X109732455Y-54872419D01*
X109446741Y-55872419D02*
X109446741Y-54872419D01*
X109970551Y-54872419D02*
X110637217Y-55872419D01*
X110637217Y-54872419D02*
X109970551Y-55872419D01*
X111208646Y-54872419D02*
X111303884Y-54872419D01*
X111303884Y-54872419D02*
X111399122Y-54920038D01*
X111399122Y-54920038D02*
X111446741Y-54967657D01*
X111446741Y-54967657D02*
X111494360Y-55062895D01*
X111494360Y-55062895D02*
X111541979Y-55253371D01*
X111541979Y-55253371D02*
X111541979Y-55491466D01*
X111541979Y-55491466D02*
X111494360Y-55681942D01*
X111494360Y-55681942D02*
X111446741Y-55777180D01*
X111446741Y-55777180D02*
X111399122Y-55824800D01*
X111399122Y-55824800D02*
X111303884Y-55872419D01*
X111303884Y-55872419D02*
X111208646Y-55872419D01*
X111208646Y-55872419D02*
X111113408Y-55824800D01*
X111113408Y-55824800D02*
X111065789Y-55777180D01*
X111065789Y-55777180D02*
X111018170Y-55681942D01*
X111018170Y-55681942D02*
X110970551Y-55491466D01*
X110970551Y-55491466D02*
X110970551Y-55253371D01*
X110970551Y-55253371D02*
X111018170Y-55062895D01*
X111018170Y-55062895D02*
X111065789Y-54967657D01*
X111065789Y-54967657D02*
X111113408Y-54920038D01*
X111113408Y-54920038D02*
X111208646Y-54872419D01*
X88803884Y-49848609D02*
X89137217Y-49848609D01*
X89280074Y-50372419D02*
X88803884Y-50372419D01*
X88803884Y-50372419D02*
X88803884Y-49372419D01*
X88803884Y-49372419D02*
X89280074Y-49372419D01*
X89708646Y-50372419D02*
X89708646Y-49372419D01*
X89708646Y-49372419D02*
X90280074Y-50372419D01*
X90280074Y-50372419D02*
X90280074Y-49372419D01*
X88803884Y-75872419D02*
X88803884Y-74872419D01*
X88803884Y-74872419D02*
X89041979Y-74872419D01*
X89041979Y-74872419D02*
X89184836Y-74920038D01*
X89184836Y-74920038D02*
X89280074Y-75015276D01*
X89280074Y-75015276D02*
X89327693Y-75110514D01*
X89327693Y-75110514D02*
X89375312Y-75300990D01*
X89375312Y-75300990D02*
X89375312Y-75443847D01*
X89375312Y-75443847D02*
X89327693Y-75634323D01*
X89327693Y-75634323D02*
X89280074Y-75729561D01*
X89280074Y-75729561D02*
X89184836Y-75824800D01*
X89184836Y-75824800D02*
X89041979Y-75872419D01*
X89041979Y-75872419D02*
X88803884Y-75872419D01*
X90327693Y-75872419D02*
X89756265Y-75872419D01*
X90041979Y-75872419D02*
X90041979Y-74872419D01*
X90041979Y-74872419D02*
X89946741Y-75015276D01*
X89946741Y-75015276D02*
X89851503Y-75110514D01*
X89851503Y-75110514D02*
X89756265Y-75158133D01*
X91184836Y-75205752D02*
X91184836Y-75872419D01*
X90946741Y-74824800D02*
X90708646Y-75539085D01*
X90708646Y-75539085D02*
X91327693Y-75539085D01*
X88803884Y-80872419D02*
X88803884Y-79872419D01*
X88803884Y-79872419D02*
X89041979Y-79872419D01*
X89041979Y-79872419D02*
X89184836Y-79920038D01*
X89184836Y-79920038D02*
X89280074Y-80015276D01*
X89280074Y-80015276D02*
X89327693Y-80110514D01*
X89327693Y-80110514D02*
X89375312Y-80300990D01*
X89375312Y-80300990D02*
X89375312Y-80443847D01*
X89375312Y-80443847D02*
X89327693Y-80634323D01*
X89327693Y-80634323D02*
X89280074Y-80729561D01*
X89280074Y-80729561D02*
X89184836Y-80824800D01*
X89184836Y-80824800D02*
X89041979Y-80872419D01*
X89041979Y-80872419D02*
X88803884Y-80872419D01*
X90327693Y-80872419D02*
X89756265Y-80872419D01*
X90041979Y-80872419D02*
X90041979Y-79872419D01*
X90041979Y-79872419D02*
X89946741Y-80015276D01*
X89946741Y-80015276D02*
X89851503Y-80110514D01*
X89851503Y-80110514D02*
X89756265Y-80158133D01*
X90661027Y-79872419D02*
X91280074Y-79872419D01*
X91280074Y-79872419D02*
X90946741Y-80253371D01*
X90946741Y-80253371D02*
X91089598Y-80253371D01*
X91089598Y-80253371D02*
X91184836Y-80300990D01*
X91184836Y-80300990D02*
X91232455Y-80348609D01*
X91232455Y-80348609D02*
X91280074Y-80443847D01*
X91280074Y-80443847D02*
X91280074Y-80681942D01*
X91280074Y-80681942D02*
X91232455Y-80777180D01*
X91232455Y-80777180D02*
X91184836Y-80824800D01*
X91184836Y-80824800D02*
X91089598Y-80872419D01*
X91089598Y-80872419D02*
X90803884Y-80872419D01*
X90803884Y-80872419D02*
X90708646Y-80824800D01*
X90708646Y-80824800D02*
X90661027Y-80777180D01*
X109303884Y-60872419D02*
X109303884Y-59872419D01*
X109303884Y-59872419D02*
X109541979Y-59872419D01*
X109541979Y-59872419D02*
X109684836Y-59920038D01*
X109684836Y-59920038D02*
X109780074Y-60015276D01*
X109780074Y-60015276D02*
X109827693Y-60110514D01*
X109827693Y-60110514D02*
X109875312Y-60300990D01*
X109875312Y-60300990D02*
X109875312Y-60443847D01*
X109875312Y-60443847D02*
X109827693Y-60634323D01*
X109827693Y-60634323D02*
X109780074Y-60729561D01*
X109780074Y-60729561D02*
X109684836Y-60824800D01*
X109684836Y-60824800D02*
X109541979Y-60872419D01*
X109541979Y-60872419D02*
X109303884Y-60872419D01*
X110256265Y-59967657D02*
X110303884Y-59920038D01*
X110303884Y-59920038D02*
X110399122Y-59872419D01*
X110399122Y-59872419D02*
X110637217Y-59872419D01*
X110637217Y-59872419D02*
X110732455Y-59920038D01*
X110732455Y-59920038D02*
X110780074Y-59967657D01*
X110780074Y-59967657D02*
X110827693Y-60062895D01*
X110827693Y-60062895D02*
X110827693Y-60158133D01*
X110827693Y-60158133D02*
X110780074Y-60300990D01*
X110780074Y-60300990D02*
X110208646Y-60872419D01*
X110208646Y-60872419D02*
X110827693Y-60872419D01*
X111780074Y-60872419D02*
X111208646Y-60872419D01*
X111494360Y-60872419D02*
X111494360Y-59872419D01*
X111494360Y-59872419D02*
X111399122Y-60015276D01*
X111399122Y-60015276D02*
X111303884Y-60110514D01*
X111303884Y-60110514D02*
X111208646Y-60158133D01*
X88803884Y-78372419D02*
X88803884Y-77372419D01*
X88803884Y-77372419D02*
X89041979Y-77372419D01*
X89041979Y-77372419D02*
X89184836Y-77420038D01*
X89184836Y-77420038D02*
X89280074Y-77515276D01*
X89280074Y-77515276D02*
X89327693Y-77610514D01*
X89327693Y-77610514D02*
X89375312Y-77800990D01*
X89375312Y-77800990D02*
X89375312Y-77943847D01*
X89375312Y-77943847D02*
X89327693Y-78134323D01*
X89327693Y-78134323D02*
X89280074Y-78229561D01*
X89280074Y-78229561D02*
X89184836Y-78324800D01*
X89184836Y-78324800D02*
X89041979Y-78372419D01*
X89041979Y-78372419D02*
X88803884Y-78372419D01*
X90327693Y-78372419D02*
X89756265Y-78372419D01*
X90041979Y-78372419D02*
X90041979Y-77372419D01*
X90041979Y-77372419D02*
X89946741Y-77515276D01*
X89946741Y-77515276D02*
X89851503Y-77610514D01*
X89851503Y-77610514D02*
X89756265Y-77658133D01*
X90708646Y-77467657D02*
X90756265Y-77420038D01*
X90756265Y-77420038D02*
X90851503Y-77372419D01*
X90851503Y-77372419D02*
X91089598Y-77372419D01*
X91089598Y-77372419D02*
X91184836Y-77420038D01*
X91184836Y-77420038D02*
X91232455Y-77467657D01*
X91232455Y-77467657D02*
X91280074Y-77562895D01*
X91280074Y-77562895D02*
X91280074Y-77658133D01*
X91280074Y-77658133D02*
X91232455Y-77800990D01*
X91232455Y-77800990D02*
X90661027Y-78372419D01*
X90661027Y-78372419D02*
X91280074Y-78372419D01*
X109303884Y-80872419D02*
X109303884Y-79872419D01*
X109303884Y-79872419D02*
X109541979Y-79872419D01*
X109541979Y-79872419D02*
X109684836Y-79920038D01*
X109684836Y-79920038D02*
X109780074Y-80015276D01*
X109780074Y-80015276D02*
X109827693Y-80110514D01*
X109827693Y-80110514D02*
X109875312Y-80300990D01*
X109875312Y-80300990D02*
X109875312Y-80443847D01*
X109875312Y-80443847D02*
X109827693Y-80634323D01*
X109827693Y-80634323D02*
X109780074Y-80729561D01*
X109780074Y-80729561D02*
X109684836Y-80824800D01*
X109684836Y-80824800D02*
X109541979Y-80872419D01*
X109541979Y-80872419D02*
X109303884Y-80872419D01*
X110827693Y-80872419D02*
X110256265Y-80872419D01*
X110541979Y-80872419D02*
X110541979Y-79872419D01*
X110541979Y-79872419D02*
X110446741Y-80015276D01*
X110446741Y-80015276D02*
X110351503Y-80110514D01*
X110351503Y-80110514D02*
X110256265Y-80158133D01*
X111732455Y-79872419D02*
X111256265Y-79872419D01*
X111256265Y-79872419D02*
X111208646Y-80348609D01*
X111208646Y-80348609D02*
X111256265Y-80300990D01*
X111256265Y-80300990D02*
X111351503Y-80253371D01*
X111351503Y-80253371D02*
X111589598Y-80253371D01*
X111589598Y-80253371D02*
X111684836Y-80300990D01*
X111684836Y-80300990D02*
X111732455Y-80348609D01*
X111732455Y-80348609D02*
X111780074Y-80443847D01*
X111780074Y-80443847D02*
X111780074Y-80681942D01*
X111780074Y-80681942D02*
X111732455Y-80777180D01*
X111732455Y-80777180D02*
X111684836Y-80824800D01*
X111684836Y-80824800D02*
X111589598Y-80872419D01*
X111589598Y-80872419D02*
X111351503Y-80872419D01*
X111351503Y-80872419D02*
X111256265Y-80824800D01*
X111256265Y-80824800D02*
X111208646Y-80777180D01*
D11*
X90118095Y-89611009D02*
X90451428Y-89611009D01*
X90594285Y-90134819D02*
X90118095Y-90134819D01*
X90118095Y-90134819D02*
X90118095Y-89134819D01*
X90118095Y-89134819D02*
X90594285Y-89134819D01*
X91022857Y-89468152D02*
X91022857Y-90134819D01*
X91022857Y-89563390D02*
X91070476Y-89515771D01*
X91070476Y-89515771D02*
X91165714Y-89468152D01*
X91165714Y-89468152D02*
X91308571Y-89468152D01*
X91308571Y-89468152D02*
X91403809Y-89515771D01*
X91403809Y-89515771D02*
X91451428Y-89611009D01*
X91451428Y-89611009D02*
X91451428Y-90134819D01*
X92356190Y-90134819D02*
X92356190Y-89611009D01*
X92356190Y-89611009D02*
X92308571Y-89515771D01*
X92308571Y-89515771D02*
X92213333Y-89468152D01*
X92213333Y-89468152D02*
X92022857Y-89468152D01*
X92022857Y-89468152D02*
X91927619Y-89515771D01*
X92356190Y-90087200D02*
X92260952Y-90134819D01*
X92260952Y-90134819D02*
X92022857Y-90134819D01*
X92022857Y-90134819D02*
X91927619Y-90087200D01*
X91927619Y-90087200D02*
X91880000Y-89991961D01*
X91880000Y-89991961D02*
X91880000Y-89896723D01*
X91880000Y-89896723D02*
X91927619Y-89801485D01*
X91927619Y-89801485D02*
X92022857Y-89753866D01*
X92022857Y-89753866D02*
X92260952Y-89753866D01*
X92260952Y-89753866D02*
X92356190Y-89706247D01*
X92832381Y-90134819D02*
X92832381Y-89134819D01*
X92832381Y-89515771D02*
X92927619Y-89468152D01*
X92927619Y-89468152D02*
X93118095Y-89468152D01*
X93118095Y-89468152D02*
X93213333Y-89515771D01*
X93213333Y-89515771D02*
X93260952Y-89563390D01*
X93260952Y-89563390D02*
X93308571Y-89658628D01*
X93308571Y-89658628D02*
X93308571Y-89944342D01*
X93308571Y-89944342D02*
X93260952Y-90039580D01*
X93260952Y-90039580D02*
X93213333Y-90087200D01*
X93213333Y-90087200D02*
X93118095Y-90134819D01*
X93118095Y-90134819D02*
X92927619Y-90134819D01*
X92927619Y-90134819D02*
X92832381Y-90087200D01*
X93880000Y-90134819D02*
X93784762Y-90087200D01*
X93784762Y-90087200D02*
X93737143Y-89991961D01*
X93737143Y-89991961D02*
X93737143Y-89134819D01*
X94641905Y-90087200D02*
X94546667Y-90134819D01*
X94546667Y-90134819D02*
X94356191Y-90134819D01*
X94356191Y-90134819D02*
X94260953Y-90087200D01*
X94260953Y-90087200D02*
X94213334Y-89991961D01*
X94213334Y-89991961D02*
X94213334Y-89611009D01*
X94213334Y-89611009D02*
X94260953Y-89515771D01*
X94260953Y-89515771D02*
X94356191Y-89468152D01*
X94356191Y-89468152D02*
X94546667Y-89468152D01*
X94546667Y-89468152D02*
X94641905Y-89515771D01*
X94641905Y-89515771D02*
X94689524Y-89611009D01*
X94689524Y-89611009D02*
X94689524Y-89706247D01*
X94689524Y-89706247D02*
X94213334Y-89801485D01*
D10*
X109193884Y-50182419D02*
X109193884Y-49182419D01*
X109193884Y-49182419D02*
X109431979Y-49182419D01*
X109431979Y-49182419D02*
X109574836Y-49230038D01*
X109574836Y-49230038D02*
X109670074Y-49325276D01*
X109670074Y-49325276D02*
X109717693Y-49420514D01*
X109717693Y-49420514D02*
X109765312Y-49610990D01*
X109765312Y-49610990D02*
X109765312Y-49753847D01*
X109765312Y-49753847D02*
X109717693Y-49944323D01*
X109717693Y-49944323D02*
X109670074Y-50039561D01*
X109670074Y-50039561D02*
X109574836Y-50134800D01*
X109574836Y-50134800D02*
X109431979Y-50182419D01*
X109431979Y-50182419D02*
X109193884Y-50182419D01*
X110146265Y-49277657D02*
X110193884Y-49230038D01*
X110193884Y-49230038D02*
X110289122Y-49182419D01*
X110289122Y-49182419D02*
X110527217Y-49182419D01*
X110527217Y-49182419D02*
X110622455Y-49230038D01*
X110622455Y-49230038D02*
X110670074Y-49277657D01*
X110670074Y-49277657D02*
X110717693Y-49372895D01*
X110717693Y-49372895D02*
X110717693Y-49468133D01*
X110717693Y-49468133D02*
X110670074Y-49610990D01*
X110670074Y-49610990D02*
X110098646Y-50182419D01*
X110098646Y-50182419D02*
X110717693Y-50182419D01*
X111051027Y-49182419D02*
X111670074Y-49182419D01*
X111670074Y-49182419D02*
X111336741Y-49563371D01*
X111336741Y-49563371D02*
X111479598Y-49563371D01*
X111479598Y-49563371D02*
X111574836Y-49610990D01*
X111574836Y-49610990D02*
X111622455Y-49658609D01*
X111622455Y-49658609D02*
X111670074Y-49753847D01*
X111670074Y-49753847D02*
X111670074Y-49991942D01*
X111670074Y-49991942D02*
X111622455Y-50087180D01*
X111622455Y-50087180D02*
X111574836Y-50134800D01*
X111574836Y-50134800D02*
X111479598Y-50182419D01*
X111479598Y-50182419D02*
X111193884Y-50182419D01*
X111193884Y-50182419D02*
X111098646Y-50134800D01*
X111098646Y-50134800D02*
X111051027Y-50087180D01*
X88661027Y-85372419D02*
X88994360Y-86372419D01*
X88994360Y-86372419D02*
X89327693Y-85372419D01*
X89661027Y-86372419D02*
X89661027Y-85372419D01*
X90137217Y-86372419D02*
X90137217Y-85372419D01*
X90137217Y-85372419D02*
X90708645Y-86372419D01*
X90708645Y-86372419D02*
X90708645Y-85372419D01*
X88803884Y-57872419D02*
X88803884Y-56872419D01*
X88803884Y-56872419D02*
X89041979Y-56872419D01*
X89041979Y-56872419D02*
X89184836Y-56920038D01*
X89184836Y-56920038D02*
X89280074Y-57015276D01*
X89280074Y-57015276D02*
X89327693Y-57110514D01*
X89327693Y-57110514D02*
X89375312Y-57300990D01*
X89375312Y-57300990D02*
X89375312Y-57443847D01*
X89375312Y-57443847D02*
X89327693Y-57634323D01*
X89327693Y-57634323D02*
X89280074Y-57729561D01*
X89280074Y-57729561D02*
X89184836Y-57824800D01*
X89184836Y-57824800D02*
X89041979Y-57872419D01*
X89041979Y-57872419D02*
X88803884Y-57872419D01*
X89708646Y-56872419D02*
X90327693Y-56872419D01*
X90327693Y-56872419D02*
X89994360Y-57253371D01*
X89994360Y-57253371D02*
X90137217Y-57253371D01*
X90137217Y-57253371D02*
X90232455Y-57300990D01*
X90232455Y-57300990D02*
X90280074Y-57348609D01*
X90280074Y-57348609D02*
X90327693Y-57443847D01*
X90327693Y-57443847D02*
X90327693Y-57681942D01*
X90327693Y-57681942D02*
X90280074Y-57777180D01*
X90280074Y-57777180D02*
X90232455Y-57824800D01*
X90232455Y-57824800D02*
X90137217Y-57872419D01*
X90137217Y-57872419D02*
X89851503Y-57872419D01*
X89851503Y-57872419D02*
X89756265Y-57824800D01*
X89756265Y-57824800D02*
X89708646Y-57777180D01*
X91184836Y-57205752D02*
X91184836Y-57872419D01*
X90946741Y-56824800D02*
X90708646Y-57539085D01*
X90708646Y-57539085D02*
X91327693Y-57539085D01*
X88803884Y-60372419D02*
X88803884Y-59372419D01*
X88803884Y-59372419D02*
X89041979Y-59372419D01*
X89041979Y-59372419D02*
X89184836Y-59420038D01*
X89184836Y-59420038D02*
X89280074Y-59515276D01*
X89280074Y-59515276D02*
X89327693Y-59610514D01*
X89327693Y-59610514D02*
X89375312Y-59800990D01*
X89375312Y-59800990D02*
X89375312Y-59943847D01*
X89375312Y-59943847D02*
X89327693Y-60134323D01*
X89327693Y-60134323D02*
X89280074Y-60229561D01*
X89280074Y-60229561D02*
X89184836Y-60324800D01*
X89184836Y-60324800D02*
X89041979Y-60372419D01*
X89041979Y-60372419D02*
X88803884Y-60372419D01*
X89708646Y-59372419D02*
X90327693Y-59372419D01*
X90327693Y-59372419D02*
X89994360Y-59753371D01*
X89994360Y-59753371D02*
X90137217Y-59753371D01*
X90137217Y-59753371D02*
X90232455Y-59800990D01*
X90232455Y-59800990D02*
X90280074Y-59848609D01*
X90280074Y-59848609D02*
X90327693Y-59943847D01*
X90327693Y-59943847D02*
X90327693Y-60181942D01*
X90327693Y-60181942D02*
X90280074Y-60277180D01*
X90280074Y-60277180D02*
X90232455Y-60324800D01*
X90232455Y-60324800D02*
X90137217Y-60372419D01*
X90137217Y-60372419D02*
X89851503Y-60372419D01*
X89851503Y-60372419D02*
X89756265Y-60324800D01*
X89756265Y-60324800D02*
X89708646Y-60277180D01*
X91232455Y-59372419D02*
X90756265Y-59372419D01*
X90756265Y-59372419D02*
X90708646Y-59848609D01*
X90708646Y-59848609D02*
X90756265Y-59800990D01*
X90756265Y-59800990D02*
X90851503Y-59753371D01*
X90851503Y-59753371D02*
X91089598Y-59753371D01*
X91089598Y-59753371D02*
X91184836Y-59800990D01*
X91184836Y-59800990D02*
X91232455Y-59848609D01*
X91232455Y-59848609D02*
X91280074Y-59943847D01*
X91280074Y-59943847D02*
X91280074Y-60181942D01*
X91280074Y-60181942D02*
X91232455Y-60277180D01*
X91232455Y-60277180D02*
X91184836Y-60324800D01*
X91184836Y-60324800D02*
X91089598Y-60372419D01*
X91089598Y-60372419D02*
X90851503Y-60372419D01*
X90851503Y-60372419D02*
X90756265Y-60324800D01*
X90756265Y-60324800D02*
X90708646Y-60277180D01*
X110185266Y-75929647D02*
X110185266Y-74929647D01*
X110185266Y-74929647D02*
X110423361Y-74929647D01*
X110423361Y-74929647D02*
X110566218Y-74977266D01*
X110566218Y-74977266D02*
X110661456Y-75072504D01*
X110661456Y-75072504D02*
X110709075Y-75167742D01*
X110709075Y-75167742D02*
X110756694Y-75358218D01*
X110756694Y-75358218D02*
X110756694Y-75501075D01*
X110756694Y-75501075D02*
X110709075Y-75691551D01*
X110709075Y-75691551D02*
X110661456Y-75786789D01*
X110661456Y-75786789D02*
X110566218Y-75882028D01*
X110566218Y-75882028D02*
X110423361Y-75929647D01*
X110423361Y-75929647D02*
X110185266Y-75929647D01*
X111613837Y-75262980D02*
X111613837Y-75929647D01*
X111375742Y-74882028D02*
X111137647Y-75596313D01*
X111137647Y-75596313D02*
X111756694Y-75596313D01*
X109875312Y-73372419D02*
X109541979Y-72896228D01*
X109303884Y-73372419D02*
X109303884Y-72372419D01*
X109303884Y-72372419D02*
X109684836Y-72372419D01*
X109684836Y-72372419D02*
X109780074Y-72420038D01*
X109780074Y-72420038D02*
X109827693Y-72467657D01*
X109827693Y-72467657D02*
X109875312Y-72562895D01*
X109875312Y-72562895D02*
X109875312Y-72705752D01*
X109875312Y-72705752D02*
X109827693Y-72800990D01*
X109827693Y-72800990D02*
X109780074Y-72848609D01*
X109780074Y-72848609D02*
X109684836Y-72896228D01*
X109684836Y-72896228D02*
X109303884Y-72896228D01*
X110208646Y-72372419D02*
X110875312Y-73372419D01*
X110875312Y-72372419D02*
X110208646Y-73372419D01*
X111208646Y-72467657D02*
X111256265Y-72420038D01*
X111256265Y-72420038D02*
X111351503Y-72372419D01*
X111351503Y-72372419D02*
X111589598Y-72372419D01*
X111589598Y-72372419D02*
X111684836Y-72420038D01*
X111684836Y-72420038D02*
X111732455Y-72467657D01*
X111732455Y-72467657D02*
X111780074Y-72562895D01*
X111780074Y-72562895D02*
X111780074Y-72658133D01*
X111780074Y-72658133D02*
X111732455Y-72800990D01*
X111732455Y-72800990D02*
X111161027Y-73372419D01*
X111161027Y-73372419D02*
X111780074Y-73372419D01*
X109208646Y-85372419D02*
X109827693Y-85372419D01*
X109827693Y-85372419D02*
X109494360Y-85753371D01*
X109494360Y-85753371D02*
X109637217Y-85753371D01*
X109637217Y-85753371D02*
X109732455Y-85800990D01*
X109732455Y-85800990D02*
X109780074Y-85848609D01*
X109780074Y-85848609D02*
X109827693Y-85943847D01*
X109827693Y-85943847D02*
X109827693Y-86181942D01*
X109827693Y-86181942D02*
X109780074Y-86277180D01*
X109780074Y-86277180D02*
X109732455Y-86324800D01*
X109732455Y-86324800D02*
X109637217Y-86372419D01*
X109637217Y-86372419D02*
X109351503Y-86372419D01*
X109351503Y-86372419D02*
X109256265Y-86324800D01*
X109256265Y-86324800D02*
X109208646Y-86277180D01*
X110113408Y-85372419D02*
X110446741Y-86372419D01*
X110446741Y-86372419D02*
X110780074Y-85372419D01*
X111018170Y-85372419D02*
X111637217Y-85372419D01*
X111637217Y-85372419D02*
X111303884Y-85753371D01*
X111303884Y-85753371D02*
X111446741Y-85753371D01*
X111446741Y-85753371D02*
X111541979Y-85800990D01*
X111541979Y-85800990D02*
X111589598Y-85848609D01*
X111589598Y-85848609D02*
X111637217Y-85943847D01*
X111637217Y-85943847D02*
X111637217Y-86181942D01*
X111637217Y-86181942D02*
X111589598Y-86277180D01*
X111589598Y-86277180D02*
X111541979Y-86324800D01*
X111541979Y-86324800D02*
X111446741Y-86372419D01*
X111446741Y-86372419D02*
X111161027Y-86372419D01*
X111161027Y-86372419D02*
X111065789Y-86324800D01*
X111065789Y-86324800D02*
X111018170Y-86277180D01*
X109303884Y-52872419D02*
X109303884Y-51872419D01*
X109303884Y-51872419D02*
X109541979Y-51872419D01*
X109541979Y-51872419D02*
X109684836Y-51920038D01*
X109684836Y-51920038D02*
X109780074Y-52015276D01*
X109780074Y-52015276D02*
X109827693Y-52110514D01*
X109827693Y-52110514D02*
X109875312Y-52300990D01*
X109875312Y-52300990D02*
X109875312Y-52443847D01*
X109875312Y-52443847D02*
X109827693Y-52634323D01*
X109827693Y-52634323D02*
X109780074Y-52729561D01*
X109780074Y-52729561D02*
X109684836Y-52824800D01*
X109684836Y-52824800D02*
X109541979Y-52872419D01*
X109541979Y-52872419D02*
X109303884Y-52872419D01*
X110256265Y-51967657D02*
X110303884Y-51920038D01*
X110303884Y-51920038D02*
X110399122Y-51872419D01*
X110399122Y-51872419D02*
X110637217Y-51872419D01*
X110637217Y-51872419D02*
X110732455Y-51920038D01*
X110732455Y-51920038D02*
X110780074Y-51967657D01*
X110780074Y-51967657D02*
X110827693Y-52062895D01*
X110827693Y-52062895D02*
X110827693Y-52158133D01*
X110827693Y-52158133D02*
X110780074Y-52300990D01*
X110780074Y-52300990D02*
X110208646Y-52872419D01*
X110208646Y-52872419D02*
X110827693Y-52872419D01*
X111208646Y-51967657D02*
X111256265Y-51920038D01*
X111256265Y-51920038D02*
X111351503Y-51872419D01*
X111351503Y-51872419D02*
X111589598Y-51872419D01*
X111589598Y-51872419D02*
X111684836Y-51920038D01*
X111684836Y-51920038D02*
X111732455Y-51967657D01*
X111732455Y-51967657D02*
X111780074Y-52062895D01*
X111780074Y-52062895D02*
X111780074Y-52158133D01*
X111780074Y-52158133D02*
X111732455Y-52300990D01*
X111732455Y-52300990D02*
X111161027Y-52872419D01*
X111161027Y-52872419D02*
X111780074Y-52872419D01*
X88661027Y-54372419D02*
X88994360Y-55372419D01*
X88994360Y-55372419D02*
X89327693Y-54372419D01*
X89661027Y-55372419D02*
X89661027Y-54372419D01*
X89661027Y-54372419D02*
X90232455Y-55372419D01*
X90232455Y-55372419D02*
X90232455Y-54372419D01*
X109647687Y-82672331D02*
X109552449Y-82624712D01*
X109552449Y-82624712D02*
X109409592Y-82624712D01*
X109409592Y-82624712D02*
X109266735Y-82672331D01*
X109266735Y-82672331D02*
X109171497Y-82767569D01*
X109171497Y-82767569D02*
X109123878Y-82862807D01*
X109123878Y-82862807D02*
X109076259Y-83053283D01*
X109076259Y-83053283D02*
X109076259Y-83196140D01*
X109076259Y-83196140D02*
X109123878Y-83386616D01*
X109123878Y-83386616D02*
X109171497Y-83481854D01*
X109171497Y-83481854D02*
X109266735Y-83577093D01*
X109266735Y-83577093D02*
X109409592Y-83624712D01*
X109409592Y-83624712D02*
X109504830Y-83624712D01*
X109504830Y-83624712D02*
X109647687Y-83577093D01*
X109647687Y-83577093D02*
X109695306Y-83529473D01*
X109695306Y-83529473D02*
X109695306Y-83196140D01*
X109695306Y-83196140D02*
X109504830Y-83196140D01*
X110123878Y-83624712D02*
X110123878Y-82624712D01*
X110123878Y-82624712D02*
X110695306Y-83624712D01*
X110695306Y-83624712D02*
X110695306Y-82624712D01*
X111171497Y-83624712D02*
X111171497Y-82624712D01*
X111171497Y-82624712D02*
X111409592Y-82624712D01*
X111409592Y-82624712D02*
X111552449Y-82672331D01*
X111552449Y-82672331D02*
X111647687Y-82767569D01*
X111647687Y-82767569D02*
X111695306Y-82862807D01*
X111695306Y-82862807D02*
X111742925Y-83053283D01*
X111742925Y-83053283D02*
X111742925Y-83196140D01*
X111742925Y-83196140D02*
X111695306Y-83386616D01*
X111695306Y-83386616D02*
X111647687Y-83481854D01*
X111647687Y-83481854D02*
X111552449Y-83577093D01*
X111552449Y-83577093D02*
X111409592Y-83624712D01*
X111409592Y-83624712D02*
X111171497Y-83624712D01*
X110176947Y-68326090D02*
X110176947Y-67326090D01*
X110176947Y-67326090D02*
X110415042Y-67326090D01*
X110415042Y-67326090D02*
X110557899Y-67373709D01*
X110557899Y-67373709D02*
X110653137Y-67468947D01*
X110653137Y-67468947D02*
X110700756Y-67564185D01*
X110700756Y-67564185D02*
X110748375Y-67754661D01*
X110748375Y-67754661D02*
X110748375Y-67897518D01*
X110748375Y-67897518D02*
X110700756Y-68087994D01*
X110700756Y-68087994D02*
X110653137Y-68183232D01*
X110653137Y-68183232D02*
X110557899Y-68278471D01*
X110557899Y-68278471D02*
X110415042Y-68326090D01*
X110415042Y-68326090D02*
X110176947Y-68326090D01*
X111653137Y-67326090D02*
X111176947Y-67326090D01*
X111176947Y-67326090D02*
X111129328Y-67802280D01*
X111129328Y-67802280D02*
X111176947Y-67754661D01*
X111176947Y-67754661D02*
X111272185Y-67707042D01*
X111272185Y-67707042D02*
X111510280Y-67707042D01*
X111510280Y-67707042D02*
X111605518Y-67754661D01*
X111605518Y-67754661D02*
X111653137Y-67802280D01*
X111653137Y-67802280D02*
X111700756Y-67897518D01*
X111700756Y-67897518D02*
X111700756Y-68135613D01*
X111700756Y-68135613D02*
X111653137Y-68230851D01*
X111653137Y-68230851D02*
X111605518Y-68278471D01*
X111605518Y-68278471D02*
X111510280Y-68326090D01*
X111510280Y-68326090D02*
X111272185Y-68326090D01*
X111272185Y-68326090D02*
X111176947Y-68278471D01*
X111176947Y-68278471D02*
X111129328Y-68230851D01*
X109303884Y-63372419D02*
X109303884Y-62372419D01*
X109303884Y-62372419D02*
X109541979Y-62372419D01*
X109541979Y-62372419D02*
X109684836Y-62420038D01*
X109684836Y-62420038D02*
X109780074Y-62515276D01*
X109780074Y-62515276D02*
X109827693Y-62610514D01*
X109827693Y-62610514D02*
X109875312Y-62800990D01*
X109875312Y-62800990D02*
X109875312Y-62943847D01*
X109875312Y-62943847D02*
X109827693Y-63134323D01*
X109827693Y-63134323D02*
X109780074Y-63229561D01*
X109780074Y-63229561D02*
X109684836Y-63324800D01*
X109684836Y-63324800D02*
X109541979Y-63372419D01*
X109541979Y-63372419D02*
X109303884Y-63372419D01*
X110827693Y-63372419D02*
X110256265Y-63372419D01*
X110541979Y-63372419D02*
X110541979Y-62372419D01*
X110541979Y-62372419D02*
X110446741Y-62515276D01*
X110446741Y-62515276D02*
X110351503Y-62610514D01*
X110351503Y-62610514D02*
X110256265Y-62658133D01*
X111303884Y-63372419D02*
X111494360Y-63372419D01*
X111494360Y-63372419D02*
X111589598Y-63324800D01*
X111589598Y-63324800D02*
X111637217Y-63277180D01*
X111637217Y-63277180D02*
X111732455Y-63134323D01*
X111732455Y-63134323D02*
X111780074Y-62943847D01*
X111780074Y-62943847D02*
X111780074Y-62562895D01*
X111780074Y-62562895D02*
X111732455Y-62467657D01*
X111732455Y-62467657D02*
X111684836Y-62420038D01*
X111684836Y-62420038D02*
X111589598Y-62372419D01*
X111589598Y-62372419D02*
X111399122Y-62372419D01*
X111399122Y-62372419D02*
X111303884Y-62420038D01*
X111303884Y-62420038D02*
X111256265Y-62467657D01*
X111256265Y-62467657D02*
X111208646Y-62562895D01*
X111208646Y-62562895D02*
X111208646Y-62800990D01*
X111208646Y-62800990D02*
X111256265Y-62896228D01*
X111256265Y-62896228D02*
X111303884Y-62943847D01*
X111303884Y-62943847D02*
X111399122Y-62991466D01*
X111399122Y-62991466D02*
X111589598Y-62991466D01*
X111589598Y-62991466D02*
X111684836Y-62943847D01*
X111684836Y-62943847D02*
X111732455Y-62896228D01*
X111732455Y-62896228D02*
X111780074Y-62800990D01*
X109303884Y-65872419D02*
X109303884Y-64872419D01*
X109303884Y-64872419D02*
X109541979Y-64872419D01*
X109541979Y-64872419D02*
X109684836Y-64920038D01*
X109684836Y-64920038D02*
X109780074Y-65015276D01*
X109780074Y-65015276D02*
X109827693Y-65110514D01*
X109827693Y-65110514D02*
X109875312Y-65300990D01*
X109875312Y-65300990D02*
X109875312Y-65443847D01*
X109875312Y-65443847D02*
X109827693Y-65634323D01*
X109827693Y-65634323D02*
X109780074Y-65729561D01*
X109780074Y-65729561D02*
X109684836Y-65824800D01*
X109684836Y-65824800D02*
X109541979Y-65872419D01*
X109541979Y-65872419D02*
X109303884Y-65872419D01*
X110827693Y-65872419D02*
X110256265Y-65872419D01*
X110541979Y-65872419D02*
X110541979Y-64872419D01*
X110541979Y-64872419D02*
X110446741Y-65015276D01*
X110446741Y-65015276D02*
X110351503Y-65110514D01*
X110351503Y-65110514D02*
X110256265Y-65158133D01*
X111399122Y-65300990D02*
X111303884Y-65253371D01*
X111303884Y-65253371D02*
X111256265Y-65205752D01*
X111256265Y-65205752D02*
X111208646Y-65110514D01*
X111208646Y-65110514D02*
X111208646Y-65062895D01*
X111208646Y-65062895D02*
X111256265Y-64967657D01*
X111256265Y-64967657D02*
X111303884Y-64920038D01*
X111303884Y-64920038D02*
X111399122Y-64872419D01*
X111399122Y-64872419D02*
X111589598Y-64872419D01*
X111589598Y-64872419D02*
X111684836Y-64920038D01*
X111684836Y-64920038D02*
X111732455Y-64967657D01*
X111732455Y-64967657D02*
X111780074Y-65062895D01*
X111780074Y-65062895D02*
X111780074Y-65110514D01*
X111780074Y-65110514D02*
X111732455Y-65205752D01*
X111732455Y-65205752D02*
X111684836Y-65253371D01*
X111684836Y-65253371D02*
X111589598Y-65300990D01*
X111589598Y-65300990D02*
X111399122Y-65300990D01*
X111399122Y-65300990D02*
X111303884Y-65348609D01*
X111303884Y-65348609D02*
X111256265Y-65396228D01*
X111256265Y-65396228D02*
X111208646Y-65491466D01*
X111208646Y-65491466D02*
X111208646Y-65681942D01*
X111208646Y-65681942D02*
X111256265Y-65777180D01*
X111256265Y-65777180D02*
X111303884Y-65824800D01*
X111303884Y-65824800D02*
X111399122Y-65872419D01*
X111399122Y-65872419D02*
X111589598Y-65872419D01*
X111589598Y-65872419D02*
X111684836Y-65824800D01*
X111684836Y-65824800D02*
X111732455Y-65777180D01*
X111732455Y-65777180D02*
X111780074Y-65681942D01*
X111780074Y-65681942D02*
X111780074Y-65491466D01*
X111780074Y-65491466D02*
X111732455Y-65396228D01*
X111732455Y-65396228D02*
X111684836Y-65348609D01*
X111684836Y-65348609D02*
X111589598Y-65300990D01*
X88803884Y-68372419D02*
X88803884Y-67372419D01*
X88803884Y-67372419D02*
X89041979Y-67372419D01*
X89041979Y-67372419D02*
X89184836Y-67420038D01*
X89184836Y-67420038D02*
X89280074Y-67515276D01*
X89280074Y-67515276D02*
X89327693Y-67610514D01*
X89327693Y-67610514D02*
X89375312Y-67800990D01*
X89375312Y-67800990D02*
X89375312Y-67943847D01*
X89375312Y-67943847D02*
X89327693Y-68134323D01*
X89327693Y-68134323D02*
X89280074Y-68229561D01*
X89280074Y-68229561D02*
X89184836Y-68324800D01*
X89184836Y-68324800D02*
X89041979Y-68372419D01*
X89041979Y-68372419D02*
X88803884Y-68372419D01*
X89756265Y-67467657D02*
X89803884Y-67420038D01*
X89803884Y-67420038D02*
X89899122Y-67372419D01*
X89899122Y-67372419D02*
X90137217Y-67372419D01*
X90137217Y-67372419D02*
X90232455Y-67420038D01*
X90232455Y-67420038D02*
X90280074Y-67467657D01*
X90280074Y-67467657D02*
X90327693Y-67562895D01*
X90327693Y-67562895D02*
X90327693Y-67658133D01*
X90327693Y-67658133D02*
X90280074Y-67800990D01*
X90280074Y-67800990D02*
X89708646Y-68372419D01*
X89708646Y-68372419D02*
X90327693Y-68372419D01*
X91232455Y-67372419D02*
X90756265Y-67372419D01*
X90756265Y-67372419D02*
X90708646Y-67848609D01*
X90708646Y-67848609D02*
X90756265Y-67800990D01*
X90756265Y-67800990D02*
X90851503Y-67753371D01*
X90851503Y-67753371D02*
X91089598Y-67753371D01*
X91089598Y-67753371D02*
X91184836Y-67800990D01*
X91184836Y-67800990D02*
X91232455Y-67848609D01*
X91232455Y-67848609D02*
X91280074Y-67943847D01*
X91280074Y-67943847D02*
X91280074Y-68181942D01*
X91280074Y-68181942D02*
X91232455Y-68277180D01*
X91232455Y-68277180D02*
X91184836Y-68324800D01*
X91184836Y-68324800D02*
X91089598Y-68372419D01*
X91089598Y-68372419D02*
X90851503Y-68372419D01*
X90851503Y-68372419D02*
X90756265Y-68324800D01*
X90756265Y-68324800D02*
X90708646Y-68277180D01*
D11*
X98738095Y-92944819D02*
X98738095Y-93754342D01*
X98738095Y-93754342D02*
X98785714Y-93849580D01*
X98785714Y-93849580D02*
X98833333Y-93897200D01*
X98833333Y-93897200D02*
X98928571Y-93944819D01*
X98928571Y-93944819D02*
X99119047Y-93944819D01*
X99119047Y-93944819D02*
X99214285Y-93897200D01*
X99214285Y-93897200D02*
X99261904Y-93849580D01*
X99261904Y-93849580D02*
X99309523Y-93754342D01*
X99309523Y-93754342D02*
X99309523Y-92944819D01*
X99738095Y-93897200D02*
X99880952Y-93944819D01*
X99880952Y-93944819D02*
X100119047Y-93944819D01*
X100119047Y-93944819D02*
X100214285Y-93897200D01*
X100214285Y-93897200D02*
X100261904Y-93849580D01*
X100261904Y-93849580D02*
X100309523Y-93754342D01*
X100309523Y-93754342D02*
X100309523Y-93659104D01*
X100309523Y-93659104D02*
X100261904Y-93563866D01*
X100261904Y-93563866D02*
X100214285Y-93516247D01*
X100214285Y-93516247D02*
X100119047Y-93468628D01*
X100119047Y-93468628D02*
X99928571Y-93421009D01*
X99928571Y-93421009D02*
X99833333Y-93373390D01*
X99833333Y-93373390D02*
X99785714Y-93325771D01*
X99785714Y-93325771D02*
X99738095Y-93230533D01*
X99738095Y-93230533D02*
X99738095Y-93135295D01*
X99738095Y-93135295D02*
X99785714Y-93040057D01*
X99785714Y-93040057D02*
X99833333Y-92992438D01*
X99833333Y-92992438D02*
X99928571Y-92944819D01*
X99928571Y-92944819D02*
X100166666Y-92944819D01*
X100166666Y-92944819D02*
X100309523Y-92992438D01*
X101071428Y-93421009D02*
X101214285Y-93468628D01*
X101214285Y-93468628D02*
X101261904Y-93516247D01*
X101261904Y-93516247D02*
X101309523Y-93611485D01*
X101309523Y-93611485D02*
X101309523Y-93754342D01*
X101309523Y-93754342D02*
X101261904Y-93849580D01*
X101261904Y-93849580D02*
X101214285Y-93897200D01*
X101214285Y-93897200D02*
X101119047Y-93944819D01*
X101119047Y-93944819D02*
X100738095Y-93944819D01*
X100738095Y-93944819D02*
X100738095Y-92944819D01*
X100738095Y-92944819D02*
X101071428Y-92944819D01*
X101071428Y-92944819D02*
X101166666Y-92992438D01*
X101166666Y-92992438D02*
X101214285Y-93040057D01*
X101214285Y-93040057D02*
X101261904Y-93135295D01*
X101261904Y-93135295D02*
X101261904Y-93230533D01*
X101261904Y-93230533D02*
X101214285Y-93325771D01*
X101214285Y-93325771D02*
X101166666Y-93373390D01*
X101166666Y-93373390D02*
X101071428Y-93421009D01*
X101071428Y-93421009D02*
X100738095Y-93421009D01*
D10*
X88803884Y-65872419D02*
X88803884Y-64872419D01*
X88803884Y-64872419D02*
X89041979Y-64872419D01*
X89041979Y-64872419D02*
X89184836Y-64920038D01*
X89184836Y-64920038D02*
X89280074Y-65015276D01*
X89280074Y-65015276D02*
X89327693Y-65110514D01*
X89327693Y-65110514D02*
X89375312Y-65300990D01*
X89375312Y-65300990D02*
X89375312Y-65443847D01*
X89375312Y-65443847D02*
X89327693Y-65634323D01*
X89327693Y-65634323D02*
X89280074Y-65729561D01*
X89280074Y-65729561D02*
X89184836Y-65824800D01*
X89184836Y-65824800D02*
X89041979Y-65872419D01*
X89041979Y-65872419D02*
X88803884Y-65872419D01*
X89708646Y-64872419D02*
X90327693Y-64872419D01*
X90327693Y-64872419D02*
X89994360Y-65253371D01*
X89994360Y-65253371D02*
X90137217Y-65253371D01*
X90137217Y-65253371D02*
X90232455Y-65300990D01*
X90232455Y-65300990D02*
X90280074Y-65348609D01*
X90280074Y-65348609D02*
X90327693Y-65443847D01*
X90327693Y-65443847D02*
X90327693Y-65681942D01*
X90327693Y-65681942D02*
X90280074Y-65777180D01*
X90280074Y-65777180D02*
X90232455Y-65824800D01*
X90232455Y-65824800D02*
X90137217Y-65872419D01*
X90137217Y-65872419D02*
X89851503Y-65872419D01*
X89851503Y-65872419D02*
X89756265Y-65824800D01*
X89756265Y-65824800D02*
X89708646Y-65777180D01*
X90661027Y-64872419D02*
X91280074Y-64872419D01*
X91280074Y-64872419D02*
X90946741Y-65253371D01*
X90946741Y-65253371D02*
X91089598Y-65253371D01*
X91089598Y-65253371D02*
X91184836Y-65300990D01*
X91184836Y-65300990D02*
X91232455Y-65348609D01*
X91232455Y-65348609D02*
X91280074Y-65443847D01*
X91280074Y-65443847D02*
X91280074Y-65681942D01*
X91280074Y-65681942D02*
X91232455Y-65777180D01*
X91232455Y-65777180D02*
X91184836Y-65824800D01*
X91184836Y-65824800D02*
X91089598Y-65872419D01*
X91089598Y-65872419D02*
X90803884Y-65872419D01*
X90803884Y-65872419D02*
X90708646Y-65824800D01*
X90708646Y-65824800D02*
X90661027Y-65777180D01*
X109161027Y-69872419D02*
X109732455Y-69872419D01*
X109446741Y-70872419D02*
X109446741Y-69872419D01*
X109970551Y-69872419D02*
X110637217Y-70872419D01*
X110637217Y-69872419D02*
X109970551Y-70872419D01*
X110970551Y-69967657D02*
X111018170Y-69920038D01*
X111018170Y-69920038D02*
X111113408Y-69872419D01*
X111113408Y-69872419D02*
X111351503Y-69872419D01*
X111351503Y-69872419D02*
X111446741Y-69920038D01*
X111446741Y-69920038D02*
X111494360Y-69967657D01*
X111494360Y-69967657D02*
X111541979Y-70062895D01*
X111541979Y-70062895D02*
X111541979Y-70158133D01*
X111541979Y-70158133D02*
X111494360Y-70300990D01*
X111494360Y-70300990D02*
X110922932Y-70872419D01*
X110922932Y-70872419D02*
X111541979Y-70872419D01*
X89327693Y-82420038D02*
X89232455Y-82372419D01*
X89232455Y-82372419D02*
X89089598Y-82372419D01*
X89089598Y-82372419D02*
X88946741Y-82420038D01*
X88946741Y-82420038D02*
X88851503Y-82515276D01*
X88851503Y-82515276D02*
X88803884Y-82610514D01*
X88803884Y-82610514D02*
X88756265Y-82800990D01*
X88756265Y-82800990D02*
X88756265Y-82943847D01*
X88756265Y-82943847D02*
X88803884Y-83134323D01*
X88803884Y-83134323D02*
X88851503Y-83229561D01*
X88851503Y-83229561D02*
X88946741Y-83324800D01*
X88946741Y-83324800D02*
X89089598Y-83372419D01*
X89089598Y-83372419D02*
X89184836Y-83372419D01*
X89184836Y-83372419D02*
X89327693Y-83324800D01*
X89327693Y-83324800D02*
X89375312Y-83277180D01*
X89375312Y-83277180D02*
X89375312Y-82943847D01*
X89375312Y-82943847D02*
X89184836Y-82943847D01*
X89803884Y-83372419D02*
X89803884Y-82372419D01*
X89803884Y-82372419D02*
X90375312Y-83372419D01*
X90375312Y-83372419D02*
X90375312Y-82372419D01*
X90851503Y-83372419D02*
X90851503Y-82372419D01*
X90851503Y-82372419D02*
X91089598Y-82372419D01*
X91089598Y-82372419D02*
X91232455Y-82420038D01*
X91232455Y-82420038D02*
X91327693Y-82515276D01*
X91327693Y-82515276D02*
X91375312Y-82610514D01*
X91375312Y-82610514D02*
X91422931Y-82800990D01*
X91422931Y-82800990D02*
X91422931Y-82943847D01*
X91422931Y-82943847D02*
X91375312Y-83134323D01*
X91375312Y-83134323D02*
X91327693Y-83229561D01*
X91327693Y-83229561D02*
X91232455Y-83324800D01*
X91232455Y-83324800D02*
X91089598Y-83372419D01*
X91089598Y-83372419D02*
X90851503Y-83372419D01*
X88661027Y-51872419D02*
X88994360Y-52872419D01*
X88994360Y-52872419D02*
X89327693Y-51872419D01*
X89661027Y-52872419D02*
X89661027Y-51872419D01*
X89661027Y-51872419D02*
X90041979Y-51872419D01*
X90041979Y-51872419D02*
X90137217Y-51920038D01*
X90137217Y-51920038D02*
X90184836Y-51967657D01*
X90184836Y-51967657D02*
X90232455Y-52062895D01*
X90232455Y-52062895D02*
X90232455Y-52205752D01*
X90232455Y-52205752D02*
X90184836Y-52300990D01*
X90184836Y-52300990D02*
X90137217Y-52348609D01*
X90137217Y-52348609D02*
X90041979Y-52396228D01*
X90041979Y-52396228D02*
X89661027Y-52396228D01*
D11*
X66666667Y-49254819D02*
X66666667Y-48254819D01*
X66666667Y-48254819D02*
X67000000Y-48969104D01*
X67000000Y-48969104D02*
X67333333Y-48254819D01*
X67333333Y-48254819D02*
X67333333Y-49254819D01*
X67809524Y-49254819D02*
X67809524Y-48254819D01*
X67809524Y-48731009D02*
X68380952Y-48731009D01*
X68380952Y-49254819D02*
X68380952Y-48254819D01*
X68809524Y-48350057D02*
X68857143Y-48302438D01*
X68857143Y-48302438D02*
X68952381Y-48254819D01*
X68952381Y-48254819D02*
X69190476Y-48254819D01*
X69190476Y-48254819D02*
X69285714Y-48302438D01*
X69285714Y-48302438D02*
X69333333Y-48350057D01*
X69333333Y-48350057D02*
X69380952Y-48445295D01*
X69380952Y-48445295D02*
X69380952Y-48540533D01*
X69380952Y-48540533D02*
X69333333Y-48683390D01*
X69333333Y-48683390D02*
X68761905Y-49254819D01*
X68761905Y-49254819D02*
X69380952Y-49254819D01*
X81531905Y-64494819D02*
X81531905Y-63494819D01*
X81531905Y-63494819D02*
X81770000Y-63494819D01*
X81770000Y-63494819D02*
X81912857Y-63542438D01*
X81912857Y-63542438D02*
X82008095Y-63637676D01*
X82008095Y-63637676D02*
X82055714Y-63732914D01*
X82055714Y-63732914D02*
X82103333Y-63923390D01*
X82103333Y-63923390D02*
X82103333Y-64066247D01*
X82103333Y-64066247D02*
X82055714Y-64256723D01*
X82055714Y-64256723D02*
X82008095Y-64351961D01*
X82008095Y-64351961D02*
X81912857Y-64447200D01*
X81912857Y-64447200D02*
X81770000Y-64494819D01*
X81770000Y-64494819D02*
X81531905Y-64494819D01*
X82484286Y-63590057D02*
X82531905Y-63542438D01*
X82531905Y-63542438D02*
X82627143Y-63494819D01*
X82627143Y-63494819D02*
X82865238Y-63494819D01*
X82865238Y-63494819D02*
X82960476Y-63542438D01*
X82960476Y-63542438D02*
X83008095Y-63590057D01*
X83008095Y-63590057D02*
X83055714Y-63685295D01*
X83055714Y-63685295D02*
X83055714Y-63780533D01*
X83055714Y-63780533D02*
X83008095Y-63923390D01*
X83008095Y-63923390D02*
X82436667Y-64494819D01*
X82436667Y-64494819D02*
X83055714Y-64494819D01*
X71913333Y-74084819D02*
X71580000Y-73608628D01*
X71341905Y-74084819D02*
X71341905Y-73084819D01*
X71341905Y-73084819D02*
X71722857Y-73084819D01*
X71722857Y-73084819D02*
X71818095Y-73132438D01*
X71818095Y-73132438D02*
X71865714Y-73180057D01*
X71865714Y-73180057D02*
X71913333Y-73275295D01*
X71913333Y-73275295D02*
X71913333Y-73418152D01*
X71913333Y-73418152D02*
X71865714Y-73513390D01*
X71865714Y-73513390D02*
X71818095Y-73561009D01*
X71818095Y-73561009D02*
X71722857Y-73608628D01*
X71722857Y-73608628D02*
X71341905Y-73608628D01*
X72246667Y-73084819D02*
X72865714Y-73084819D01*
X72865714Y-73084819D02*
X72532381Y-73465771D01*
X72532381Y-73465771D02*
X72675238Y-73465771D01*
X72675238Y-73465771D02*
X72770476Y-73513390D01*
X72770476Y-73513390D02*
X72818095Y-73561009D01*
X72818095Y-73561009D02*
X72865714Y-73656247D01*
X72865714Y-73656247D02*
X72865714Y-73894342D01*
X72865714Y-73894342D02*
X72818095Y-73989580D01*
X72818095Y-73989580D02*
X72770476Y-74037200D01*
X72770476Y-74037200D02*
X72675238Y-74084819D01*
X72675238Y-74084819D02*
X72389524Y-74084819D01*
X72389524Y-74084819D02*
X72294286Y-74037200D01*
X72294286Y-74037200D02*
X72246667Y-73989580D01*
X118666667Y-65254819D02*
X118666667Y-64254819D01*
X118666667Y-64254819D02*
X119000000Y-64969104D01*
X119000000Y-64969104D02*
X119333333Y-64254819D01*
X119333333Y-64254819D02*
X119333333Y-65254819D01*
X119809524Y-65254819D02*
X119809524Y-64254819D01*
X119809524Y-64731009D02*
X120380952Y-64731009D01*
X120380952Y-65254819D02*
X120380952Y-64254819D01*
X120761905Y-64254819D02*
X121380952Y-64254819D01*
X121380952Y-64254819D02*
X121047619Y-64635771D01*
X121047619Y-64635771D02*
X121190476Y-64635771D01*
X121190476Y-64635771D02*
X121285714Y-64683390D01*
X121285714Y-64683390D02*
X121333333Y-64731009D01*
X121333333Y-64731009D02*
X121380952Y-64826247D01*
X121380952Y-64826247D02*
X121380952Y-65064342D01*
X121380952Y-65064342D02*
X121333333Y-65159580D01*
X121333333Y-65159580D02*
X121285714Y-65207200D01*
X121285714Y-65207200D02*
X121190476Y-65254819D01*
X121190476Y-65254819D02*
X120904762Y-65254819D01*
X120904762Y-65254819D02*
X120809524Y-65207200D01*
X120809524Y-65207200D02*
X120761905Y-65159580D01*
X81531905Y-56494819D02*
X81531905Y-55494819D01*
X81531905Y-55494819D02*
X81770000Y-55494819D01*
X81770000Y-55494819D02*
X81912857Y-55542438D01*
X81912857Y-55542438D02*
X82008095Y-55637676D01*
X82008095Y-55637676D02*
X82055714Y-55732914D01*
X82055714Y-55732914D02*
X82103333Y-55923390D01*
X82103333Y-55923390D02*
X82103333Y-56066247D01*
X82103333Y-56066247D02*
X82055714Y-56256723D01*
X82055714Y-56256723D02*
X82008095Y-56351961D01*
X82008095Y-56351961D02*
X81912857Y-56447200D01*
X81912857Y-56447200D02*
X81770000Y-56494819D01*
X81770000Y-56494819D02*
X81531905Y-56494819D01*
X83055714Y-56494819D02*
X82484286Y-56494819D01*
X82770000Y-56494819D02*
X82770000Y-55494819D01*
X82770000Y-55494819D02*
X82674762Y-55637676D01*
X82674762Y-55637676D02*
X82579524Y-55732914D01*
X82579524Y-55732914D02*
X82484286Y-55780533D01*
X119246667Y-88107200D02*
X119389524Y-88154819D01*
X119389524Y-88154819D02*
X119627619Y-88154819D01*
X119627619Y-88154819D02*
X119722857Y-88107200D01*
X119722857Y-88107200D02*
X119770476Y-88059580D01*
X119770476Y-88059580D02*
X119818095Y-87964342D01*
X119818095Y-87964342D02*
X119818095Y-87869104D01*
X119818095Y-87869104D02*
X119770476Y-87773866D01*
X119770476Y-87773866D02*
X119722857Y-87726247D01*
X119722857Y-87726247D02*
X119627619Y-87678628D01*
X119627619Y-87678628D02*
X119437143Y-87631009D01*
X119437143Y-87631009D02*
X119341905Y-87583390D01*
X119341905Y-87583390D02*
X119294286Y-87535771D01*
X119294286Y-87535771D02*
X119246667Y-87440533D01*
X119246667Y-87440533D02*
X119246667Y-87345295D01*
X119246667Y-87345295D02*
X119294286Y-87250057D01*
X119294286Y-87250057D02*
X119341905Y-87202438D01*
X119341905Y-87202438D02*
X119437143Y-87154819D01*
X119437143Y-87154819D02*
X119675238Y-87154819D01*
X119675238Y-87154819D02*
X119818095Y-87202438D01*
X120151429Y-87154819D02*
X120389524Y-88154819D01*
X120389524Y-88154819D02*
X120580000Y-87440533D01*
X120580000Y-87440533D02*
X120770476Y-88154819D01*
X120770476Y-88154819D02*
X121008572Y-87154819D01*
X121913333Y-88154819D02*
X121341905Y-88154819D01*
X121627619Y-88154819D02*
X121627619Y-87154819D01*
X121627619Y-87154819D02*
X121532381Y-87297676D01*
X121532381Y-87297676D02*
X121437143Y-87392914D01*
X121437143Y-87392914D02*
X121341905Y-87440533D01*
X81531905Y-72494819D02*
X81531905Y-71494819D01*
X81531905Y-71494819D02*
X81770000Y-71494819D01*
X81770000Y-71494819D02*
X81912857Y-71542438D01*
X81912857Y-71542438D02*
X82008095Y-71637676D01*
X82008095Y-71637676D02*
X82055714Y-71732914D01*
X82055714Y-71732914D02*
X82103333Y-71923390D01*
X82103333Y-71923390D02*
X82103333Y-72066247D01*
X82103333Y-72066247D02*
X82055714Y-72256723D01*
X82055714Y-72256723D02*
X82008095Y-72351961D01*
X82008095Y-72351961D02*
X81912857Y-72447200D01*
X81912857Y-72447200D02*
X81770000Y-72494819D01*
X81770000Y-72494819D02*
X81531905Y-72494819D01*
X82436667Y-71494819D02*
X83055714Y-71494819D01*
X83055714Y-71494819D02*
X82722381Y-71875771D01*
X82722381Y-71875771D02*
X82865238Y-71875771D01*
X82865238Y-71875771D02*
X82960476Y-71923390D01*
X82960476Y-71923390D02*
X83008095Y-71971009D01*
X83008095Y-71971009D02*
X83055714Y-72066247D01*
X83055714Y-72066247D02*
X83055714Y-72304342D01*
X83055714Y-72304342D02*
X83008095Y-72399580D01*
X83008095Y-72399580D02*
X82960476Y-72447200D01*
X82960476Y-72447200D02*
X82865238Y-72494819D01*
X82865238Y-72494819D02*
X82579524Y-72494819D01*
X82579524Y-72494819D02*
X82484286Y-72447200D01*
X82484286Y-72447200D02*
X82436667Y-72399580D01*
D12*
%TO.C,R2*%
X68040000Y-68000000D02*
X68810000Y-68000000D01*
X68810000Y-66630000D02*
X68810000Y-69370000D01*
X68810000Y-69370000D02*
X75350000Y-69370000D01*
X75350000Y-66630000D02*
X68810000Y-66630000D01*
X75350000Y-69370000D02*
X75350000Y-66630000D01*
X76120000Y-68000000D02*
X75350000Y-68000000D01*
%TO.C,J2*%
X74390000Y-82140000D02*
X77200000Y-82140000D01*
X74390000Y-88200000D02*
X74390000Y-82140000D01*
X74390000Y-95360000D02*
X74390000Y-92300000D01*
X78500000Y-81950000D02*
X80500000Y-81950000D01*
X81800000Y-82140000D02*
X84610000Y-82140000D01*
X84610000Y-82140000D02*
X84610000Y-88200000D01*
X84610000Y-92300000D02*
X84610000Y-95360000D01*
X84610000Y-95360000D02*
X74390000Y-95360000D01*
%TO.C,J1*%
X115390000Y-90940000D02*
X115390000Y-94960000D01*
X115390000Y-92440000D02*
X116390000Y-92440000D01*
X115390000Y-94960000D02*
X125610000Y-94960000D01*
X115890000Y-93250000D02*
X115390000Y-93250000D01*
X115890000Y-94460000D02*
X115890000Y-93250000D01*
X116390000Y-92440000D02*
X116390000Y-90940000D01*
X124610000Y-92440000D02*
X124610000Y-90940000D01*
X125110000Y-93250000D02*
X125110000Y-94460000D01*
X125110000Y-94460000D02*
X115890000Y-94460000D01*
X125610000Y-90940000D02*
X115390000Y-90940000D01*
X125610000Y-92440000D02*
X124610000Y-92440000D01*
X125610000Y-93250000D02*
X125110000Y-93250000D01*
X125610000Y-94960000D02*
X125610000Y-90940000D01*
X125910000Y-90640000D02*
X123410000Y-90640000D01*
X125910000Y-93140000D02*
X125910000Y-90640000D01*
%TO.C,R4*%
X117540000Y-78000000D02*
X118310000Y-78000000D01*
X118310000Y-76630000D02*
X118310000Y-79370000D01*
X118310000Y-79370000D02*
X124850000Y-79370000D01*
X124850000Y-76630000D02*
X118310000Y-76630000D01*
X124850000Y-79370000D02*
X124850000Y-76630000D01*
X125620000Y-78000000D02*
X124850000Y-78000000D01*
%TO.C,R1*%
X68040000Y-60000000D02*
X68810000Y-60000000D01*
X68810000Y-58630000D02*
X68810000Y-61370000D01*
X68810000Y-61370000D02*
X75350000Y-61370000D01*
X75350000Y-58630000D02*
X68810000Y-58630000D01*
X75350000Y-61370000D02*
X75350000Y-58630000D01*
X76120000Y-60000000D02*
X75350000Y-60000000D01*
%TO.C,U2*%
X86000000Y-45960000D02*
X86000000Y-93460000D01*
X88000000Y-43960000D02*
X112000000Y-43960000D01*
X88000000Y-95460000D02*
X112000000Y-95460000D01*
X91110000Y-45230000D02*
X108890000Y-45230000D01*
X91110000Y-50310000D02*
X91110000Y-45230000D01*
X91110000Y-90950000D02*
X93650000Y-90950000D01*
X91110000Y-94760000D02*
X91110000Y-90950000D01*
X92380000Y-45992000D02*
X94920000Y-45992000D01*
X92380000Y-49548000D02*
X92380000Y-45992000D01*
X92500000Y-50960000D02*
X107500000Y-50960000D01*
X92500000Y-68960000D02*
X92500000Y-50960000D01*
X93650000Y-90950000D02*
X93650000Y-94760000D01*
X93650000Y-94760000D02*
X91110000Y-94760000D01*
X94920000Y-45992000D02*
X94920000Y-48024000D01*
X94920000Y-48024000D02*
X97460000Y-48024000D01*
X96000000Y-89460000D02*
X96000000Y-95460000D01*
X96000000Y-89460000D02*
X104000000Y-89460000D01*
X97460000Y-45992000D02*
X100000000Y-45992000D01*
X97460000Y-48024000D02*
X97460000Y-45992000D01*
X100000000Y-45992000D02*
X100000000Y-48024000D01*
X100000000Y-48024000D02*
X102540000Y-48024000D01*
X102540000Y-45992000D02*
X107620000Y-45992000D01*
X102540000Y-48024000D02*
X102540000Y-45992000D01*
X104000000Y-89460000D02*
X104000000Y-95460000D01*
X105080000Y-45992000D02*
X105080000Y-49548000D01*
X106350000Y-90950000D02*
X108890000Y-90950000D01*
X106350000Y-94760000D02*
X106350000Y-90950000D01*
X107500000Y-50960000D02*
X107500000Y-68960000D01*
X107500000Y-68960000D02*
X92500000Y-68960000D01*
X107620000Y-45992000D02*
X107620000Y-49548000D01*
X108890000Y-45230000D02*
X108890000Y-50310000D01*
X108890000Y-50310000D02*
X91110000Y-50310000D01*
X108890000Y-90950000D02*
X108890000Y-94760000D01*
X108890000Y-94760000D02*
X106350000Y-94760000D01*
X114000000Y-93460000D02*
X114000000Y-45960000D01*
X86000000Y-45960000D02*
G75*
G02*
X88000000Y-43960000I1999999J1D01*
G01*
X88000000Y-95460000D02*
G75*
G02*
X86000000Y-93460000I-1J1999999D01*
G01*
X112000000Y-43960000D02*
G75*
G02*
X114000000Y-45960000I0J-2000000D01*
G01*
X114000000Y-93460000D02*
G75*
G02*
X112000000Y-95460000I-2000000J0D01*
G01*
X89800000Y-45960000D02*
G75*
G02*
X86800000Y-45960000I-1500000J0D01*
G01*
X86800000Y-45960000D02*
G75*
G02*
X89800000Y-45960000I1500000J0D01*
G01*
X89800000Y-93460000D02*
G75*
G02*
X86800000Y-93460000I-1500000J0D01*
G01*
X86800000Y-93460000D02*
G75*
G02*
X89800000Y-93460000I1500000J0D01*
G01*
D13*
X92680000Y-92855000D02*
G75*
G02*
X92080000Y-92855000I-300000J0D01*
G01*
X92080000Y-92855000D02*
G75*
G02*
X92680000Y-92855000I300000J0D01*
G01*
D14*
X95320000Y-66820000D02*
G75*
G02*
X94520000Y-66820000I-400000J0D01*
G01*
X94520000Y-66820000D02*
G75*
G02*
X95320000Y-66820000I400000J0D01*
G01*
D13*
X107920000Y-92855000D02*
G75*
G02*
X107320000Y-92855000I-300000J0D01*
G01*
X107320000Y-92855000D02*
G75*
G02*
X107920000Y-92855000I300000J0D01*
G01*
D12*
X113200000Y-45960000D02*
G75*
G02*
X110200000Y-45960000I-1500000J0D01*
G01*
X110200000Y-45960000D02*
G75*
G02*
X113200000Y-45960000I1500000J0D01*
G01*
X113200000Y-93460000D02*
G75*
G02*
X110200000Y-93460000I-1500000J0D01*
G01*
X110200000Y-93460000D02*
G75*
G02*
X113200000Y-93460000I1500000J0D01*
G01*
%TO.C,D2*%
X79710000Y-66455000D02*
X79710000Y-69545000D01*
X79710000Y-66455170D02*
G75*
G02*
X85260000Y-68000462I2560000J-1544830D01*
G01*
X85260000Y-67999538D02*
G75*
G02*
X79710000Y-69544830I-2990000J-462D01*
G01*
X84770000Y-68000000D02*
G75*
G02*
X79770000Y-68000000I-2500000J0D01*
G01*
X79770000Y-68000000D02*
G75*
G02*
X84770000Y-68000000I2500000J0D01*
G01*
%TO.C,R3*%
X68040000Y-76000000D02*
X68810000Y-76000000D01*
X68810000Y-74630000D02*
X68810000Y-77370000D01*
X68810000Y-77370000D02*
X75350000Y-77370000D01*
X75350000Y-74630000D02*
X68810000Y-74630000D01*
X75350000Y-77370000D02*
X75350000Y-74630000D01*
X76120000Y-76000000D02*
X75350000Y-76000000D01*
%TO.C,D1*%
X79710000Y-58455000D02*
X79710000Y-61545000D01*
X79710000Y-58455170D02*
G75*
G02*
X85260000Y-60000462I2560000J-1544830D01*
G01*
X85260000Y-59999538D02*
G75*
G02*
X79710000Y-61544830I-2990000J-462D01*
G01*
X84770000Y-60000000D02*
G75*
G02*
X79770000Y-60000000I-2500000J0D01*
G01*
X79770000Y-60000000D02*
G75*
G02*
X84770000Y-60000000I2500000J0D01*
G01*
%TO.C,SW1*%
X117650000Y-83610000D02*
X117650000Y-83150000D01*
X117650000Y-86850000D02*
X117650000Y-86390000D01*
X117650000Y-86850000D02*
X123850000Y-86850000D01*
X123850000Y-83150000D02*
X117650000Y-83150000D01*
X123850000Y-83610000D02*
X123850000Y-83150000D01*
X123850000Y-86390000D02*
X124850000Y-86390000D01*
X123850000Y-86850000D02*
X123850000Y-86390000D01*
X122250000Y-85550000D02*
X119400000Y-85550000D01*
X119400000Y-84500000D01*
X122250000Y-84500000D01*
X122250000Y-85550000D01*
%TO.C,D3*%
X79710000Y-74455000D02*
X79710000Y-77545000D01*
X79710000Y-74455170D02*
G75*
G02*
X85260000Y-76000462I2560000J-1544830D01*
G01*
X85260000Y-75999538D02*
G75*
G02*
X79710000Y-77544830I-2990000J-462D01*
G01*
X84770000Y-76000000D02*
G75*
G02*
X79770000Y-76000000I-2500000J0D01*
G01*
X79770000Y-76000000D02*
G75*
G02*
X84770000Y-76000000I2500000J0D01*
G01*
%TD*%
M02*
