%TF.GenerationSoftware,KiCad,Pcbnew,8.0.4+dfsg-1*%
%TF.CreationDate,2024-11-21T19:10:24-05:00*%
%TF.ProjectId,smart-fluid-flow-meter,736d6172-742d-4666-9c75-69642d666c6f,rev?*%
%TF.SameCoordinates,Original*%
%TF.FileFunction,Soldermask,Bot*%
%TF.FilePolarity,Negative*%
%FSLAX46Y46*%
G04 Gerber Fmt 4.6, Leading zero omitted, Abs format (unit mm)*
G04 Created by KiCad (PCBNEW 8.0.4+dfsg-1) date 2024-11-21 19:10:24*
%MOMM*%
%LPD*%
G01*
G04 APERTURE LIST*
G04 Aperture macros list*
%AMRoundRect*
0 Rectangle with rounded corners*
0 $1 Rounding radius*
0 $2 $3 $4 $5 $6 $7 $8 $9 X,Y pos of 4 corners*
0 Add a 4 corners polygon primitive as box body*
4,1,4,$2,$3,$4,$5,$6,$7,$8,$9,$2,$3,0*
0 Add four circle primitives for the rounded corners*
1,1,$1+$1,$2,$3*
1,1,$1+$1,$4,$5*
1,1,$1+$1,$6,$7*
1,1,$1+$1,$8,$9*
0 Add four rect primitives between the rounded corners*
20,1,$1+$1,$2,$3,$4,$5,0*
20,1,$1+$1,$4,$5,$6,$7,0*
20,1,$1+$1,$6,$7,$8,$9,0*
20,1,$1+$1,$8,$9,$2,$3,0*%
G04 Aperture macros list end*
%ADD10C,1.600000*%
%ADD11O,1.600000X1.600000*%
%ADD12R,4.000000X2.000000*%
%ADD13O,3.300000X2.000000*%
%ADD14O,2.000000X3.500000*%
%ADD15RoundRect,0.250000X0.600000X0.725000X-0.600000X0.725000X-0.600000X-0.725000X0.600000X-0.725000X0*%
%ADD16O,1.700000X1.950000*%
%ADD17C,0.800000*%
%ADD18C,6.400000*%
%ADD19C,1.524000*%
%ADD20R,1.524000X1.524000*%
%ADD21R,1.800000X1.800000*%
%ADD22C,1.800000*%
%ADD23R,2.250000X2.250000*%
%ADD24C,2.250000*%
G04 APERTURE END LIST*
D10*
%TO.C,R2*%
X67000000Y-68000000D03*
D11*
X77160000Y-68000000D03*
%TD*%
D10*
%TO.C,J2*%
X79500000Y-92250000D03*
D12*
X79500000Y-83250000D03*
D13*
X79500000Y-89250000D03*
D14*
X75000000Y-90250000D03*
X84000000Y-90250000D03*
%TD*%
D15*
%TO.C,J1*%
X123000000Y-93250000D03*
D16*
X120500000Y-93250000D03*
X118000000Y-93250000D03*
%TD*%
D10*
%TO.C,R4*%
X116500000Y-78000000D03*
D11*
X126660000Y-78000000D03*
%TD*%
D17*
%TO.C,MH1*%
X65600000Y-92000000D03*
X66302944Y-90302944D03*
X66302944Y-93697056D03*
X68000000Y-89600000D03*
D18*
X68000000Y-92000000D03*
D17*
X68000000Y-94400000D03*
X69697056Y-90302944D03*
X69697056Y-93697056D03*
X70400000Y-92000000D03*
%TD*%
D10*
%TO.C,R1*%
X67000000Y-60000000D03*
D11*
X77160000Y-60000000D03*
%TD*%
D19*
%TO.C,U2*%
X112700000Y-85560000D03*
X112700000Y-83020000D03*
X112700000Y-80480000D03*
X112700000Y-77940000D03*
X112700000Y-75400000D03*
X112700000Y-72860000D03*
X112700000Y-70320000D03*
X112700000Y-67780000D03*
X112700000Y-65240000D03*
X112700000Y-62700000D03*
X112700000Y-60160000D03*
X112700000Y-57620000D03*
X112700000Y-55080000D03*
X112700000Y-52540000D03*
X112700000Y-50000000D03*
D20*
X87300000Y-50000000D03*
D19*
X87300000Y-52540000D03*
X87300000Y-55080000D03*
X87300000Y-57620000D03*
X87300000Y-60160000D03*
X87300000Y-62700000D03*
X87300000Y-65240000D03*
X87300000Y-67780000D03*
X87300000Y-70320000D03*
X87300000Y-72860000D03*
X87300000Y-75400000D03*
X87300000Y-77940000D03*
X87300000Y-80480000D03*
X87300000Y-83020000D03*
X87300000Y-85560000D03*
%TD*%
D17*
%TO.C,MH2*%
X65600000Y-53000000D03*
X66302944Y-51302944D03*
X66302944Y-54697056D03*
X68000000Y-50600000D03*
D18*
X68000000Y-53000000D03*
D17*
X68000000Y-55400000D03*
X69697056Y-51302944D03*
X69697056Y-54697056D03*
X70400000Y-53000000D03*
%TD*%
D21*
%TO.C,D2*%
X81000000Y-68000000D03*
D22*
X83540000Y-68000000D03*
%TD*%
D10*
%TO.C,R3*%
X67000000Y-76000000D03*
D11*
X77160000Y-76000000D03*
%TD*%
D17*
%TO.C,MH3*%
X117600000Y-69000000D03*
X118302944Y-67302944D03*
X118302944Y-70697056D03*
X120000000Y-66600000D03*
D18*
X120000000Y-69000000D03*
D17*
X120000000Y-71400000D03*
X121697056Y-67302944D03*
X121697056Y-70697056D03*
X122400000Y-69000000D03*
%TD*%
D21*
%TO.C,D1*%
X81000000Y-60000000D03*
D22*
X83540000Y-60000000D03*
%TD*%
D23*
%TO.C,SW1*%
X124000000Y-85000000D03*
D24*
X117500000Y-85000000D03*
%TD*%
D21*
%TO.C,D3*%
X81000000Y-76000000D03*
D22*
X83540000Y-76000000D03*
%TD*%
M02*
