%TF.GenerationSoftware,KiCad,Pcbnew,8.0.4+dfsg-1*%
%TF.CreationDate,2024-11-28T14:38:24-05:00*%
%TF.ProjectId,smart-fluid-flow-meter,736d6172-742d-4666-9c75-69642d666c6f,rev?*%
%TF.SameCoordinates,Original*%
%TF.FileFunction,Copper,L1,Top*%
%TF.FilePolarity,Positive*%
%FSLAX46Y46*%
G04 Gerber Fmt 4.6, Leading zero omitted, Abs format (unit mm)*
G04 Created by KiCad (PCBNEW 8.0.4+dfsg-1) date 2024-11-28 14:38:24*
%MOMM*%
%LPD*%
G01*
G04 APERTURE LIST*
G04 Aperture macros list*
%AMRoundRect*
0 Rectangle with rounded corners*
0 $1 Rounding radius*
0 $2 $3 $4 $5 $6 $7 $8 $9 X,Y pos of 4 corners*
0 Add a 4 corners polygon primitive as box body*
4,1,4,$2,$3,$4,$5,$6,$7,$8,$9,$2,$3,0*
0 Add four circle primitives for the rounded corners*
1,1,$1+$1,$2,$3*
1,1,$1+$1,$4,$5*
1,1,$1+$1,$6,$7*
1,1,$1+$1,$8,$9*
0 Add four rect primitives between the rounded corners*
20,1,$1+$1,$2,$3,$4,$5,0*
20,1,$1+$1,$4,$5,$6,$7,0*
20,1,$1+$1,$6,$7,$8,$9,0*
20,1,$1+$1,$8,$9,$2,$3,0*%
G04 Aperture macros list end*
%TA.AperFunction,ComponentPad*%
%ADD10C,1.600000*%
%TD*%
%TA.AperFunction,ComponentPad*%
%ADD11O,1.600000X1.600000*%
%TD*%
%TA.AperFunction,ComponentPad*%
%ADD12R,4.000000X2.000000*%
%TD*%
%TA.AperFunction,ComponentPad*%
%ADD13O,3.300000X2.000000*%
%TD*%
%TA.AperFunction,ComponentPad*%
%ADD14O,2.000000X3.500000*%
%TD*%
%TA.AperFunction,ComponentPad*%
%ADD15RoundRect,0.250000X0.600000X0.725000X-0.600000X0.725000X-0.600000X-0.725000X0.600000X-0.725000X0*%
%TD*%
%TA.AperFunction,ComponentPad*%
%ADD16O,1.700000X1.950000*%
%TD*%
%TA.AperFunction,ComponentPad*%
%ADD17C,0.800000*%
%TD*%
%TA.AperFunction,ComponentPad*%
%ADD18C,6.400000*%
%TD*%
%TA.AperFunction,ComponentPad*%
%ADD19C,1.524000*%
%TD*%
%TA.AperFunction,ComponentPad*%
%ADD20R,1.524000X1.524000*%
%TD*%
%TA.AperFunction,ComponentPad*%
%ADD21R,1.800000X1.800000*%
%TD*%
%TA.AperFunction,ComponentPad*%
%ADD22C,1.800000*%
%TD*%
%TA.AperFunction,ComponentPad*%
%ADD23R,2.250000X2.250000*%
%TD*%
%TA.AperFunction,ComponentPad*%
%ADD24C,2.250000*%
%TD*%
%TA.AperFunction,Conductor*%
%ADD25C,0.200000*%
%TD*%
%TA.AperFunction,Conductor*%
%ADD26C,1.000000*%
%TD*%
G04 APERTURE END LIST*
D10*
%TO.P,R2,1*%
%TO.N,0*%
X67000000Y-68000000D03*
D11*
%TO.P,R2,2*%
%TO.N,Net-(D2-K)*%
X77160000Y-68000000D03*
%TD*%
D12*
%TO.P,J2,1*%
%TO.N,Net-(J1-Pin_3)*%
X79500000Y-83250000D03*
D13*
%TO.P,J2,2*%
%TO.N,0*%
X79500000Y-89250000D03*
D14*
%TO.P,J2,MP*%
%TO.N,N/C*%
X75000000Y-90250000D03*
X84000000Y-90250000D03*
%TD*%
D15*
%TO.P,J1,1,Pin_1*%
%TO.N,Net-(J1-Pin_1)*%
X123000000Y-93250000D03*
D16*
%TO.P,J1,2,Pin_2*%
%TO.N,0*%
X120500000Y-93250000D03*
%TO.P,J1,3,Pin_3*%
%TO.N,Net-(J1-Pin_3)*%
X118000000Y-93250000D03*
%TD*%
D10*
%TO.P,R4,1*%
%TO.N,Net-(U2-D4)*%
X116500000Y-78000000D03*
D11*
%TO.P,R4,2*%
%TO.N,Net-(J1-Pin_1)*%
X126660000Y-78000000D03*
%TD*%
D17*
%TO.P,MH1,1,1*%
%TO.N,0*%
X65600000Y-92000000D03*
X66302944Y-90302944D03*
X66302944Y-93697056D03*
X68000000Y-89600000D03*
D18*
X68000000Y-92000000D03*
D17*
X68000000Y-94400000D03*
X69697056Y-90302944D03*
X69697056Y-93697056D03*
X70400000Y-92000000D03*
%TD*%
D10*
%TO.P,R1,1*%
%TO.N,0*%
X67000000Y-60000000D03*
D11*
%TO.P,R1,2*%
%TO.N,Net-(D1-K)*%
X77160000Y-60000000D03*
%TD*%
D19*
%TO.P,U2,1,3V3*%
%TO.N,unconnected-(U2-3V3-Pad1)*%
X112700000Y-85560000D03*
%TO.P,U2,2,GND*%
%TO.N,0*%
X112700000Y-83020000D03*
%TO.P,U2,3,D15*%
%TO.N,unconnected-(U2-D15-Pad3)*%
X112700000Y-80480000D03*
%TO.P,U2,4,D2*%
%TO.N,unconnected-(U2-D2-Pad4)*%
X112700000Y-77940000D03*
%TO.P,U2,5,D4*%
%TO.N,Net-(U2-D4)*%
X112700000Y-75400000D03*
%TO.P,U2,6,RX2*%
%TO.N,unconnected-(U2-RX2-Pad6)*%
X112700000Y-72860000D03*
%TO.P,U2,7,TX2*%
%TO.N,unconnected-(U2-TX2-Pad7)*%
X112700000Y-70320000D03*
%TO.P,U2,8,D5*%
%TO.N,unconnected-(U2-D5-Pad8)*%
X112700000Y-67780000D03*
%TO.P,U2,9,D18*%
%TO.N,Net-(U2-D18)*%
X112700000Y-65240000D03*
%TO.P,U2,10,D19*%
%TO.N,unconnected-(U2-D19-Pad10)*%
X112700000Y-62700000D03*
%TO.P,U2,11,D21*%
%TO.N,unconnected-(U2-D21-Pad11)*%
X112700000Y-60160000D03*
%TO.P,U2,12,RX0*%
%TO.N,unconnected-(U2-RX0-Pad12)*%
X112700000Y-57620000D03*
%TO.P,U2,13,TX0*%
%TO.N,unconnected-(U2-TX0-Pad13)*%
X112700000Y-55080000D03*
%TO.P,U2,14,D22*%
%TO.N,unconnected-(U2-D22-Pad14)*%
X112700000Y-52540000D03*
%TO.P,U2,15,D23*%
%TO.N,unconnected-(U2-D23-Pad15)*%
X112700000Y-50000000D03*
D20*
%TO.P,U2,16,EN*%
%TO.N,unconnected-(U2-EN-Pad16)*%
X87300000Y-50000000D03*
D19*
%TO.P,U2,17,VP*%
%TO.N,unconnected-(U2-VP-Pad17)*%
X87300000Y-52540000D03*
%TO.P,U2,18,VN*%
%TO.N,unconnected-(U2-VN-Pad18)*%
X87300000Y-55080000D03*
%TO.P,U2,19,D34*%
%TO.N,unconnected-(U2-D34-Pad19)*%
X87300000Y-57620000D03*
%TO.P,U2,20,D35*%
%TO.N,unconnected-(U2-D35-Pad20)*%
X87300000Y-60160000D03*
%TO.P,U2,21,D32*%
%TO.N,Net-(D1-A)*%
X87300000Y-62700000D03*
%TO.P,U2,22,D33*%
%TO.N,Net-(D2-A)*%
X87300000Y-65240000D03*
%TO.P,U2,23,D25*%
%TO.N,unconnected-(U2-D25-Pad23)*%
X87300000Y-67780000D03*
%TO.P,U2,24,D26*%
%TO.N,unconnected-(U2-D26-Pad24)*%
X87300000Y-70320000D03*
%TO.P,U2,25,D27*%
%TO.N,unconnected-(U2-D27-Pad25)*%
X87300000Y-72860000D03*
%TO.P,U2,26,D14*%
%TO.N,Net-(D3-A)*%
X87300000Y-75400000D03*
%TO.P,U2,27,D12*%
%TO.N,unconnected-(U2-D12-Pad27)*%
X87300000Y-77940000D03*
%TO.P,U2,28,D13*%
%TO.N,unconnected-(U2-D13-Pad28)*%
X87300000Y-80480000D03*
%TO.P,U2,29,GND*%
%TO.N,0*%
X87300000Y-83020000D03*
%TO.P,U2,30,VIN*%
%TO.N,Net-(J1-Pin_3)*%
X87300000Y-85560000D03*
%TD*%
D17*
%TO.P,MH2,1,1*%
%TO.N,0*%
X65600000Y-53000000D03*
X66302944Y-51302944D03*
X66302944Y-54697056D03*
X68000000Y-50600000D03*
D18*
X68000000Y-53000000D03*
D17*
X68000000Y-55400000D03*
X69697056Y-51302944D03*
X69697056Y-54697056D03*
X70400000Y-53000000D03*
%TD*%
D21*
%TO.P,D2,1,K*%
%TO.N,Net-(D2-K)*%
X81000000Y-68000000D03*
D22*
%TO.P,D2,2,A*%
%TO.N,Net-(D2-A)*%
X83540000Y-68000000D03*
%TD*%
D10*
%TO.P,R3,1*%
%TO.N,0*%
X67000000Y-76000000D03*
D11*
%TO.P,R3,2*%
%TO.N,Net-(D3-K)*%
X77160000Y-76000000D03*
%TD*%
D17*
%TO.P,MH3,1,1*%
%TO.N,0*%
X117600000Y-69000000D03*
X118302944Y-67302944D03*
X118302944Y-70697056D03*
X120000000Y-66600000D03*
D18*
X120000000Y-69000000D03*
D17*
X120000000Y-71400000D03*
X121697056Y-67302944D03*
X121697056Y-70697056D03*
X122400000Y-69000000D03*
%TD*%
D21*
%TO.P,D1,1,K*%
%TO.N,Net-(D1-K)*%
X81000000Y-60000000D03*
D22*
%TO.P,D1,2,A*%
%TO.N,Net-(D1-A)*%
X83540000Y-60000000D03*
%TD*%
D23*
%TO.P,SW1,1,1*%
%TO.N,Net-(U2-D18)*%
X124000000Y-85000000D03*
D24*
%TO.P,SW1,2,2*%
%TO.N,0*%
X117500000Y-85000000D03*
%TD*%
D21*
%TO.P,D3,1,K*%
%TO.N,Net-(D3-K)*%
X81000000Y-76000000D03*
D22*
%TO.P,D3,2,A*%
%TO.N,Net-(D3-A)*%
X83540000Y-76000000D03*
%TD*%
D25*
%TO.N,0*%
X70400000Y-92000000D02*
X70800000Y-92400000D01*
D26*
X120500000Y-93250000D02*
X120500000Y-93225000D01*
D25*
X67000000Y-91000000D02*
X68000000Y-92000000D01*
D26*
%TO.N,Net-(D1-A)*%
X84900000Y-60300000D02*
X87300000Y-62700000D01*
X84050000Y-60300000D02*
X84900000Y-60300000D01*
X83750000Y-60000000D02*
X84050000Y-60300000D01*
X83540000Y-60000000D02*
X83750000Y-60000000D01*
%TO.N,Net-(D1-K)*%
X77160000Y-60000000D02*
X81000000Y-60000000D01*
%TO.N,Net-(D2-K)*%
X77160000Y-68000000D02*
X81000000Y-68000000D01*
%TO.N,Net-(D2-A)*%
X84540000Y-68000000D02*
X87300000Y-65240000D01*
X83540000Y-68000000D02*
X84540000Y-68000000D01*
%TO.N,Net-(D3-K)*%
X77160000Y-76000000D02*
X81000000Y-76000000D01*
D25*
%TO.N,Net-(D3-A)*%
X84140000Y-75400000D02*
X83540000Y-76000000D01*
D26*
X83800000Y-76000000D02*
X84400000Y-75400000D01*
D25*
X83540000Y-76000000D02*
X83800000Y-76000000D01*
D26*
X84400000Y-75400000D02*
X87300000Y-75400000D01*
%TO.N,Net-(J1-Pin_1)*%
X123000000Y-93250000D02*
X126660000Y-89590000D01*
X126660000Y-89590000D02*
X126660000Y-78000000D01*
%TO.N,Net-(U2-D4)*%
X115300000Y-78000000D02*
X112700000Y-75400000D01*
X116500000Y-78000000D02*
X115300000Y-78000000D01*
%TO.N,Net-(U2-D18)*%
X124000000Y-78515433D02*
X114162000Y-68677433D01*
X114162000Y-68677433D02*
X114162000Y-66702000D01*
X124000000Y-78515433D02*
X124000000Y-85000000D01*
X114162000Y-66702000D02*
X112700000Y-65240000D01*
%TO.N,Net-(J1-Pin_3)*%
X81810000Y-85560000D02*
X79500000Y-83250000D01*
X110310000Y-85560000D02*
X118000000Y-93250000D01*
X87300000Y-85560000D02*
X81810000Y-85560000D01*
X87300000Y-85560000D02*
X110310000Y-85560000D01*
%TD*%
%TA.AperFunction,Conductor*%
%TO.N,0*%
G36*
X66779588Y-93042330D02*
G01*
X66957670Y-93220412D01*
X67059300Y-93294251D01*
X65564648Y-94788903D01*
X65564649Y-94788904D01*
X65822206Y-94997468D01*
X66147456Y-95208689D01*
X66258001Y-95265015D01*
X66308797Y-95312990D01*
X66325592Y-95380811D01*
X66303055Y-95446945D01*
X66248340Y-95490397D01*
X66201706Y-95499500D01*
X64624500Y-95499500D01*
X64557461Y-95479815D01*
X64511706Y-95427011D01*
X64500500Y-95375500D01*
X64500500Y-93798293D01*
X64520185Y-93731254D01*
X64572989Y-93685499D01*
X64642147Y-93675555D01*
X64705703Y-93704580D01*
X64734985Y-93741999D01*
X64791307Y-93852538D01*
X64791308Y-93852541D01*
X65002531Y-94177793D01*
X65211095Y-94435350D01*
X65211096Y-94435350D01*
X66705748Y-92940698D01*
X66779588Y-93042330D01*
G37*
%TD.AperFunction*%
%TA.AperFunction,Conductor*%
G36*
X127442539Y-42520185D02*
G01*
X127488294Y-42572989D01*
X127499500Y-42624500D01*
X127499500Y-76762487D01*
X127479815Y-76829526D01*
X127427011Y-76875281D01*
X127357853Y-76885225D01*
X127317805Y-76871365D01*
X127317640Y-76871720D01*
X127314216Y-76870123D01*
X127313507Y-76869878D01*
X127312738Y-76869434D01*
X127106497Y-76773261D01*
X127106488Y-76773258D01*
X126886697Y-76714366D01*
X126886693Y-76714365D01*
X126886692Y-76714365D01*
X126886691Y-76714364D01*
X126886686Y-76714364D01*
X126660002Y-76694532D01*
X126659998Y-76694532D01*
X126433313Y-76714364D01*
X126433302Y-76714366D01*
X126213511Y-76773258D01*
X126213502Y-76773261D01*
X126007267Y-76869431D01*
X126007265Y-76869432D01*
X125820858Y-76999954D01*
X125659954Y-77160858D01*
X125529432Y-77347265D01*
X125529431Y-77347267D01*
X125433261Y-77553502D01*
X125433258Y-77553511D01*
X125374366Y-77773302D01*
X125374364Y-77773313D01*
X125354532Y-77999998D01*
X125354532Y-78000001D01*
X125374364Y-78226686D01*
X125374366Y-78226697D01*
X125433258Y-78446488D01*
X125433261Y-78446496D01*
X125529432Y-78652734D01*
X125616541Y-78777140D01*
X125637075Y-78806465D01*
X125659402Y-78872671D01*
X125659500Y-78877588D01*
X125659500Y-83402199D01*
X125639815Y-83469238D01*
X125587011Y-83514993D01*
X125517853Y-83524937D01*
X125461189Y-83501466D01*
X125446370Y-83490373D01*
X125367331Y-83431204D01*
X125367329Y-83431203D01*
X125367328Y-83431202D01*
X125232482Y-83380908D01*
X125232483Y-83380908D01*
X125172883Y-83374501D01*
X125172881Y-83374500D01*
X125172873Y-83374500D01*
X125172865Y-83374500D01*
X125124500Y-83374500D01*
X125057461Y-83354815D01*
X125011706Y-83302011D01*
X125000500Y-83250500D01*
X125000500Y-78416889D01*
X124982093Y-78324356D01*
X124969822Y-78262666D01*
X124962051Y-78223597D01*
X124910251Y-78098541D01*
X124886632Y-78041519D01*
X124818801Y-77940002D01*
X124777139Y-77877650D01*
X124634686Y-77735197D01*
X124634655Y-77735168D01*
X119811112Y-72911625D01*
X119777627Y-72850302D01*
X119782611Y-72780610D01*
X119824483Y-72724677D01*
X119889947Y-72700260D01*
X119905283Y-72700114D01*
X119999999Y-72705078D01*
X120000001Y-72705078D01*
X120387287Y-72684780D01*
X120770323Y-72624113D01*
X120770330Y-72624112D01*
X121144936Y-72523737D01*
X121506994Y-72384755D01*
X121852543Y-72208689D01*
X122177783Y-71997476D01*
X122177785Y-71997475D01*
X122435349Y-71788902D01*
X120940698Y-70294251D01*
X121042330Y-70220412D01*
X121220412Y-70042330D01*
X121294251Y-69940698D01*
X122788902Y-71435349D01*
X122997475Y-71177785D01*
X122997476Y-71177783D01*
X123208689Y-70852543D01*
X123384755Y-70506994D01*
X123523737Y-70144936D01*
X123624112Y-69770330D01*
X123624113Y-69770323D01*
X123684780Y-69387287D01*
X123705078Y-68999992D01*
X123684780Y-68612712D01*
X123624113Y-68229676D01*
X123624112Y-68229669D01*
X123523737Y-67855063D01*
X123384755Y-67493005D01*
X123208689Y-67147456D01*
X122997468Y-66822206D01*
X122788904Y-66564649D01*
X122788903Y-66564648D01*
X121294251Y-68059300D01*
X121220412Y-67957670D01*
X121042330Y-67779588D01*
X120940698Y-67705748D01*
X122435350Y-66211096D01*
X122435350Y-66211095D01*
X122177793Y-66002531D01*
X121852543Y-65791310D01*
X121506994Y-65615244D01*
X121144936Y-65476262D01*
X120770330Y-65375887D01*
X120770323Y-65375886D01*
X120387287Y-65315219D01*
X120000001Y-65294922D01*
X119999999Y-65294922D01*
X119612712Y-65315219D01*
X119229676Y-65375886D01*
X119229669Y-65375887D01*
X118855063Y-65476262D01*
X118493005Y-65615244D01*
X118147456Y-65791310D01*
X117822206Y-66002531D01*
X117564648Y-66211095D01*
X117564648Y-66211096D01*
X119059301Y-67705748D01*
X118957670Y-67779588D01*
X118779588Y-67957670D01*
X118705748Y-68059301D01*
X117211096Y-66564648D01*
X117211095Y-66564648D01*
X117002531Y-66822206D01*
X116791310Y-67147456D01*
X116615244Y-67493005D01*
X116476262Y-67855063D01*
X116375887Y-68229669D01*
X116375886Y-68229676D01*
X116315219Y-68612712D01*
X116294922Y-68999992D01*
X116294922Y-69000002D01*
X116299885Y-69094717D01*
X116283736Y-69162695D01*
X116233398Y-69211150D01*
X116164855Y-69224699D01*
X116099867Y-69199040D01*
X116088374Y-69188887D01*
X115198819Y-68299332D01*
X115165334Y-68238009D01*
X115162500Y-68211651D01*
X115162500Y-66603456D01*
X115124052Y-66410170D01*
X115124051Y-66410169D01*
X115124051Y-66410165D01*
X115093967Y-66337535D01*
X115048635Y-66228092D01*
X115048628Y-66228079D01*
X114939139Y-66064218D01*
X114939136Y-66064214D01*
X114796686Y-65921764D01*
X114796655Y-65921735D01*
X113985085Y-65110165D01*
X113951600Y-65048842D01*
X113949238Y-65033287D01*
X113948070Y-65019935D01*
X113948070Y-65019934D01*
X113948070Y-65019932D01*
X113890894Y-64806550D01*
X113797534Y-64606339D01*
X113670826Y-64425380D01*
X113514620Y-64269174D01*
X113514616Y-64269171D01*
X113514615Y-64269170D01*
X113333666Y-64142468D01*
X113333658Y-64142464D01*
X113204811Y-64082382D01*
X113152371Y-64036210D01*
X113133219Y-63969017D01*
X113153435Y-63902135D01*
X113204811Y-63857618D01*
X113210802Y-63854824D01*
X113333662Y-63797534D01*
X113514620Y-63670826D01*
X113670826Y-63514620D01*
X113797534Y-63333662D01*
X113890894Y-63133450D01*
X113948070Y-62920068D01*
X113967323Y-62700000D01*
X113948070Y-62479932D01*
X113890894Y-62266550D01*
X113797534Y-62066339D01*
X113670826Y-61885380D01*
X113514620Y-61729174D01*
X113514616Y-61729171D01*
X113514615Y-61729170D01*
X113333666Y-61602468D01*
X113333658Y-61602464D01*
X113204811Y-61542382D01*
X113152371Y-61496210D01*
X113133219Y-61429017D01*
X113153435Y-61362135D01*
X113204811Y-61317618D01*
X113210802Y-61314824D01*
X113333662Y-61257534D01*
X113514620Y-61130826D01*
X113670826Y-60974620D01*
X113797534Y-60793662D01*
X113890894Y-60593450D01*
X113948070Y-60380068D01*
X113967323Y-60160000D01*
X113948070Y-59939932D01*
X113890894Y-59726550D01*
X113797534Y-59526339D01*
X113734180Y-59435859D01*
X113670827Y-59345381D01*
X113599972Y-59274526D01*
X113514620Y-59189174D01*
X113514616Y-59189171D01*
X113514615Y-59189170D01*
X113333666Y-59062468D01*
X113333658Y-59062464D01*
X113204811Y-59002382D01*
X113152371Y-58956210D01*
X113133219Y-58889017D01*
X113153435Y-58822135D01*
X113204811Y-58777618D01*
X113214161Y-58773258D01*
X113333662Y-58717534D01*
X113514620Y-58590826D01*
X113670826Y-58434620D01*
X113797534Y-58253662D01*
X113890894Y-58053450D01*
X113948070Y-57840068D01*
X113967323Y-57620000D01*
X113948070Y-57399932D01*
X113890894Y-57186550D01*
X113797534Y-56986339D01*
X113670826Y-56805380D01*
X113514620Y-56649174D01*
X113514616Y-56649171D01*
X113514615Y-56649170D01*
X113333666Y-56522468D01*
X113333658Y-56522464D01*
X113204811Y-56462382D01*
X113152371Y-56416210D01*
X113133219Y-56349017D01*
X113153435Y-56282135D01*
X113204811Y-56237618D01*
X113210802Y-56234824D01*
X113333662Y-56177534D01*
X113514620Y-56050826D01*
X113670826Y-55894620D01*
X113797534Y-55713662D01*
X113890894Y-55513450D01*
X113948070Y-55300068D01*
X113967323Y-55080000D01*
X113948070Y-54859932D01*
X113890894Y-54646550D01*
X113797534Y-54446339D01*
X113670826Y-54265380D01*
X113514620Y-54109174D01*
X113514616Y-54109171D01*
X113514615Y-54109170D01*
X113333666Y-53982468D01*
X113333658Y-53982464D01*
X113204811Y-53922382D01*
X113152371Y-53876210D01*
X113133219Y-53809017D01*
X113153435Y-53742135D01*
X113204811Y-53697618D01*
X113210802Y-53694824D01*
X113333662Y-53637534D01*
X113514620Y-53510826D01*
X113670826Y-53354620D01*
X113797534Y-53173662D01*
X113890894Y-52973450D01*
X113948070Y-52760068D01*
X113967323Y-52540000D01*
X113948070Y-52319932D01*
X113890894Y-52106550D01*
X113797534Y-51906339D01*
X113670826Y-51725380D01*
X113514620Y-51569174D01*
X113514616Y-51569171D01*
X113514615Y-51569170D01*
X113333666Y-51442468D01*
X113333658Y-51442464D01*
X113204811Y-51382382D01*
X113152371Y-51336210D01*
X113133219Y-51269017D01*
X113153435Y-51202135D01*
X113204811Y-51157618D01*
X113226603Y-51147456D01*
X113333662Y-51097534D01*
X113514620Y-50970826D01*
X113670826Y-50814620D01*
X113797534Y-50633662D01*
X113890894Y-50433450D01*
X113948070Y-50220068D01*
X113967323Y-50000000D01*
X113948070Y-49779932D01*
X113890894Y-49566550D01*
X113797534Y-49366339D01*
X113734180Y-49275859D01*
X113670827Y-49185381D01*
X113615962Y-49130516D01*
X113514620Y-49029174D01*
X113514616Y-49029171D01*
X113514615Y-49029170D01*
X113333666Y-48902468D01*
X113333662Y-48902466D01*
X113286457Y-48880454D01*
X113133450Y-48809106D01*
X113133447Y-48809105D01*
X113133445Y-48809104D01*
X112920070Y-48751930D01*
X112920062Y-48751929D01*
X112700002Y-48732677D01*
X112699998Y-48732677D01*
X112479937Y-48751929D01*
X112479929Y-48751930D01*
X112266554Y-48809104D01*
X112266548Y-48809107D01*
X112066340Y-48902465D01*
X112066338Y-48902466D01*
X111885377Y-49029175D01*
X111729175Y-49185377D01*
X111602466Y-49366338D01*
X111602465Y-49366340D01*
X111509107Y-49566548D01*
X111509104Y-49566554D01*
X111451930Y-49779929D01*
X111451929Y-49779937D01*
X111432677Y-49999997D01*
X111432677Y-50000002D01*
X111451929Y-50220062D01*
X111451930Y-50220070D01*
X111509104Y-50433445D01*
X111509105Y-50433447D01*
X111509106Y-50433450D01*
X111570285Y-50564649D01*
X111602466Y-50633662D01*
X111602468Y-50633666D01*
X111729170Y-50814615D01*
X111729175Y-50814621D01*
X111885378Y-50970824D01*
X111885384Y-50970829D01*
X112066333Y-51097531D01*
X112066335Y-51097532D01*
X112066338Y-51097534D01*
X112173397Y-51147456D01*
X112195189Y-51157618D01*
X112247628Y-51203790D01*
X112266780Y-51270984D01*
X112246564Y-51337865D01*
X112195189Y-51382382D01*
X112066340Y-51442465D01*
X112066338Y-51442466D01*
X111885377Y-51569175D01*
X111729175Y-51725377D01*
X111602466Y-51906338D01*
X111602465Y-51906340D01*
X111509107Y-52106548D01*
X111509104Y-52106554D01*
X111451930Y-52319929D01*
X111451929Y-52319937D01*
X111432677Y-52539997D01*
X111432677Y-52540002D01*
X111451929Y-52760062D01*
X111451930Y-52760070D01*
X111509104Y-52973445D01*
X111509105Y-52973447D01*
X111509106Y-52973450D01*
X111580205Y-53125923D01*
X111602466Y-53173662D01*
X111602468Y-53173666D01*
X111729170Y-53354615D01*
X111729175Y-53354621D01*
X111885378Y-53510824D01*
X111885384Y-53510829D01*
X112066333Y-53637531D01*
X112066335Y-53637532D01*
X112066338Y-53637534D01*
X112185748Y-53693215D01*
X112195189Y-53697618D01*
X112247628Y-53743790D01*
X112266780Y-53810984D01*
X112246564Y-53877865D01*
X112195189Y-53922382D01*
X112066340Y-53982465D01*
X112066338Y-53982466D01*
X111885377Y-54109175D01*
X111729175Y-54265377D01*
X111602466Y-54446338D01*
X111602465Y-54446340D01*
X111509107Y-54646548D01*
X111509104Y-54646554D01*
X111451930Y-54859929D01*
X111451929Y-54859937D01*
X111432677Y-55079997D01*
X111432677Y-55080002D01*
X111451929Y-55300062D01*
X111451930Y-55300070D01*
X111509104Y-55513445D01*
X111509105Y-55513447D01*
X111509106Y-55513450D01*
X111602466Y-55713662D01*
X111602468Y-55713666D01*
X111729170Y-55894615D01*
X111729175Y-55894621D01*
X111885378Y-56050824D01*
X111885384Y-56050829D01*
X112066333Y-56177531D01*
X112066335Y-56177532D01*
X112066338Y-56177534D01*
X112185748Y-56233215D01*
X112195189Y-56237618D01*
X112247628Y-56283790D01*
X112266780Y-56350984D01*
X112246564Y-56417865D01*
X112195189Y-56462382D01*
X112066340Y-56522465D01*
X112066338Y-56522466D01*
X111885377Y-56649175D01*
X111729175Y-56805377D01*
X111602466Y-56986338D01*
X111602465Y-56986340D01*
X111509107Y-57186548D01*
X111509104Y-57186554D01*
X111451930Y-57399929D01*
X111451929Y-57399937D01*
X111432677Y-57619997D01*
X111432677Y-57620002D01*
X111451929Y-57840062D01*
X111451930Y-57840070D01*
X111509104Y-58053445D01*
X111509105Y-58053447D01*
X111509106Y-58053450D01*
X111602466Y-58253662D01*
X111602468Y-58253666D01*
X111729170Y-58434615D01*
X111729175Y-58434621D01*
X111885378Y-58590824D01*
X111885384Y-58590829D01*
X112066333Y-58717531D01*
X112066335Y-58717532D01*
X112066338Y-58717534D01*
X112185748Y-58773215D01*
X112195189Y-58777618D01*
X112247628Y-58823790D01*
X112266780Y-58890984D01*
X112246564Y-58957865D01*
X112195189Y-59002382D01*
X112066340Y-59062465D01*
X112066338Y-59062466D01*
X111885377Y-59189175D01*
X111729175Y-59345377D01*
X111602466Y-59526338D01*
X111602465Y-59526340D01*
X111509107Y-59726548D01*
X111509104Y-59726554D01*
X111451930Y-59939929D01*
X111451929Y-59939937D01*
X111432677Y-60159997D01*
X111432677Y-60160002D01*
X111451929Y-60380062D01*
X111451930Y-60380070D01*
X111509104Y-60593445D01*
X111509105Y-60593447D01*
X111509106Y-60593450D01*
X111570668Y-60725471D01*
X111602466Y-60793662D01*
X111602468Y-60793666D01*
X111729170Y-60974615D01*
X111729175Y-60974621D01*
X111885378Y-61130824D01*
X111885384Y-61130829D01*
X112066333Y-61257531D01*
X112066335Y-61257532D01*
X112066338Y-61257534D01*
X112168057Y-61304966D01*
X112195189Y-61317618D01*
X112247628Y-61363790D01*
X112266780Y-61430984D01*
X112246564Y-61497865D01*
X112195189Y-61542382D01*
X112066340Y-61602465D01*
X112066338Y-61602466D01*
X111885377Y-61729175D01*
X111729175Y-61885377D01*
X111602466Y-62066338D01*
X111602465Y-62066340D01*
X111509107Y-62266548D01*
X111509104Y-62266554D01*
X111451930Y-62479929D01*
X111451929Y-62479937D01*
X111432677Y-62699997D01*
X111432677Y-62700002D01*
X111451929Y-62920062D01*
X111451930Y-62920070D01*
X111509104Y-63133445D01*
X111509105Y-63133447D01*
X111509106Y-63133450D01*
X111602466Y-63333662D01*
X111602468Y-63333666D01*
X111729170Y-63514615D01*
X111729175Y-63514621D01*
X111885378Y-63670824D01*
X111885384Y-63670829D01*
X112066333Y-63797531D01*
X112066335Y-63797532D01*
X112066338Y-63797534D01*
X112185748Y-63853215D01*
X112195189Y-63857618D01*
X112247628Y-63903790D01*
X112266780Y-63970984D01*
X112246564Y-64037865D01*
X112195189Y-64082382D01*
X112066340Y-64142465D01*
X112066338Y-64142466D01*
X111885377Y-64269175D01*
X111729175Y-64425377D01*
X111602466Y-64606338D01*
X111602465Y-64606340D01*
X111509107Y-64806548D01*
X111509104Y-64806554D01*
X111451930Y-65019929D01*
X111451929Y-65019937D01*
X111432677Y-65239997D01*
X111432677Y-65240002D01*
X111451929Y-65460062D01*
X111451930Y-65460070D01*
X111509104Y-65673445D01*
X111509105Y-65673447D01*
X111509106Y-65673450D01*
X111564065Y-65791310D01*
X111602466Y-65873662D01*
X111602468Y-65873666D01*
X111729170Y-66054615D01*
X111729175Y-66054621D01*
X111885378Y-66210824D01*
X111885384Y-66210829D01*
X112066333Y-66337531D01*
X112066335Y-66337532D01*
X112066338Y-66337534D01*
X112185748Y-66393215D01*
X112195189Y-66397618D01*
X112247628Y-66443790D01*
X112266780Y-66510984D01*
X112246564Y-66577865D01*
X112195189Y-66622382D01*
X112066340Y-66682465D01*
X112066338Y-66682466D01*
X111885377Y-66809175D01*
X111729175Y-66965377D01*
X111602466Y-67146338D01*
X111602465Y-67146340D01*
X111509107Y-67346548D01*
X111509104Y-67346554D01*
X111451930Y-67559929D01*
X111451929Y-67559937D01*
X111432677Y-67779997D01*
X111432677Y-67780002D01*
X111451929Y-68000062D01*
X111451930Y-68000070D01*
X111509104Y-68213445D01*
X111509105Y-68213447D01*
X111509106Y-68213450D01*
X111558828Y-68320080D01*
X111602466Y-68413662D01*
X111602468Y-68413666D01*
X111729170Y-68594615D01*
X111729175Y-68594621D01*
X111885378Y-68750824D01*
X111885384Y-68750829D01*
X112066333Y-68877531D01*
X112066335Y-68877532D01*
X112066338Y-68877534D01*
X112185748Y-68933215D01*
X112195189Y-68937618D01*
X112247628Y-68983790D01*
X112266780Y-69050984D01*
X112246564Y-69117865D01*
X112195189Y-69162382D01*
X112066340Y-69222465D01*
X112066338Y-69222466D01*
X111885377Y-69349175D01*
X111729175Y-69505377D01*
X111602466Y-69686338D01*
X111602465Y-69686340D01*
X111509107Y-69886548D01*
X111509104Y-69886554D01*
X111451930Y-70099929D01*
X111451929Y-70099937D01*
X111432677Y-70319997D01*
X111432677Y-70320002D01*
X111451929Y-70540062D01*
X111451930Y-70540070D01*
X111509104Y-70753445D01*
X111509105Y-70753447D01*
X111509106Y-70753450D01*
X111555314Y-70852543D01*
X111602466Y-70953662D01*
X111602468Y-70953666D01*
X111729170Y-71134615D01*
X111729175Y-71134621D01*
X111885378Y-71290824D01*
X111885384Y-71290829D01*
X112066333Y-71417531D01*
X112066335Y-71417532D01*
X112066338Y-71417534D01*
X112104543Y-71435349D01*
X112195189Y-71477618D01*
X112247628Y-71523790D01*
X112266780Y-71590984D01*
X112246564Y-71657865D01*
X112195189Y-71702382D01*
X112066340Y-71762465D01*
X112066338Y-71762466D01*
X111885377Y-71889175D01*
X111729175Y-72045377D01*
X111602466Y-72226338D01*
X111602465Y-72226340D01*
X111509107Y-72426548D01*
X111509104Y-72426554D01*
X111451930Y-72639929D01*
X111451929Y-72639937D01*
X111432677Y-72859997D01*
X111432677Y-72860002D01*
X111451929Y-73080062D01*
X111451930Y-73080070D01*
X111509104Y-73293445D01*
X111509105Y-73293447D01*
X111509106Y-73293450D01*
X111602466Y-73493662D01*
X111602468Y-73493666D01*
X111729170Y-73674615D01*
X111729175Y-73674621D01*
X111885378Y-73830824D01*
X111885384Y-73830829D01*
X112066333Y-73957531D01*
X112066335Y-73957532D01*
X112066338Y-73957534D01*
X112185748Y-74013215D01*
X112195189Y-74017618D01*
X112247628Y-74063790D01*
X112266780Y-74130984D01*
X112246564Y-74197865D01*
X112195189Y-74242382D01*
X112066340Y-74302465D01*
X112066338Y-74302466D01*
X111885377Y-74429175D01*
X111729175Y-74585377D01*
X111602466Y-74766338D01*
X111602465Y-74766340D01*
X111509107Y-74966548D01*
X111509104Y-74966554D01*
X111451930Y-75179929D01*
X111451929Y-75179937D01*
X111432677Y-75399997D01*
X111432677Y-75400002D01*
X111451929Y-75620062D01*
X111451930Y-75620070D01*
X111509104Y-75833445D01*
X111509105Y-75833447D01*
X111509106Y-75833450D01*
X111562213Y-75947339D01*
X111602466Y-76033662D01*
X111602468Y-76033666D01*
X111729170Y-76214615D01*
X111729175Y-76214621D01*
X111885378Y-76370824D01*
X111885384Y-76370829D01*
X112066333Y-76497531D01*
X112066335Y-76497532D01*
X112066338Y-76497534D01*
X112185748Y-76553215D01*
X112195189Y-76557618D01*
X112247628Y-76603790D01*
X112266780Y-76670984D01*
X112246564Y-76737865D01*
X112195189Y-76782382D01*
X112066340Y-76842465D01*
X112066338Y-76842466D01*
X111885377Y-76969175D01*
X111729175Y-77125377D01*
X111602466Y-77306338D01*
X111602465Y-77306340D01*
X111509107Y-77506548D01*
X111509104Y-77506554D01*
X111451930Y-77719929D01*
X111451929Y-77719937D01*
X111432677Y-77939997D01*
X111432677Y-77940002D01*
X111451929Y-78160062D01*
X111451930Y-78160070D01*
X111509104Y-78373445D01*
X111509105Y-78373447D01*
X111509106Y-78373450D01*
X111602466Y-78573662D01*
X111602468Y-78573666D01*
X111729170Y-78754615D01*
X111729175Y-78754621D01*
X111885378Y-78910824D01*
X111885384Y-78910829D01*
X112066333Y-79037531D01*
X112066335Y-79037532D01*
X112066338Y-79037534D01*
X112185748Y-79093215D01*
X112195189Y-79097618D01*
X112247628Y-79143790D01*
X112266780Y-79210984D01*
X112246564Y-79277865D01*
X112195189Y-79322382D01*
X112066340Y-79382465D01*
X112066338Y-79382466D01*
X111885377Y-79509175D01*
X111729175Y-79665377D01*
X111602466Y-79846338D01*
X111602465Y-79846340D01*
X111509107Y-80046548D01*
X111509104Y-80046554D01*
X111451930Y-80259929D01*
X111451929Y-80259937D01*
X111432677Y-80479997D01*
X111432677Y-80480002D01*
X111451929Y-80700062D01*
X111451930Y-80700070D01*
X111509104Y-80913445D01*
X111509105Y-80913447D01*
X111509106Y-80913450D01*
X111602466Y-81113662D01*
X111602468Y-81113666D01*
X111729170Y-81294615D01*
X111729175Y-81294621D01*
X111885378Y-81450824D01*
X111885384Y-81450829D01*
X112066333Y-81577531D01*
X112066335Y-81577532D01*
X112066338Y-81577534D01*
X112195781Y-81637894D01*
X112248220Y-81684066D01*
X112267372Y-81751260D01*
X112247156Y-81818141D01*
X112195781Y-81862658D01*
X112066590Y-81922901D01*
X112001811Y-81968258D01*
X112672553Y-82639000D01*
X112649840Y-82639000D01*
X112552939Y-82664964D01*
X112466060Y-82715124D01*
X112395124Y-82786060D01*
X112344964Y-82872939D01*
X112319000Y-82969840D01*
X112319000Y-82992553D01*
X111648258Y-82321811D01*
X111602901Y-82386590D01*
X111509579Y-82586720D01*
X111509575Y-82586729D01*
X111452426Y-82800013D01*
X111452424Y-82800023D01*
X111433179Y-83019999D01*
X111433179Y-83020000D01*
X111452424Y-83239976D01*
X111452426Y-83239986D01*
X111509575Y-83453270D01*
X111509580Y-83453284D01*
X111602898Y-83653405D01*
X111602901Y-83653411D01*
X111648258Y-83718187D01*
X111648259Y-83718188D01*
X112319000Y-83047447D01*
X112319000Y-83070160D01*
X112344964Y-83167061D01*
X112395124Y-83253940D01*
X112466060Y-83324876D01*
X112552939Y-83375036D01*
X112649840Y-83401000D01*
X112672553Y-83401000D01*
X112001810Y-84071740D01*
X112066589Y-84117098D01*
X112195781Y-84177342D01*
X112248220Y-84223514D01*
X112267372Y-84290708D01*
X112247156Y-84357589D01*
X112195781Y-84402106D01*
X112066340Y-84462465D01*
X112066338Y-84462466D01*
X111885377Y-84589175D01*
X111729175Y-84745377D01*
X111602466Y-84926338D01*
X111602465Y-84926340D01*
X111514735Y-85114476D01*
X111468562Y-85166915D01*
X111401368Y-85186067D01*
X111334487Y-85165851D01*
X111314672Y-85149752D01*
X111094209Y-84929289D01*
X111094206Y-84929285D01*
X111094206Y-84929286D01*
X111087139Y-84922219D01*
X111087139Y-84922218D01*
X110947782Y-84782861D01*
X110947781Y-84782860D01*
X110947780Y-84782859D01*
X110783920Y-84673371D01*
X110783911Y-84673366D01*
X110711315Y-84643296D01*
X110655165Y-84620038D01*
X110601836Y-84597949D01*
X110601832Y-84597948D01*
X110601828Y-84597946D01*
X110505188Y-84578724D01*
X110408544Y-84559500D01*
X110408541Y-84559500D01*
X88111338Y-84559500D01*
X88044299Y-84539815D01*
X88040232Y-84537087D01*
X87933662Y-84462466D01*
X87933663Y-84462466D01*
X87933661Y-84462465D01*
X87804218Y-84402105D01*
X87751779Y-84355932D01*
X87732627Y-84288739D01*
X87752843Y-84221858D01*
X87804219Y-84177340D01*
X87933416Y-84117095D01*
X87933417Y-84117094D01*
X87998188Y-84071741D01*
X87327448Y-83401000D01*
X87350160Y-83401000D01*
X87447061Y-83375036D01*
X87533940Y-83324876D01*
X87604876Y-83253940D01*
X87655036Y-83167061D01*
X87681000Y-83070160D01*
X87681000Y-83047447D01*
X88351741Y-83718188D01*
X88397094Y-83653417D01*
X88397100Y-83653407D01*
X88490419Y-83453284D01*
X88490424Y-83453270D01*
X88547573Y-83239986D01*
X88547575Y-83239976D01*
X88566821Y-83020000D01*
X88566821Y-83019999D01*
X88547575Y-82800023D01*
X88547573Y-82800013D01*
X88490424Y-82586729D01*
X88490420Y-82586720D01*
X88397096Y-82386586D01*
X88351741Y-82321811D01*
X88351740Y-82321810D01*
X87681000Y-82992551D01*
X87681000Y-82969840D01*
X87655036Y-82872939D01*
X87604876Y-82786060D01*
X87533940Y-82715124D01*
X87447061Y-82664964D01*
X87350160Y-82639000D01*
X87327448Y-82639000D01*
X87998188Y-81968259D01*
X87998187Y-81968258D01*
X87933411Y-81922901D01*
X87933405Y-81922898D01*
X87804219Y-81862658D01*
X87751779Y-81816486D01*
X87732627Y-81749293D01*
X87752843Y-81682411D01*
X87804219Y-81637894D01*
X87933662Y-81577534D01*
X88114620Y-81450826D01*
X88270826Y-81294620D01*
X88397534Y-81113662D01*
X88490894Y-80913450D01*
X88548070Y-80700068D01*
X88567323Y-80480000D01*
X88548070Y-80259932D01*
X88490894Y-80046550D01*
X88397534Y-79846339D01*
X88270826Y-79665380D01*
X88114620Y-79509174D01*
X88114616Y-79509171D01*
X88114615Y-79509170D01*
X87933666Y-79382468D01*
X87933658Y-79382464D01*
X87804811Y-79322382D01*
X87752371Y-79276210D01*
X87733219Y-79209017D01*
X87753435Y-79142135D01*
X87804811Y-79097618D01*
X87810802Y-79094824D01*
X87933662Y-79037534D01*
X88114620Y-78910826D01*
X88270826Y-78754620D01*
X88397534Y-78573662D01*
X88490894Y-78373450D01*
X88548070Y-78160068D01*
X88567323Y-77940000D01*
X88548070Y-77719932D01*
X88490894Y-77506550D01*
X88397534Y-77306339D01*
X88274156Y-77130136D01*
X88270827Y-77125381D01*
X88210939Y-77065493D01*
X88114620Y-76969174D01*
X88114616Y-76969171D01*
X88114615Y-76969170D01*
X87933666Y-76842468D01*
X87933658Y-76842464D01*
X87804811Y-76782382D01*
X87752371Y-76736210D01*
X87733219Y-76669017D01*
X87753435Y-76602135D01*
X87804811Y-76557618D01*
X87810802Y-76554824D01*
X87933662Y-76497534D01*
X88114620Y-76370826D01*
X88270826Y-76214620D01*
X88397534Y-76033662D01*
X88490894Y-75833450D01*
X88548070Y-75620068D01*
X88567323Y-75400000D01*
X88562709Y-75347266D01*
X88549238Y-75193287D01*
X88548070Y-75179932D01*
X88490894Y-74966550D01*
X88397534Y-74766339D01*
X88307462Y-74637702D01*
X88270827Y-74585381D01*
X88198813Y-74513367D01*
X88114620Y-74429174D01*
X88114616Y-74429171D01*
X88114615Y-74429170D01*
X87933666Y-74302468D01*
X87933658Y-74302464D01*
X87804811Y-74242382D01*
X87752371Y-74196210D01*
X87733219Y-74129017D01*
X87753435Y-74062135D01*
X87804811Y-74017618D01*
X87810802Y-74014824D01*
X87933662Y-73957534D01*
X88114620Y-73830826D01*
X88270826Y-73674620D01*
X88397534Y-73493662D01*
X88490894Y-73293450D01*
X88548070Y-73080068D01*
X88567323Y-72860000D01*
X88548070Y-72639932D01*
X88490894Y-72426550D01*
X88397534Y-72226339D01*
X88270826Y-72045380D01*
X88114620Y-71889174D01*
X88114616Y-71889171D01*
X88114615Y-71889170D01*
X87933666Y-71762468D01*
X87933658Y-71762464D01*
X87804811Y-71702382D01*
X87752371Y-71656210D01*
X87733219Y-71589017D01*
X87753435Y-71522135D01*
X87804811Y-71477618D01*
X87810802Y-71474824D01*
X87933662Y-71417534D01*
X88114620Y-71290826D01*
X88270826Y-71134620D01*
X88397534Y-70953662D01*
X88490894Y-70753450D01*
X88548070Y-70540068D01*
X88567323Y-70320000D01*
X88548070Y-70099932D01*
X88490894Y-69886550D01*
X88397534Y-69686339D01*
X88270826Y-69505380D01*
X88114620Y-69349174D01*
X88114616Y-69349171D01*
X88114615Y-69349170D01*
X87933666Y-69222468D01*
X87933658Y-69222464D01*
X87804811Y-69162382D01*
X87752371Y-69116210D01*
X87733219Y-69049017D01*
X87753435Y-68982135D01*
X87804811Y-68937618D01*
X87810802Y-68934824D01*
X87933662Y-68877534D01*
X88114620Y-68750826D01*
X88270826Y-68594620D01*
X88397534Y-68413662D01*
X88490894Y-68213450D01*
X88548070Y-68000068D01*
X88567323Y-67780000D01*
X88548070Y-67559932D01*
X88490894Y-67346550D01*
X88397534Y-67146339D01*
X88294496Y-66999184D01*
X88270827Y-66965381D01*
X88224279Y-66918833D01*
X88114620Y-66809174D01*
X88114616Y-66809171D01*
X88114615Y-66809170D01*
X87933666Y-66682468D01*
X87933658Y-66682464D01*
X87804811Y-66622382D01*
X87752371Y-66576210D01*
X87733219Y-66509017D01*
X87753435Y-66442135D01*
X87804811Y-66397618D01*
X87810802Y-66394824D01*
X87933662Y-66337534D01*
X88114620Y-66210826D01*
X88270826Y-66054620D01*
X88397534Y-65873662D01*
X88490894Y-65673450D01*
X88548070Y-65460068D01*
X88567323Y-65240000D01*
X88548070Y-65019932D01*
X88490894Y-64806550D01*
X88397534Y-64606339D01*
X88270826Y-64425380D01*
X88114620Y-64269174D01*
X88114616Y-64269171D01*
X88114615Y-64269170D01*
X87933666Y-64142468D01*
X87933658Y-64142464D01*
X87804811Y-64082382D01*
X87752371Y-64036210D01*
X87733219Y-63969017D01*
X87753435Y-63902135D01*
X87804811Y-63857618D01*
X87810802Y-63854824D01*
X87933662Y-63797534D01*
X88114620Y-63670826D01*
X88270826Y-63514620D01*
X88397534Y-63333662D01*
X88490894Y-63133450D01*
X88548070Y-62920068D01*
X88567323Y-62700000D01*
X88548070Y-62479932D01*
X88490894Y-62266550D01*
X88397534Y-62066339D01*
X88270826Y-61885380D01*
X88114620Y-61729174D01*
X88114616Y-61729171D01*
X88114615Y-61729170D01*
X87933666Y-61602468D01*
X87933658Y-61602464D01*
X87804811Y-61542382D01*
X87752371Y-61496210D01*
X87733219Y-61429017D01*
X87753435Y-61362135D01*
X87804811Y-61317618D01*
X87810802Y-61314824D01*
X87933662Y-61257534D01*
X88114620Y-61130826D01*
X88270826Y-60974620D01*
X88397534Y-60793662D01*
X88490894Y-60593450D01*
X88548070Y-60380068D01*
X88567323Y-60160000D01*
X88548070Y-59939932D01*
X88490894Y-59726550D01*
X88397534Y-59526339D01*
X88334180Y-59435859D01*
X88270827Y-59345381D01*
X88199972Y-59274526D01*
X88114620Y-59189174D01*
X88114616Y-59189171D01*
X88114615Y-59189170D01*
X87933666Y-59062468D01*
X87933658Y-59062464D01*
X87804811Y-59002382D01*
X87752371Y-58956210D01*
X87733219Y-58889017D01*
X87753435Y-58822135D01*
X87804811Y-58777618D01*
X87814161Y-58773258D01*
X87933662Y-58717534D01*
X88114620Y-58590826D01*
X88270826Y-58434620D01*
X88397534Y-58253662D01*
X88490894Y-58053450D01*
X88548070Y-57840068D01*
X88567323Y-57620000D01*
X88548070Y-57399932D01*
X88490894Y-57186550D01*
X88397534Y-56986339D01*
X88270826Y-56805380D01*
X88114620Y-56649174D01*
X88114616Y-56649171D01*
X88114615Y-56649170D01*
X87933666Y-56522468D01*
X87933658Y-56522464D01*
X87804811Y-56462382D01*
X87752371Y-56416210D01*
X87733219Y-56349017D01*
X87753435Y-56282135D01*
X87804811Y-56237618D01*
X87810802Y-56234824D01*
X87933662Y-56177534D01*
X88114620Y-56050826D01*
X88270826Y-55894620D01*
X88397534Y-55713662D01*
X88490894Y-55513450D01*
X88548070Y-55300068D01*
X88567323Y-55080000D01*
X88548070Y-54859932D01*
X88490894Y-54646550D01*
X88397534Y-54446339D01*
X88270826Y-54265380D01*
X88114620Y-54109174D01*
X88114616Y-54109171D01*
X88114615Y-54109170D01*
X87933666Y-53982468D01*
X87933658Y-53982464D01*
X87804811Y-53922382D01*
X87752371Y-53876210D01*
X87733219Y-53809017D01*
X87753435Y-53742135D01*
X87804811Y-53697618D01*
X87810802Y-53694824D01*
X87933662Y-53637534D01*
X88114620Y-53510826D01*
X88270826Y-53354620D01*
X88397534Y-53173662D01*
X88490894Y-52973450D01*
X88548070Y-52760068D01*
X88567323Y-52540000D01*
X88548070Y-52319932D01*
X88490894Y-52106550D01*
X88397534Y-51906339D01*
X88270826Y-51725380D01*
X88114620Y-51569174D01*
X88114616Y-51569171D01*
X88114615Y-51569170D01*
X87998797Y-51488074D01*
X87955172Y-51433497D01*
X87947978Y-51363999D01*
X87979501Y-51301644D01*
X88039730Y-51266230D01*
X88069919Y-51262499D01*
X88109872Y-51262499D01*
X88169483Y-51256091D01*
X88304331Y-51205796D01*
X88419546Y-51119546D01*
X88505796Y-51004331D01*
X88556091Y-50869483D01*
X88562500Y-50809873D01*
X88562499Y-49190128D01*
X88556091Y-49130517D01*
X88505796Y-48995669D01*
X88505795Y-48995668D01*
X88505793Y-48995664D01*
X88419547Y-48880455D01*
X88419544Y-48880452D01*
X88304335Y-48794206D01*
X88304328Y-48794202D01*
X88169482Y-48743908D01*
X88169483Y-48743908D01*
X88109883Y-48737501D01*
X88109881Y-48737500D01*
X88109873Y-48737500D01*
X88109864Y-48737500D01*
X86490129Y-48737500D01*
X86490123Y-48737501D01*
X86430516Y-48743908D01*
X86295671Y-48794202D01*
X86295664Y-48794206D01*
X86180455Y-48880452D01*
X86180452Y-48880455D01*
X86094206Y-48995664D01*
X86094202Y-48995671D01*
X86043908Y-49130517D01*
X86038010Y-49185380D01*
X86037501Y-49190123D01*
X86037500Y-49190135D01*
X86037500Y-50809870D01*
X86037501Y-50809876D01*
X86043908Y-50869483D01*
X86094202Y-51004328D01*
X86094206Y-51004335D01*
X86180452Y-51119544D01*
X86180455Y-51119547D01*
X86295664Y-51205793D01*
X86295671Y-51205797D01*
X86430517Y-51256091D01*
X86430516Y-51256091D01*
X86437444Y-51256835D01*
X86490127Y-51262500D01*
X86530079Y-51262499D01*
X86597116Y-51282182D01*
X86642872Y-51334985D01*
X86652817Y-51404143D01*
X86623794Y-51467700D01*
X86601203Y-51488074D01*
X86485375Y-51569177D01*
X86329175Y-51725377D01*
X86202466Y-51906338D01*
X86202465Y-51906340D01*
X86109107Y-52106548D01*
X86109104Y-52106554D01*
X86051930Y-52319929D01*
X86051929Y-52319937D01*
X86032677Y-52539997D01*
X86032677Y-52540002D01*
X86051929Y-52760062D01*
X86051930Y-52760070D01*
X86109104Y-52973445D01*
X86109105Y-52973447D01*
X86109106Y-52973450D01*
X86180205Y-53125923D01*
X86202466Y-53173662D01*
X86202468Y-53173666D01*
X86329170Y-53354615D01*
X86329175Y-53354621D01*
X86485378Y-53510824D01*
X86485384Y-53510829D01*
X86666333Y-53637531D01*
X86666335Y-53637532D01*
X86666338Y-53637534D01*
X86785748Y-53693215D01*
X86795189Y-53697618D01*
X86847628Y-53743790D01*
X86866780Y-53810984D01*
X86846564Y-53877865D01*
X86795189Y-53922382D01*
X86666340Y-53982465D01*
X86666338Y-53982466D01*
X86485377Y-54109175D01*
X86329175Y-54265377D01*
X86202466Y-54446338D01*
X86202465Y-54446340D01*
X86109107Y-54646548D01*
X86109104Y-54646554D01*
X86051930Y-54859929D01*
X86051929Y-54859937D01*
X86032677Y-55079997D01*
X86032677Y-55080002D01*
X86051929Y-55300062D01*
X86051930Y-55300070D01*
X86109104Y-55513445D01*
X86109105Y-55513447D01*
X86109106Y-55513450D01*
X86202466Y-55713662D01*
X86202468Y-55713666D01*
X86329170Y-55894615D01*
X86329175Y-55894621D01*
X86485378Y-56050824D01*
X86485384Y-56050829D01*
X86666333Y-56177531D01*
X86666335Y-56177532D01*
X86666338Y-56177534D01*
X86785748Y-56233215D01*
X86795189Y-56237618D01*
X86847628Y-56283790D01*
X86866780Y-56350984D01*
X86846564Y-56417865D01*
X86795189Y-56462382D01*
X86666340Y-56522465D01*
X86666338Y-56522466D01*
X86485377Y-56649175D01*
X86329175Y-56805377D01*
X86202466Y-56986338D01*
X86202465Y-56986340D01*
X86109107Y-57186548D01*
X86109104Y-57186554D01*
X86051930Y-57399929D01*
X86051929Y-57399937D01*
X86032677Y-57619997D01*
X86032677Y-57620002D01*
X86051929Y-57840062D01*
X86051930Y-57840070D01*
X86109104Y-58053445D01*
X86109105Y-58053447D01*
X86109106Y-58053450D01*
X86202466Y-58253662D01*
X86202468Y-58253666D01*
X86329170Y-58434615D01*
X86329175Y-58434621D01*
X86485378Y-58590824D01*
X86485384Y-58590829D01*
X86666333Y-58717531D01*
X86666335Y-58717532D01*
X86666338Y-58717534D01*
X86785748Y-58773215D01*
X86795189Y-58777618D01*
X86847628Y-58823790D01*
X86866780Y-58890984D01*
X86846564Y-58957865D01*
X86795189Y-59002382D01*
X86666340Y-59062465D01*
X86666338Y-59062466D01*
X86485377Y-59189175D01*
X86329175Y-59345377D01*
X86202466Y-59526338D01*
X86202465Y-59526340D01*
X86109107Y-59726548D01*
X86109101Y-59726563D01*
X86087001Y-59809040D01*
X86050636Y-59868700D01*
X85987789Y-59899228D01*
X85918413Y-59890933D01*
X85879546Y-59864626D01*
X85684209Y-59669289D01*
X85684206Y-59669285D01*
X85684206Y-59669286D01*
X85677139Y-59662219D01*
X85677139Y-59662218D01*
X85537782Y-59522861D01*
X85537781Y-59522860D01*
X85537780Y-59522859D01*
X85373920Y-59413371D01*
X85373911Y-59413366D01*
X85290683Y-59378892D01*
X85245165Y-59360038D01*
X85218500Y-59348993D01*
X85191837Y-59337949D01*
X85191833Y-59337948D01*
X85063272Y-59312376D01*
X84998543Y-59299500D01*
X84998541Y-59299500D01*
X84822351Y-59299500D01*
X84755312Y-59279815D01*
X84718542Y-59243321D01*
X84648983Y-59136852D01*
X84648980Y-59136849D01*
X84648979Y-59136847D01*
X84491784Y-58966087D01*
X84491779Y-58966083D01*
X84491777Y-58966081D01*
X84308634Y-58823535D01*
X84308628Y-58823531D01*
X84104504Y-58713064D01*
X84104495Y-58713061D01*
X83884984Y-58637702D01*
X83694450Y-58605908D01*
X83656049Y-58599500D01*
X83423951Y-58599500D01*
X83385550Y-58605908D01*
X83195015Y-58637702D01*
X82975504Y-58713061D01*
X82975495Y-58713064D01*
X82771371Y-58823531D01*
X82771365Y-58823535D01*
X82588222Y-58966081D01*
X82588218Y-58966085D01*
X82579866Y-58975158D01*
X82519979Y-59011148D01*
X82450141Y-59009047D01*
X82392525Y-58969522D01*
X82372455Y-58934507D01*
X82343797Y-58857671D01*
X82343793Y-58857664D01*
X82257547Y-58742455D01*
X82257544Y-58742452D01*
X82142335Y-58656206D01*
X82142328Y-58656202D01*
X82007482Y-58605908D01*
X82007483Y-58605908D01*
X81947883Y-58599501D01*
X81947881Y-58599500D01*
X81947873Y-58599500D01*
X81947864Y-58599500D01*
X80052129Y-58599500D01*
X80052123Y-58599501D01*
X79992516Y-58605908D01*
X79857671Y-58656202D01*
X79857664Y-58656206D01*
X79742455Y-58742452D01*
X79742452Y-58742455D01*
X79656206Y-58857664D01*
X79656202Y-58857671D01*
X79633391Y-58918833D01*
X79591520Y-58974767D01*
X79526056Y-58999184D01*
X79517209Y-58999500D01*
X78037588Y-58999500D01*
X77970549Y-58979815D01*
X77966465Y-58977075D01*
X77963727Y-58975158D01*
X77812734Y-58869432D01*
X77787513Y-58857671D01*
X77606497Y-58773261D01*
X77606488Y-58773258D01*
X77386697Y-58714366D01*
X77386693Y-58714365D01*
X77386692Y-58714365D01*
X77386691Y-58714364D01*
X77386686Y-58714364D01*
X77160002Y-58694532D01*
X77159998Y-58694532D01*
X76933313Y-58714364D01*
X76933302Y-58714366D01*
X76713511Y-58773258D01*
X76713502Y-58773261D01*
X76507267Y-58869431D01*
X76507265Y-58869432D01*
X76320858Y-58999954D01*
X76159954Y-59160858D01*
X76029432Y-59347265D01*
X76029431Y-59347267D01*
X75933261Y-59553502D01*
X75933258Y-59553511D01*
X75874366Y-59773302D01*
X75874364Y-59773313D01*
X75854532Y-59999998D01*
X75854532Y-60000001D01*
X75874364Y-60226686D01*
X75874366Y-60226697D01*
X75933258Y-60446488D01*
X75933261Y-60446497D01*
X76029431Y-60652732D01*
X76029432Y-60652734D01*
X76159954Y-60839141D01*
X76320858Y-61000045D01*
X76320861Y-61000047D01*
X76507266Y-61130568D01*
X76713504Y-61226739D01*
X76933308Y-61285635D01*
X77095230Y-61299801D01*
X77159998Y-61305468D01*
X77160000Y-61305468D01*
X77160002Y-61305468D01*
X77216784Y-61300500D01*
X77386692Y-61285635D01*
X77606496Y-61226739D01*
X77812734Y-61130568D01*
X77966465Y-61022924D01*
X78032671Y-61000598D01*
X78037588Y-61000500D01*
X79517209Y-61000500D01*
X79584248Y-61020185D01*
X79630003Y-61072989D01*
X79633391Y-61081167D01*
X79656202Y-61142328D01*
X79656206Y-61142335D01*
X79742452Y-61257544D01*
X79742455Y-61257547D01*
X79857664Y-61343793D01*
X79857671Y-61343797D01*
X79992517Y-61394091D01*
X79992516Y-61394091D01*
X79999444Y-61394835D01*
X80052127Y-61400500D01*
X81947872Y-61400499D01*
X82007483Y-61394091D01*
X82142331Y-61343796D01*
X82257546Y-61257546D01*
X82343796Y-61142331D01*
X82348184Y-61130567D01*
X82372455Y-61065493D01*
X82414326Y-61009559D01*
X82479790Y-60985141D01*
X82548063Y-60999992D01*
X82579866Y-61024843D01*
X82587302Y-61032920D01*
X82588215Y-61033912D01*
X82588222Y-61033918D01*
X82771365Y-61176464D01*
X82771371Y-61176468D01*
X82771374Y-61176470D01*
X82975497Y-61286936D01*
X83064871Y-61317618D01*
X83195015Y-61362297D01*
X83195017Y-61362297D01*
X83195019Y-61362298D01*
X83423951Y-61400500D01*
X83423952Y-61400500D01*
X83656048Y-61400500D01*
X83656049Y-61400500D01*
X83884981Y-61362298D01*
X84045420Y-61307218D01*
X84085683Y-61300500D01*
X84148540Y-61300500D01*
X84434218Y-61300500D01*
X84501257Y-61320185D01*
X84521899Y-61336819D01*
X86014913Y-62829834D01*
X86048398Y-62891157D01*
X86050759Y-62906700D01*
X86051928Y-62920056D01*
X86051930Y-62920070D01*
X86109104Y-63133445D01*
X86109105Y-63133447D01*
X86109106Y-63133450D01*
X86202466Y-63333662D01*
X86202468Y-63333666D01*
X86329170Y-63514615D01*
X86329175Y-63514621D01*
X86485378Y-63670824D01*
X86485384Y-63670829D01*
X86666333Y-63797531D01*
X86666335Y-63797532D01*
X86666338Y-63797534D01*
X86785748Y-63853215D01*
X86795189Y-63857618D01*
X86847628Y-63903790D01*
X86866780Y-63970984D01*
X86846564Y-64037865D01*
X86795189Y-64082382D01*
X86666340Y-64142465D01*
X86666338Y-64142466D01*
X86485377Y-64269175D01*
X86329175Y-64425377D01*
X86202466Y-64606338D01*
X86202465Y-64606340D01*
X86109107Y-64806548D01*
X86109104Y-64806554D01*
X86051930Y-65019929D01*
X86051929Y-65019934D01*
X86050761Y-65033292D01*
X86025307Y-65098360D01*
X86014914Y-65110163D01*
X84369415Y-66755663D01*
X84308092Y-66789148D01*
X84238400Y-66784164D01*
X84222717Y-66777037D01*
X84104509Y-66713067D01*
X84104506Y-66713066D01*
X84104503Y-66713064D01*
X84104497Y-66713062D01*
X84104495Y-66713061D01*
X83884984Y-66637702D01*
X83694450Y-66605908D01*
X83656049Y-66599500D01*
X83423951Y-66599500D01*
X83400244Y-66603456D01*
X83195015Y-66637702D01*
X82975504Y-66713061D01*
X82975495Y-66713064D01*
X82771371Y-66823531D01*
X82771365Y-66823535D01*
X82588222Y-66966081D01*
X82588218Y-66966085D01*
X82579866Y-66975158D01*
X82519979Y-67011148D01*
X82450141Y-67009047D01*
X82392525Y-66969522D01*
X82372455Y-66934507D01*
X82343797Y-66857671D01*
X82343793Y-66857664D01*
X82257547Y-66742455D01*
X82257544Y-66742452D01*
X82142335Y-66656206D01*
X82142328Y-66656202D01*
X82007482Y-66605908D01*
X82007483Y-66605908D01*
X81947883Y-66599501D01*
X81947881Y-66599500D01*
X81947873Y-66599500D01*
X81947864Y-66599500D01*
X80052129Y-66599500D01*
X80052123Y-66599501D01*
X79992516Y-66605908D01*
X79857671Y-66656202D01*
X79857664Y-66656206D01*
X79742455Y-66742452D01*
X79742452Y-66742455D01*
X79656206Y-66857664D01*
X79656202Y-66857671D01*
X79633391Y-66918833D01*
X79591520Y-66974767D01*
X79526056Y-66999184D01*
X79517209Y-66999500D01*
X78037588Y-66999500D01*
X77970549Y-66979815D01*
X77966465Y-66977075D01*
X77963727Y-66975158D01*
X77812734Y-66869432D01*
X77787513Y-66857671D01*
X77606497Y-66773261D01*
X77606488Y-66773258D01*
X77386697Y-66714366D01*
X77386693Y-66714365D01*
X77386692Y-66714365D01*
X77386691Y-66714364D01*
X77386686Y-66714364D01*
X77160002Y-66694532D01*
X77159998Y-66694532D01*
X76933313Y-66714364D01*
X76933302Y-66714366D01*
X76713511Y-66773258D01*
X76713502Y-66773261D01*
X76507267Y-66869431D01*
X76507265Y-66869432D01*
X76320858Y-66999954D01*
X76159954Y-67160858D01*
X76029432Y-67347265D01*
X76029431Y-67347267D01*
X75933261Y-67553502D01*
X75933258Y-67553511D01*
X75874366Y-67773302D01*
X75874364Y-67773313D01*
X75854532Y-67999998D01*
X75854532Y-68000001D01*
X75874364Y-68226686D01*
X75874366Y-68226697D01*
X75933258Y-68446488D01*
X75933261Y-68446497D01*
X76029431Y-68652732D01*
X76029432Y-68652734D01*
X76159954Y-68839141D01*
X76320858Y-69000045D01*
X76320861Y-69000047D01*
X76507266Y-69130568D01*
X76713504Y-69226739D01*
X76933308Y-69285635D01*
X77095230Y-69299801D01*
X77159998Y-69305468D01*
X77160000Y-69305468D01*
X77160002Y-69305468D01*
X77216673Y-69300509D01*
X77386692Y-69285635D01*
X77606496Y-69226739D01*
X77812734Y-69130568D01*
X77966465Y-69022924D01*
X78032671Y-69000598D01*
X78037588Y-69000500D01*
X79517209Y-69000500D01*
X79584248Y-69020185D01*
X79630003Y-69072989D01*
X79633391Y-69081167D01*
X79656202Y-69142328D01*
X79656206Y-69142335D01*
X79742452Y-69257544D01*
X79742455Y-69257547D01*
X79857664Y-69343793D01*
X79857671Y-69343797D01*
X79992517Y-69394091D01*
X79992516Y-69394091D01*
X79999444Y-69394835D01*
X80052127Y-69400500D01*
X81947872Y-69400499D01*
X82007483Y-69394091D01*
X82142331Y-69343796D01*
X82257546Y-69257546D01*
X82343796Y-69142331D01*
X82348184Y-69130567D01*
X82372455Y-69065493D01*
X82414326Y-69009559D01*
X82479790Y-68985141D01*
X82548063Y-68999992D01*
X82579866Y-69024843D01*
X82585316Y-69030763D01*
X82588215Y-69033912D01*
X82588222Y-69033918D01*
X82771365Y-69176464D01*
X82771371Y-69176468D01*
X82771374Y-69176470D01*
X82975497Y-69286936D01*
X83028017Y-69304966D01*
X83195015Y-69362297D01*
X83195017Y-69362297D01*
X83195019Y-69362298D01*
X83423951Y-69400500D01*
X83423952Y-69400500D01*
X83656048Y-69400500D01*
X83656049Y-69400500D01*
X83884981Y-69362298D01*
X84104503Y-69286936D01*
X84308626Y-69176470D01*
X84491784Y-69033913D01*
X84491800Y-69033895D01*
X84492479Y-69033272D01*
X84492827Y-69033100D01*
X84495830Y-69030763D01*
X84496310Y-69031380D01*
X84555133Y-69002348D01*
X84576464Y-69000500D01*
X84638543Y-69000500D01*
X84737766Y-68980762D01*
X84787379Y-68970894D01*
X84831836Y-68962051D01*
X84885165Y-68939961D01*
X85013914Y-68886632D01*
X85177782Y-68777139D01*
X85317139Y-68637782D01*
X85317139Y-68637780D01*
X85327347Y-68627573D01*
X85327348Y-68627570D01*
X85879547Y-68075372D01*
X85940869Y-68041888D01*
X86010561Y-68046872D01*
X86066494Y-68088744D01*
X86087002Y-68130959D01*
X86109105Y-68213447D01*
X86109106Y-68213450D01*
X86158828Y-68320080D01*
X86202466Y-68413662D01*
X86202468Y-68413666D01*
X86329170Y-68594615D01*
X86329175Y-68594621D01*
X86485378Y-68750824D01*
X86485384Y-68750829D01*
X86666333Y-68877531D01*
X86666335Y-68877532D01*
X86666338Y-68877534D01*
X86785748Y-68933215D01*
X86795189Y-68937618D01*
X86847628Y-68983790D01*
X86866780Y-69050984D01*
X86846564Y-69117865D01*
X86795189Y-69162382D01*
X86666340Y-69222465D01*
X86666338Y-69222466D01*
X86485377Y-69349175D01*
X86329175Y-69505377D01*
X86202466Y-69686338D01*
X86202465Y-69686340D01*
X86109107Y-69886548D01*
X86109104Y-69886554D01*
X86051930Y-70099929D01*
X86051929Y-70099937D01*
X86032677Y-70319997D01*
X86032677Y-70320002D01*
X86051929Y-70540062D01*
X86051930Y-70540070D01*
X86109104Y-70753445D01*
X86109105Y-70753447D01*
X86109106Y-70753450D01*
X86155314Y-70852543D01*
X86202466Y-70953662D01*
X86202468Y-70953666D01*
X86329170Y-71134615D01*
X86329175Y-71134621D01*
X86485378Y-71290824D01*
X86485384Y-71290829D01*
X86666333Y-71417531D01*
X86666335Y-71417532D01*
X86666338Y-71417534D01*
X86704543Y-71435349D01*
X86795189Y-71477618D01*
X86847628Y-71523790D01*
X86866780Y-71590984D01*
X86846564Y-71657865D01*
X86795189Y-71702382D01*
X86666340Y-71762465D01*
X86666338Y-71762466D01*
X86485377Y-71889175D01*
X86329175Y-72045377D01*
X86202466Y-72226338D01*
X86202465Y-72226340D01*
X86109107Y-72426548D01*
X86109104Y-72426554D01*
X86051930Y-72639929D01*
X86051929Y-72639937D01*
X86032677Y-72859997D01*
X86032677Y-72860002D01*
X86051929Y-73080062D01*
X86051930Y-73080070D01*
X86109104Y-73293445D01*
X86109105Y-73293447D01*
X86109106Y-73293450D01*
X86202466Y-73493662D01*
X86202468Y-73493666D01*
X86329170Y-73674615D01*
X86329175Y-73674621D01*
X86485378Y-73830824D01*
X86485384Y-73830829D01*
X86666333Y-73957531D01*
X86666335Y-73957532D01*
X86666338Y-73957534D01*
X86785748Y-74013215D01*
X86795189Y-74017618D01*
X86847628Y-74063790D01*
X86866780Y-74130984D01*
X86846564Y-74197865D01*
X86795189Y-74242382D01*
X86666340Y-74302465D01*
X86666338Y-74302466D01*
X86596691Y-74351233D01*
X86559784Y-74377075D01*
X86493580Y-74399402D01*
X86488663Y-74399500D01*
X84301455Y-74399500D01*
X84204812Y-74418724D01*
X84108167Y-74437947D01*
X84108161Y-74437949D01*
X84054834Y-74460037D01*
X84054834Y-74460038D01*
X84001505Y-74482127D01*
X83926087Y-74513367D01*
X83809822Y-74591052D01*
X83743144Y-74611929D01*
X83720524Y-74610258D01*
X83656050Y-74599500D01*
X83656049Y-74599500D01*
X83423951Y-74599500D01*
X83385550Y-74605908D01*
X83195015Y-74637702D01*
X82975504Y-74713061D01*
X82975495Y-74713064D01*
X82771371Y-74823531D01*
X82771365Y-74823535D01*
X82588222Y-74966081D01*
X82588218Y-74966085D01*
X82579866Y-74975158D01*
X82519979Y-75011148D01*
X82450141Y-75009047D01*
X82392525Y-74969522D01*
X82372455Y-74934507D01*
X82343797Y-74857671D01*
X82343793Y-74857664D01*
X82257547Y-74742455D01*
X82257544Y-74742452D01*
X82142335Y-74656206D01*
X82142328Y-74656202D01*
X82007482Y-74605908D01*
X82007483Y-74605908D01*
X81947883Y-74599501D01*
X81947881Y-74599500D01*
X81947873Y-74599500D01*
X81947864Y-74599500D01*
X80052129Y-74599500D01*
X80052123Y-74599501D01*
X79992516Y-74605908D01*
X79857671Y-74656202D01*
X79857664Y-74656206D01*
X79742455Y-74742452D01*
X79742452Y-74742455D01*
X79656206Y-74857664D01*
X79656202Y-74857671D01*
X79633391Y-74918833D01*
X79591520Y-74974767D01*
X79526056Y-74999184D01*
X79517209Y-74999500D01*
X78037588Y-74999500D01*
X77970549Y-74979815D01*
X77966465Y-74977075D01*
X77963727Y-74975158D01*
X77812734Y-74869432D01*
X77787513Y-74857671D01*
X77606497Y-74773261D01*
X77606488Y-74773258D01*
X77386697Y-74714366D01*
X77386693Y-74714365D01*
X77386692Y-74714365D01*
X77386691Y-74714364D01*
X77386686Y-74714364D01*
X77160002Y-74694532D01*
X77159998Y-74694532D01*
X76933313Y-74714364D01*
X76933302Y-74714366D01*
X76713511Y-74773258D01*
X76713502Y-74773261D01*
X76507267Y-74869431D01*
X76507265Y-74869432D01*
X76320858Y-74999954D01*
X76159954Y-75160858D01*
X76029432Y-75347265D01*
X76029431Y-75347267D01*
X75933261Y-75553502D01*
X75933258Y-75553511D01*
X75874366Y-75773302D01*
X75874364Y-75773313D01*
X75854532Y-75999998D01*
X75854532Y-76000001D01*
X75874364Y-76226686D01*
X75874366Y-76226697D01*
X75933258Y-76446488D01*
X75933261Y-76446497D01*
X76029431Y-76652732D01*
X76029432Y-76652734D01*
X76159954Y-76839141D01*
X76320858Y-77000045D01*
X76320861Y-77000047D01*
X76507266Y-77130568D01*
X76713504Y-77226739D01*
X76933308Y-77285635D01*
X77095230Y-77299801D01*
X77159998Y-77305468D01*
X77160000Y-77305468D01*
X77160002Y-77305468D01*
X77216673Y-77300509D01*
X77386692Y-77285635D01*
X77606496Y-77226739D01*
X77812734Y-77130568D01*
X77966465Y-77022924D01*
X78032671Y-77000598D01*
X78037588Y-77000500D01*
X79517209Y-77000500D01*
X79584248Y-77020185D01*
X79630003Y-77072989D01*
X79633391Y-77081167D01*
X79656202Y-77142328D01*
X79656206Y-77142335D01*
X79742452Y-77257544D01*
X79742455Y-77257547D01*
X79857664Y-77343793D01*
X79857671Y-77343797D01*
X79992517Y-77394091D01*
X79992516Y-77394091D01*
X79999444Y-77394835D01*
X80052127Y-77400500D01*
X81947872Y-77400499D01*
X82007483Y-77394091D01*
X82142331Y-77343796D01*
X82257546Y-77257546D01*
X82343796Y-77142331D01*
X82348184Y-77130567D01*
X82372455Y-77065493D01*
X82414326Y-77009559D01*
X82479790Y-76985141D01*
X82548063Y-76999992D01*
X82579866Y-77024843D01*
X82587302Y-77032920D01*
X82588215Y-77033912D01*
X82588222Y-77033918D01*
X82771365Y-77176464D01*
X82771371Y-77176468D01*
X82771374Y-77176470D01*
X82975497Y-77286936D01*
X83089487Y-77326068D01*
X83195015Y-77362297D01*
X83195017Y-77362297D01*
X83195019Y-77362298D01*
X83423951Y-77400500D01*
X83423952Y-77400500D01*
X83656048Y-77400500D01*
X83656049Y-77400500D01*
X83884981Y-77362298D01*
X84104503Y-77286936D01*
X84308626Y-77176470D01*
X84328685Y-77160858D01*
X84441579Y-77072989D01*
X84491784Y-77033913D01*
X84648979Y-76863153D01*
X84662495Y-76842466D01*
X84714747Y-76762487D01*
X84775924Y-76668849D01*
X84851070Y-76497534D01*
X84861091Y-76474689D01*
X84906047Y-76421204D01*
X84972784Y-76400514D01*
X84974647Y-76400500D01*
X86488662Y-76400500D01*
X86555701Y-76420185D01*
X86559767Y-76422912D01*
X86666338Y-76497534D01*
X86789972Y-76555185D01*
X86795189Y-76557618D01*
X86847628Y-76603790D01*
X86866780Y-76670984D01*
X86846564Y-76737865D01*
X86795189Y-76782382D01*
X86666340Y-76842465D01*
X86666338Y-76842466D01*
X86485377Y-76969175D01*
X86329175Y-77125377D01*
X86202466Y-77306338D01*
X86202465Y-77306340D01*
X86109107Y-77506548D01*
X86109104Y-77506554D01*
X86051930Y-77719929D01*
X86051929Y-77719937D01*
X86032677Y-77939997D01*
X86032677Y-77940002D01*
X86051929Y-78160062D01*
X86051930Y-78160070D01*
X86109104Y-78373445D01*
X86109105Y-78373447D01*
X86109106Y-78373450D01*
X86202466Y-78573662D01*
X86202468Y-78573666D01*
X86329170Y-78754615D01*
X86329175Y-78754621D01*
X86485378Y-78910824D01*
X86485384Y-78910829D01*
X86666333Y-79037531D01*
X86666335Y-79037532D01*
X86666338Y-79037534D01*
X86785748Y-79093215D01*
X86795189Y-79097618D01*
X86847628Y-79143790D01*
X86866780Y-79210984D01*
X86846564Y-79277865D01*
X86795189Y-79322382D01*
X86666340Y-79382465D01*
X86666338Y-79382466D01*
X86485377Y-79509175D01*
X86329175Y-79665377D01*
X86202466Y-79846338D01*
X86202465Y-79846340D01*
X86109107Y-80046548D01*
X86109104Y-80046554D01*
X86051930Y-80259929D01*
X86051929Y-80259937D01*
X86032677Y-80479997D01*
X86032677Y-80480002D01*
X86051929Y-80700062D01*
X86051930Y-80700070D01*
X86109104Y-80913445D01*
X86109105Y-80913447D01*
X86109106Y-80913450D01*
X86202466Y-81113662D01*
X86202468Y-81113666D01*
X86329170Y-81294615D01*
X86329175Y-81294621D01*
X86485378Y-81450824D01*
X86485384Y-81450829D01*
X86666333Y-81577531D01*
X86666335Y-81577532D01*
X86666338Y-81577534D01*
X86795781Y-81637894D01*
X86848220Y-81684066D01*
X86867372Y-81751260D01*
X86847156Y-81818141D01*
X86795781Y-81862658D01*
X86666590Y-81922901D01*
X86601811Y-81968258D01*
X87272553Y-82639000D01*
X87249840Y-82639000D01*
X87152939Y-82664964D01*
X87066060Y-82715124D01*
X86995124Y-82786060D01*
X86944964Y-82872939D01*
X86919000Y-82969840D01*
X86919000Y-82992553D01*
X86248258Y-82321811D01*
X86202901Y-82386590D01*
X86109579Y-82586720D01*
X86109575Y-82586729D01*
X86052426Y-82800013D01*
X86052424Y-82800023D01*
X86033179Y-83019999D01*
X86033179Y-83020000D01*
X86052424Y-83239976D01*
X86052426Y-83239986D01*
X86109575Y-83453270D01*
X86109580Y-83453284D01*
X86202898Y-83653405D01*
X86202901Y-83653411D01*
X86248258Y-83718187D01*
X86248259Y-83718188D01*
X86919000Y-83047447D01*
X86919000Y-83070160D01*
X86944964Y-83167061D01*
X86995124Y-83253940D01*
X87066060Y-83324876D01*
X87152939Y-83375036D01*
X87249840Y-83401000D01*
X87272553Y-83401000D01*
X86601810Y-84071740D01*
X86666589Y-84117098D01*
X86795781Y-84177342D01*
X86848220Y-84223514D01*
X86867372Y-84290708D01*
X86847156Y-84357589D01*
X86795781Y-84402106D01*
X86666340Y-84462465D01*
X86666338Y-84462466D01*
X86623691Y-84492328D01*
X86559784Y-84537075D01*
X86493580Y-84559402D01*
X86488663Y-84559500D01*
X82275783Y-84559500D01*
X82208744Y-84539815D01*
X82188102Y-84523181D01*
X82036818Y-84371897D01*
X82003333Y-84310574D01*
X82000499Y-84284225D01*
X82000499Y-82202128D01*
X81994091Y-82142517D01*
X81943796Y-82007669D01*
X81943795Y-82007668D01*
X81943793Y-82007664D01*
X81857547Y-81892455D01*
X81857544Y-81892452D01*
X81742335Y-81806206D01*
X81742328Y-81806202D01*
X81607482Y-81755908D01*
X81607483Y-81755908D01*
X81547883Y-81749501D01*
X81547881Y-81749500D01*
X81547873Y-81749500D01*
X81547864Y-81749500D01*
X77452129Y-81749500D01*
X77452123Y-81749501D01*
X77392516Y-81755908D01*
X77257671Y-81806202D01*
X77257664Y-81806206D01*
X77142455Y-81892452D01*
X77142452Y-81892455D01*
X77056206Y-82007664D01*
X77056202Y-82007671D01*
X77005908Y-82142517D01*
X76999501Y-82202116D01*
X76999501Y-82202123D01*
X76999500Y-82202135D01*
X76999500Y-84297870D01*
X76999501Y-84297876D01*
X77005908Y-84357483D01*
X77056202Y-84492328D01*
X77056206Y-84492335D01*
X77142452Y-84607544D01*
X77142455Y-84607547D01*
X77257664Y-84693793D01*
X77257671Y-84693797D01*
X77392517Y-84744091D01*
X77392516Y-84744091D01*
X77399444Y-84744835D01*
X77452127Y-84750500D01*
X79534216Y-84750499D01*
X79601255Y-84770184D01*
X79621897Y-84786818D01*
X80338781Y-85503702D01*
X81032860Y-86197781D01*
X81032861Y-86197782D01*
X81150543Y-86315464D01*
X81172219Y-86337140D01*
X81336080Y-86446628D01*
X81336086Y-86446632D01*
X81422791Y-86482546D01*
X81518164Y-86522051D01*
X81711454Y-86560499D01*
X81711457Y-86560500D01*
X81711459Y-86560500D01*
X86488662Y-86560500D01*
X86555701Y-86580185D01*
X86559767Y-86582912D01*
X86666338Y-86657534D01*
X86866550Y-86750894D01*
X87079932Y-86808070D01*
X87237123Y-86821822D01*
X87299998Y-86827323D01*
X87300000Y-86827323D01*
X87300002Y-86827323D01*
X87355017Y-86822509D01*
X87520068Y-86808070D01*
X87733450Y-86750894D01*
X87933662Y-86657534D01*
X88040215Y-86582924D01*
X88106421Y-86560598D01*
X88111338Y-86560500D01*
X109844218Y-86560500D01*
X109911257Y-86580185D01*
X109931899Y-86596819D01*
X116613181Y-93278101D01*
X116646666Y-93339424D01*
X116649500Y-93365782D01*
X116649500Y-93481286D01*
X116662062Y-93560603D01*
X116682754Y-93691243D01*
X116735162Y-93852538D01*
X116748444Y-93893414D01*
X116844951Y-94082820D01*
X116969890Y-94254786D01*
X117120213Y-94405109D01*
X117292179Y-94530048D01*
X117292181Y-94530049D01*
X117292184Y-94530051D01*
X117481588Y-94626557D01*
X117683757Y-94692246D01*
X117893713Y-94725500D01*
X117893714Y-94725500D01*
X118106286Y-94725500D01*
X118106287Y-94725500D01*
X118316243Y-94692246D01*
X118518412Y-94626557D01*
X118707816Y-94530051D01*
X118729789Y-94514086D01*
X118879786Y-94405109D01*
X118879788Y-94405106D01*
X118879792Y-94405104D01*
X119030104Y-94254792D01*
X119149991Y-94089779D01*
X119205320Y-94047115D01*
X119274933Y-94041136D01*
X119336729Y-94073741D01*
X119350627Y-94089781D01*
X119470272Y-94254459D01*
X119470276Y-94254464D01*
X119620535Y-94404723D01*
X119620540Y-94404727D01*
X119792442Y-94529620D01*
X119981782Y-94626095D01*
X120183871Y-94691757D01*
X120250000Y-94702231D01*
X120250000Y-93654145D01*
X120316657Y-93692630D01*
X120437465Y-93725000D01*
X120562535Y-93725000D01*
X120683343Y-93692630D01*
X120750000Y-93654145D01*
X120750000Y-94702230D01*
X120816126Y-94691757D01*
X120816129Y-94691757D01*
X121018217Y-94626095D01*
X121207557Y-94529620D01*
X121379458Y-94404728D01*
X121518330Y-94265856D01*
X121579653Y-94232371D01*
X121649345Y-94237355D01*
X121705279Y-94279226D01*
X121711551Y-94288440D01*
X121715185Y-94294331D01*
X121715186Y-94294334D01*
X121807288Y-94443656D01*
X121931344Y-94567712D01*
X122080666Y-94659814D01*
X122247203Y-94714999D01*
X122349991Y-94725500D01*
X123650008Y-94725499D01*
X123752797Y-94714999D01*
X123919334Y-94659814D01*
X124068656Y-94567712D01*
X124192712Y-94443656D01*
X124284814Y-94294334D01*
X124339999Y-94127797D01*
X124350500Y-94025009D01*
X124350499Y-93365780D01*
X124370183Y-93298742D01*
X124386813Y-93278105D01*
X127287819Y-90377102D01*
X127349142Y-90343617D01*
X127418834Y-90348601D01*
X127474767Y-90390473D01*
X127499184Y-90455937D01*
X127499500Y-90464783D01*
X127499500Y-95375500D01*
X127479815Y-95442539D01*
X127427011Y-95488294D01*
X127375500Y-95499500D01*
X69798294Y-95499500D01*
X69731255Y-95479815D01*
X69685500Y-95427011D01*
X69675556Y-95357853D01*
X69704581Y-95294297D01*
X69741999Y-95265015D01*
X69852543Y-95208689D01*
X70177783Y-94997476D01*
X70177785Y-94997475D01*
X70435349Y-94788902D01*
X68940698Y-93294251D01*
X69042330Y-93220412D01*
X69220412Y-93042330D01*
X69294251Y-92940698D01*
X70788902Y-94435349D01*
X70997475Y-94177785D01*
X70997476Y-94177783D01*
X71208689Y-93852543D01*
X71384755Y-93506994D01*
X71523737Y-93144936D01*
X71624112Y-92770330D01*
X71624113Y-92770323D01*
X71684780Y-92387287D01*
X71705078Y-92000000D01*
X71705078Y-91999999D01*
X71684780Y-91612712D01*
X71624113Y-91229676D01*
X71624112Y-91229669D01*
X71523737Y-90855063D01*
X71384755Y-90493005D01*
X71208689Y-90147456D01*
X70997468Y-89822206D01*
X70788904Y-89564649D01*
X70788903Y-89564648D01*
X69294251Y-91059300D01*
X69220412Y-90957670D01*
X69042330Y-90779588D01*
X68940698Y-90705748D01*
X70264544Y-89381902D01*
X73499500Y-89381902D01*
X73499500Y-91118097D01*
X73536446Y-91351368D01*
X73609433Y-91575996D01*
X73692071Y-91738181D01*
X73716657Y-91786433D01*
X73855483Y-91977510D01*
X74022490Y-92144517D01*
X74213567Y-92283343D01*
X74312991Y-92334002D01*
X74424003Y-92390566D01*
X74424005Y-92390566D01*
X74424008Y-92390568D01*
X74533847Y-92426257D01*
X74648631Y-92463553D01*
X74881903Y-92500500D01*
X74881908Y-92500500D01*
X75118097Y-92500500D01*
X75351368Y-92463553D01*
X75365802Y-92458863D01*
X75575992Y-92390568D01*
X75786433Y-92283343D01*
X75974739Y-92146530D01*
X78449500Y-92146530D01*
X78449500Y-92353469D01*
X78489868Y-92556412D01*
X78489870Y-92556420D01*
X78569059Y-92747598D01*
X78608997Y-92807370D01*
X78684024Y-92919657D01*
X78830342Y-93065975D01*
X78830345Y-93065977D01*
X79002402Y-93180941D01*
X79193580Y-93260130D01*
X79387697Y-93298742D01*
X79396530Y-93300499D01*
X79396534Y-93300500D01*
X79396535Y-93300500D01*
X79603466Y-93300500D01*
X79603467Y-93300499D01*
X79806420Y-93260130D01*
X79997598Y-93180941D01*
X80169655Y-93065977D01*
X80315977Y-92919655D01*
X80430941Y-92747598D01*
X80510130Y-92556420D01*
X80550500Y-92353465D01*
X80550500Y-92146535D01*
X80510130Y-91943580D01*
X80430941Y-91752402D01*
X80315977Y-91580345D01*
X80315975Y-91580342D01*
X80169657Y-91434024D01*
X80045952Y-91351368D01*
X79997598Y-91319059D01*
X79806420Y-91239870D01*
X79806412Y-91239868D01*
X79603469Y-91199500D01*
X79603465Y-91199500D01*
X79396535Y-91199500D01*
X79396530Y-91199500D01*
X79193587Y-91239868D01*
X79193579Y-91239870D01*
X79002403Y-91319058D01*
X78830342Y-91434024D01*
X78684024Y-91580342D01*
X78569058Y-91752403D01*
X78489870Y-91943579D01*
X78489868Y-91943587D01*
X78449500Y-92146530D01*
X75974739Y-92146530D01*
X75977510Y-92144517D01*
X76144517Y-91977510D01*
X76283343Y-91786433D01*
X76390568Y-91575992D01*
X76463553Y-91351368D01*
X76468670Y-91319058D01*
X76500500Y-91118097D01*
X76500500Y-89381902D01*
X76463553Y-89148631D01*
X76415259Y-89000000D01*
X77370898Y-89000000D01*
X78416988Y-89000000D01*
X78384075Y-89057007D01*
X78350000Y-89184174D01*
X78350000Y-89315826D01*
X78384075Y-89442993D01*
X78416988Y-89500000D01*
X77370898Y-89500000D01*
X77386934Y-89601247D01*
X77459897Y-89825802D01*
X77567085Y-90036171D01*
X77705866Y-90227186D01*
X77872813Y-90394133D01*
X78063828Y-90532914D01*
X78274197Y-90640102D01*
X78498752Y-90713065D01*
X78498751Y-90713065D01*
X78731948Y-90750000D01*
X79250000Y-90750000D01*
X79250000Y-89750000D01*
X79750000Y-89750000D01*
X79750000Y-90750000D01*
X80268052Y-90750000D01*
X80501247Y-90713065D01*
X80725802Y-90640102D01*
X80936171Y-90532914D01*
X81127186Y-90394133D01*
X81294133Y-90227186D01*
X81432914Y-90036171D01*
X81540102Y-89825802D01*
X81613065Y-89601247D01*
X81629102Y-89500000D01*
X80583012Y-89500000D01*
X80615925Y-89442993D01*
X80632295Y-89381902D01*
X82499500Y-89381902D01*
X82499500Y-91118097D01*
X82536446Y-91351368D01*
X82609433Y-91575996D01*
X82692071Y-91738181D01*
X82716657Y-91786433D01*
X82855483Y-91977510D01*
X83022490Y-92144517D01*
X83213567Y-92283343D01*
X83312991Y-92334002D01*
X83424003Y-92390566D01*
X83424005Y-92390566D01*
X83424008Y-92390568D01*
X83533847Y-92426257D01*
X83648631Y-92463553D01*
X83881903Y-92500500D01*
X83881908Y-92500500D01*
X84118097Y-92500500D01*
X84351368Y-92463553D01*
X84365802Y-92458863D01*
X84575992Y-92390568D01*
X84786433Y-92283343D01*
X84977510Y-92144517D01*
X85144517Y-91977510D01*
X85283343Y-91786433D01*
X85390568Y-91575992D01*
X85463553Y-91351368D01*
X85468670Y-91319058D01*
X85500500Y-91118097D01*
X85500500Y-89381902D01*
X85463553Y-89148631D01*
X85415259Y-89000000D01*
X85390568Y-88924008D01*
X85390566Y-88924005D01*
X85390566Y-88924003D01*
X85322955Y-88791310D01*
X85283343Y-88713567D01*
X85144517Y-88522490D01*
X84977510Y-88355483D01*
X84786433Y-88216657D01*
X84575996Y-88109433D01*
X84351368Y-88036446D01*
X84118097Y-87999500D01*
X84118092Y-87999500D01*
X83881908Y-87999500D01*
X83881903Y-87999500D01*
X83648631Y-88036446D01*
X83424003Y-88109433D01*
X83213566Y-88216657D01*
X83136275Y-88272813D01*
X83022490Y-88355483D01*
X83022488Y-88355485D01*
X83022487Y-88355485D01*
X82855485Y-88522487D01*
X82855485Y-88522488D01*
X82855483Y-88522490D01*
X82795862Y-88604550D01*
X82716657Y-88713566D01*
X82609433Y-88924003D01*
X82536446Y-89148631D01*
X82499500Y-89381902D01*
X80632295Y-89381902D01*
X80650000Y-89315826D01*
X80650000Y-89184174D01*
X80615925Y-89057007D01*
X80583012Y-89000000D01*
X81629102Y-89000000D01*
X81613065Y-88898752D01*
X81540102Y-88674197D01*
X81432914Y-88463828D01*
X81294133Y-88272813D01*
X81127186Y-88105866D01*
X80936171Y-87967085D01*
X80725802Y-87859897D01*
X80501247Y-87786934D01*
X80501248Y-87786934D01*
X80268052Y-87750000D01*
X79750000Y-87750000D01*
X79750000Y-88750000D01*
X79250000Y-88750000D01*
X79250000Y-87750000D01*
X78731948Y-87750000D01*
X78498752Y-87786934D01*
X78274197Y-87859897D01*
X78063828Y-87967085D01*
X77872813Y-88105866D01*
X77705866Y-88272813D01*
X77567085Y-88463828D01*
X77459897Y-88674197D01*
X77386934Y-88898752D01*
X77370898Y-89000000D01*
X76415259Y-89000000D01*
X76390568Y-88924008D01*
X76390566Y-88924005D01*
X76390566Y-88924003D01*
X76322955Y-88791310D01*
X76283343Y-88713567D01*
X76144517Y-88522490D01*
X75977510Y-88355483D01*
X75786433Y-88216657D01*
X75575996Y-88109433D01*
X75351368Y-88036446D01*
X75118097Y-87999500D01*
X75118092Y-87999500D01*
X74881908Y-87999500D01*
X74881903Y-87999500D01*
X74648631Y-88036446D01*
X74424003Y-88109433D01*
X74213566Y-88216657D01*
X74136275Y-88272813D01*
X74022490Y-88355483D01*
X74022488Y-88355485D01*
X74022487Y-88355485D01*
X73855485Y-88522487D01*
X73855485Y-88522488D01*
X73855483Y-88522490D01*
X73795862Y-88604550D01*
X73716657Y-88713566D01*
X73609433Y-88924003D01*
X73536446Y-89148631D01*
X73499500Y-89381902D01*
X70264544Y-89381902D01*
X70435350Y-89211096D01*
X70435350Y-89211095D01*
X70177793Y-89002531D01*
X69852543Y-88791310D01*
X69506994Y-88615244D01*
X69144936Y-88476262D01*
X68770330Y-88375887D01*
X68770323Y-88375886D01*
X68387287Y-88315219D01*
X68000001Y-88294922D01*
X67999999Y-88294922D01*
X67612712Y-88315219D01*
X67229676Y-88375886D01*
X67229669Y-88375887D01*
X66855063Y-88476262D01*
X66493005Y-88615244D01*
X66147456Y-88791310D01*
X65822206Y-89002531D01*
X65564648Y-89211095D01*
X65564648Y-89211096D01*
X67059301Y-90705748D01*
X66957670Y-90779588D01*
X66779588Y-90957670D01*
X66705748Y-91059300D01*
X65211096Y-89564648D01*
X65211095Y-89564648D01*
X65002531Y-89822206D01*
X64791310Y-90147456D01*
X64734985Y-90258001D01*
X64687010Y-90308797D01*
X64619189Y-90325592D01*
X64553055Y-90303055D01*
X64509603Y-90248340D01*
X64500500Y-90201706D01*
X64500500Y-75999997D01*
X65695034Y-75999997D01*
X65695034Y-76000002D01*
X65714858Y-76226599D01*
X65714860Y-76226610D01*
X65773730Y-76446317D01*
X65773735Y-76446331D01*
X65869863Y-76652478D01*
X65920974Y-76725472D01*
X66600000Y-76046446D01*
X66600000Y-76052661D01*
X66627259Y-76154394D01*
X66679920Y-76245606D01*
X66754394Y-76320080D01*
X66845606Y-76372741D01*
X66947339Y-76400000D01*
X66953553Y-76400000D01*
X66274526Y-77079025D01*
X66347513Y-77130132D01*
X66347521Y-77130136D01*
X66553668Y-77226264D01*
X66553682Y-77226269D01*
X66773389Y-77285139D01*
X66773400Y-77285141D01*
X66999998Y-77304966D01*
X67000002Y-77304966D01*
X67226599Y-77285141D01*
X67226610Y-77285139D01*
X67446317Y-77226269D01*
X67446331Y-77226264D01*
X67652478Y-77130136D01*
X67725471Y-77079024D01*
X67046447Y-76400000D01*
X67052661Y-76400000D01*
X67154394Y-76372741D01*
X67245606Y-76320080D01*
X67320080Y-76245606D01*
X67372741Y-76154394D01*
X67400000Y-76052661D01*
X67400000Y-76046447D01*
X68079024Y-76725471D01*
X68130136Y-76652478D01*
X68226264Y-76446331D01*
X68226269Y-76446317D01*
X68285139Y-76226610D01*
X68285141Y-76226599D01*
X68304966Y-76000002D01*
X68304966Y-75999997D01*
X68285141Y-75773400D01*
X68285139Y-75773389D01*
X68226269Y-75553682D01*
X68226264Y-75553668D01*
X68130136Y-75347521D01*
X68130132Y-75347513D01*
X68079025Y-75274526D01*
X67400000Y-75953551D01*
X67400000Y-75947339D01*
X67372741Y-75845606D01*
X67320080Y-75754394D01*
X67245606Y-75679920D01*
X67154394Y-75627259D01*
X67052661Y-75600000D01*
X67046448Y-75600000D01*
X67725472Y-74920974D01*
X67652478Y-74869863D01*
X67446331Y-74773735D01*
X67446317Y-74773730D01*
X67226610Y-74714860D01*
X67226599Y-74714858D01*
X67000002Y-74695034D01*
X66999998Y-74695034D01*
X66773400Y-74714858D01*
X66773389Y-74714860D01*
X66553682Y-74773730D01*
X66553673Y-74773734D01*
X66347516Y-74869866D01*
X66347512Y-74869868D01*
X66274526Y-74920973D01*
X66274526Y-74920974D01*
X66953553Y-75600000D01*
X66947339Y-75600000D01*
X66845606Y-75627259D01*
X66754394Y-75679920D01*
X66679920Y-75754394D01*
X66627259Y-75845606D01*
X66600000Y-75947339D01*
X66600000Y-75953552D01*
X65920974Y-75274526D01*
X65920973Y-75274526D01*
X65869868Y-75347512D01*
X65869866Y-75347516D01*
X65773734Y-75553673D01*
X65773730Y-75553682D01*
X65714860Y-75773389D01*
X65714858Y-75773400D01*
X65695034Y-75999997D01*
X64500500Y-75999997D01*
X64500500Y-67999997D01*
X65695034Y-67999997D01*
X65695034Y-68000002D01*
X65714858Y-68226599D01*
X65714860Y-68226610D01*
X65773730Y-68446317D01*
X65773735Y-68446331D01*
X65869863Y-68652478D01*
X65920974Y-68725472D01*
X66600000Y-68046446D01*
X66600000Y-68052661D01*
X66627259Y-68154394D01*
X66679920Y-68245606D01*
X66754394Y-68320080D01*
X66845606Y-68372741D01*
X66947339Y-68400000D01*
X66953553Y-68400000D01*
X66274526Y-69079025D01*
X66347513Y-69130132D01*
X66347521Y-69130136D01*
X66553668Y-69226264D01*
X66553682Y-69226269D01*
X66773389Y-69285139D01*
X66773400Y-69285141D01*
X66999998Y-69304966D01*
X67000002Y-69304966D01*
X67226599Y-69285141D01*
X67226610Y-69285139D01*
X67446317Y-69226269D01*
X67446331Y-69226264D01*
X67652478Y-69130136D01*
X67725471Y-69079024D01*
X67046447Y-68400000D01*
X67052661Y-68400000D01*
X67154394Y-68372741D01*
X67245606Y-68320080D01*
X67320080Y-68245606D01*
X67372741Y-68154394D01*
X67400000Y-68052661D01*
X67400000Y-68046447D01*
X68079024Y-68725471D01*
X68130136Y-68652478D01*
X68226264Y-68446331D01*
X68226269Y-68446317D01*
X68285139Y-68226610D01*
X68285141Y-68226599D01*
X68304966Y-68000002D01*
X68304966Y-67999997D01*
X68285141Y-67773400D01*
X68285139Y-67773389D01*
X68226269Y-67553682D01*
X68226264Y-67553668D01*
X68130136Y-67347521D01*
X68130132Y-67347513D01*
X68079025Y-67274526D01*
X67400000Y-67953551D01*
X67400000Y-67947339D01*
X67372741Y-67845606D01*
X67320080Y-67754394D01*
X67245606Y-67679920D01*
X67154394Y-67627259D01*
X67052661Y-67600000D01*
X67046448Y-67600000D01*
X67725472Y-66920974D01*
X67652478Y-66869863D01*
X67446331Y-66773735D01*
X67446317Y-66773730D01*
X67226610Y-66714860D01*
X67226599Y-66714858D01*
X67000002Y-66695034D01*
X66999998Y-66695034D01*
X66773400Y-66714858D01*
X66773389Y-66714860D01*
X66553682Y-66773730D01*
X66553673Y-66773734D01*
X66347516Y-66869866D01*
X66347512Y-66869868D01*
X66274526Y-66920973D01*
X66274526Y-66920974D01*
X66953553Y-67600000D01*
X66947339Y-67600000D01*
X66845606Y-67627259D01*
X66754394Y-67679920D01*
X66679920Y-67754394D01*
X66627259Y-67845606D01*
X66600000Y-67947339D01*
X66600000Y-67953552D01*
X65920974Y-67274526D01*
X65920973Y-67274526D01*
X65869868Y-67347512D01*
X65869866Y-67347516D01*
X65773734Y-67553673D01*
X65773730Y-67553682D01*
X65714860Y-67773389D01*
X65714858Y-67773400D01*
X65695034Y-67999997D01*
X64500500Y-67999997D01*
X64500500Y-59999997D01*
X65695034Y-59999997D01*
X65695034Y-60000002D01*
X65714858Y-60226599D01*
X65714860Y-60226610D01*
X65773730Y-60446317D01*
X65773735Y-60446331D01*
X65869863Y-60652478D01*
X65920974Y-60725472D01*
X66600000Y-60046446D01*
X66600000Y-60052661D01*
X66627259Y-60154394D01*
X66679920Y-60245606D01*
X66754394Y-60320080D01*
X66845606Y-60372741D01*
X66947339Y-60400000D01*
X66953553Y-60400000D01*
X66274526Y-61079025D01*
X66347513Y-61130132D01*
X66347521Y-61130136D01*
X66553668Y-61226264D01*
X66553682Y-61226269D01*
X66773389Y-61285139D01*
X66773400Y-61285141D01*
X66999998Y-61304966D01*
X67000002Y-61304966D01*
X67226599Y-61285141D01*
X67226610Y-61285139D01*
X67446317Y-61226269D01*
X67446331Y-61226264D01*
X67652478Y-61130136D01*
X67725471Y-61079024D01*
X67046447Y-60400000D01*
X67052661Y-60400000D01*
X67154394Y-60372741D01*
X67245606Y-60320080D01*
X67320080Y-60245606D01*
X67372741Y-60154394D01*
X67400000Y-60052661D01*
X67400000Y-60046447D01*
X68079024Y-60725471D01*
X68130136Y-60652478D01*
X68226264Y-60446331D01*
X68226269Y-60446317D01*
X68285139Y-60226610D01*
X68285141Y-60226599D01*
X68304966Y-60000002D01*
X68304966Y-59999997D01*
X68285141Y-59773400D01*
X68285139Y-59773389D01*
X68226269Y-59553682D01*
X68226264Y-59553668D01*
X68130136Y-59347521D01*
X68130132Y-59347513D01*
X68079025Y-59274526D01*
X67400000Y-59953551D01*
X67400000Y-59947339D01*
X67372741Y-59845606D01*
X67320080Y-59754394D01*
X67245606Y-59679920D01*
X67154394Y-59627259D01*
X67052661Y-59600000D01*
X67046448Y-59600000D01*
X67725472Y-58920974D01*
X67652478Y-58869863D01*
X67446331Y-58773735D01*
X67446317Y-58773730D01*
X67226610Y-58714860D01*
X67226599Y-58714858D01*
X67000002Y-58695034D01*
X66999998Y-58695034D01*
X66773400Y-58714858D01*
X66773389Y-58714860D01*
X66553682Y-58773730D01*
X66553673Y-58773734D01*
X66347516Y-58869866D01*
X66347512Y-58869868D01*
X66274526Y-58920973D01*
X66274526Y-58920974D01*
X66953553Y-59600000D01*
X66947339Y-59600000D01*
X66845606Y-59627259D01*
X66754394Y-59679920D01*
X66679920Y-59754394D01*
X66627259Y-59845606D01*
X66600000Y-59947339D01*
X66600000Y-59953552D01*
X65920974Y-59274526D01*
X65920973Y-59274526D01*
X65869868Y-59347512D01*
X65869866Y-59347516D01*
X65773734Y-59553673D01*
X65773730Y-59553682D01*
X65714860Y-59773389D01*
X65714858Y-59773400D01*
X65695034Y-59999997D01*
X64500500Y-59999997D01*
X64500500Y-54798293D01*
X64520185Y-54731254D01*
X64572989Y-54685499D01*
X64642147Y-54675555D01*
X64705703Y-54704580D01*
X64734985Y-54741999D01*
X64791307Y-54852538D01*
X64791308Y-54852541D01*
X65002531Y-55177793D01*
X65211095Y-55435350D01*
X65211096Y-55435350D01*
X66705748Y-53940698D01*
X66779588Y-54042330D01*
X66957670Y-54220412D01*
X67059300Y-54294251D01*
X65564648Y-55788903D01*
X65564649Y-55788904D01*
X65822206Y-55997468D01*
X66147456Y-56208689D01*
X66493005Y-56384755D01*
X66855063Y-56523737D01*
X67229669Y-56624112D01*
X67229676Y-56624113D01*
X67612712Y-56684780D01*
X67999999Y-56705078D01*
X68000001Y-56705078D01*
X68387287Y-56684780D01*
X68770323Y-56624113D01*
X68770330Y-56624112D01*
X69144936Y-56523737D01*
X69506994Y-56384755D01*
X69852543Y-56208689D01*
X70177783Y-55997476D01*
X70177785Y-55997475D01*
X70435349Y-55788902D01*
X68940698Y-54294251D01*
X69042330Y-54220412D01*
X69220412Y-54042330D01*
X69294251Y-53940698D01*
X70788902Y-55435349D01*
X70997475Y-55177785D01*
X70997476Y-55177783D01*
X71208689Y-54852543D01*
X71384755Y-54506994D01*
X71523737Y-54144936D01*
X71624112Y-53770330D01*
X71624113Y-53770323D01*
X71684780Y-53387287D01*
X71705078Y-53000000D01*
X71705078Y-52999999D01*
X71684780Y-52612712D01*
X71624113Y-52229676D01*
X71624112Y-52229669D01*
X71523737Y-51855063D01*
X71384755Y-51493005D01*
X71208689Y-51147456D01*
X70997468Y-50822206D01*
X70788904Y-50564649D01*
X70788903Y-50564648D01*
X69294251Y-52059300D01*
X69220412Y-51957670D01*
X69042330Y-51779588D01*
X68940698Y-51705748D01*
X70435350Y-50211096D01*
X70435350Y-50211095D01*
X70177793Y-50002531D01*
X69852543Y-49791310D01*
X69506994Y-49615244D01*
X69144936Y-49476262D01*
X68770330Y-49375887D01*
X68770323Y-49375886D01*
X68387287Y-49315219D01*
X68000001Y-49294922D01*
X67999999Y-49294922D01*
X67612712Y-49315219D01*
X67229676Y-49375886D01*
X67229669Y-49375887D01*
X66855063Y-49476262D01*
X66493005Y-49615244D01*
X66147456Y-49791310D01*
X65822206Y-50002531D01*
X65564648Y-50211095D01*
X65564648Y-50211096D01*
X67059301Y-51705748D01*
X66957670Y-51779588D01*
X66779588Y-51957670D01*
X66705748Y-52059300D01*
X65211096Y-50564648D01*
X65211095Y-50564648D01*
X65002531Y-50822206D01*
X64791310Y-51147456D01*
X64734985Y-51258001D01*
X64687010Y-51308797D01*
X64619189Y-51325592D01*
X64553055Y-51303055D01*
X64509603Y-51248340D01*
X64500500Y-51201706D01*
X64500500Y-42624500D01*
X64520185Y-42557461D01*
X64572989Y-42511706D01*
X64624500Y-42500500D01*
X127375500Y-42500500D01*
X127442539Y-42520185D01*
G37*
%TD.AperFunction*%
%TA.AperFunction,Conductor*%
G36*
X114152777Y-70085333D02*
G01*
X114167733Y-70098086D01*
X122963181Y-78893534D01*
X122996666Y-78954857D01*
X122999500Y-78981215D01*
X122999500Y-83250500D01*
X122979815Y-83317539D01*
X122927011Y-83363294D01*
X122875502Y-83374500D01*
X122827131Y-83374500D01*
X122827123Y-83374501D01*
X122767516Y-83380908D01*
X122632671Y-83431202D01*
X122632664Y-83431206D01*
X122517455Y-83517452D01*
X122517452Y-83517455D01*
X122431206Y-83632664D01*
X122431202Y-83632671D01*
X122380908Y-83767517D01*
X122374501Y-83827116D01*
X122374500Y-83827135D01*
X122374500Y-86172870D01*
X122374501Y-86172876D01*
X122380908Y-86232483D01*
X122431202Y-86367328D01*
X122431206Y-86367335D01*
X122517452Y-86482544D01*
X122517454Y-86482546D01*
X122632664Y-86568793D01*
X122632671Y-86568797D01*
X122767517Y-86619091D01*
X122767516Y-86619091D01*
X122774444Y-86619835D01*
X122827127Y-86625500D01*
X125172872Y-86625499D01*
X125232483Y-86619091D01*
X125367331Y-86568796D01*
X125461189Y-86498533D01*
X125526653Y-86474116D01*
X125594926Y-86488967D01*
X125644332Y-86538372D01*
X125659500Y-86597800D01*
X125659500Y-89124217D01*
X125639815Y-89191256D01*
X125623181Y-89211898D01*
X123096897Y-91738181D01*
X123035574Y-91771666D01*
X123009216Y-91774500D01*
X122349998Y-91774500D01*
X122349980Y-91774501D01*
X122247203Y-91785000D01*
X122247200Y-91785001D01*
X122080668Y-91840185D01*
X122080663Y-91840187D01*
X121931342Y-91932289D01*
X121807289Y-92056342D01*
X121711551Y-92211559D01*
X121659603Y-92258283D01*
X121590640Y-92269506D01*
X121526558Y-92241662D01*
X121518331Y-92234143D01*
X121379464Y-92095276D01*
X121379459Y-92095272D01*
X121207557Y-91970379D01*
X121018215Y-91873903D01*
X120816124Y-91808241D01*
X120750000Y-91797768D01*
X120750000Y-92845854D01*
X120683343Y-92807370D01*
X120562535Y-92775000D01*
X120437465Y-92775000D01*
X120316657Y-92807370D01*
X120250000Y-92845854D01*
X120250000Y-91797768D01*
X120249999Y-91797768D01*
X120183875Y-91808241D01*
X119981784Y-91873903D01*
X119792442Y-91970379D01*
X119620540Y-92095272D01*
X119620535Y-92095276D01*
X119470276Y-92245535D01*
X119470272Y-92245540D01*
X119350627Y-92410218D01*
X119295297Y-92452884D01*
X119225684Y-92458863D01*
X119163889Y-92426257D01*
X119149991Y-92410218D01*
X119030109Y-92245214D01*
X119030105Y-92245209D01*
X118879786Y-92094890D01*
X118707820Y-91969951D01*
X118518414Y-91873444D01*
X118518413Y-91873443D01*
X118518412Y-91873443D01*
X118316243Y-91807754D01*
X118316241Y-91807753D01*
X118316240Y-91807753D01*
X118154957Y-91782208D01*
X118106287Y-91774500D01*
X118106286Y-91774500D01*
X117990783Y-91774500D01*
X117923744Y-91754815D01*
X117903102Y-91738181D01*
X115546823Y-89381902D01*
X113110246Y-86945326D01*
X113076762Y-86884004D01*
X113081746Y-86814312D01*
X113123618Y-86758379D01*
X113145524Y-86745264D01*
X113177206Y-86730490D01*
X113333662Y-86657534D01*
X113514620Y-86530826D01*
X113670826Y-86374620D01*
X113797534Y-86193662D01*
X113890894Y-85993450D01*
X113948070Y-85780068D01*
X113967323Y-85560000D01*
X113962501Y-85504888D01*
X113960103Y-85477474D01*
X113948070Y-85339932D01*
X113890894Y-85126550D01*
X113831883Y-85000000D01*
X115869975Y-85000000D01*
X115890042Y-85254989D01*
X115949752Y-85503702D01*
X116047634Y-85740012D01*
X116047636Y-85740015D01*
X116181277Y-85958098D01*
X116181284Y-85958107D01*
X116184533Y-85961912D01*
X116898958Y-85247487D01*
X116923978Y-85307890D01*
X116995112Y-85414351D01*
X117085649Y-85504888D01*
X117192110Y-85576022D01*
X117252511Y-85601041D01*
X116538087Y-86315465D01*
X116541897Y-86318719D01*
X116759984Y-86452363D01*
X116759987Y-86452365D01*
X116996297Y-86550247D01*
X117245011Y-86609957D01*
X117245010Y-86609957D01*
X117500000Y-86630024D01*
X117754989Y-86609957D01*
X118003702Y-86550247D01*
X118240012Y-86452365D01*
X118240015Y-86452363D01*
X118458095Y-86318724D01*
X118458110Y-86318713D01*
X118461911Y-86315466D01*
X118461911Y-86315464D01*
X117747489Y-85601041D01*
X117807890Y-85576022D01*
X117914351Y-85504888D01*
X118004888Y-85414351D01*
X118076022Y-85307890D01*
X118101041Y-85247488D01*
X118815464Y-85961911D01*
X118815466Y-85961911D01*
X118818713Y-85958110D01*
X118818724Y-85958095D01*
X118952363Y-85740015D01*
X118952365Y-85740012D01*
X119050247Y-85503702D01*
X119109957Y-85254989D01*
X119130024Y-85000000D01*
X119109957Y-84745010D01*
X119050247Y-84496297D01*
X118952365Y-84259987D01*
X118952363Y-84259984D01*
X118818719Y-84041897D01*
X118815465Y-84038087D01*
X118101041Y-84752511D01*
X118076022Y-84692110D01*
X118004888Y-84585649D01*
X117914351Y-84495112D01*
X117807890Y-84423978D01*
X117747488Y-84398958D01*
X118461912Y-83684533D01*
X118458107Y-83681284D01*
X118458098Y-83681277D01*
X118240015Y-83547636D01*
X118240012Y-83547634D01*
X118003702Y-83449752D01*
X117754988Y-83390042D01*
X117754989Y-83390042D01*
X117500000Y-83369975D01*
X117245010Y-83390042D01*
X116996297Y-83449752D01*
X116759987Y-83547634D01*
X116759984Y-83547636D01*
X116541893Y-83681282D01*
X116538086Y-83684532D01*
X117252512Y-84398958D01*
X117192110Y-84423978D01*
X117085649Y-84495112D01*
X116995112Y-84585649D01*
X116923978Y-84692110D01*
X116898958Y-84752511D01*
X116184532Y-84038086D01*
X116181282Y-84041893D01*
X116047636Y-84259984D01*
X116047634Y-84259987D01*
X115949752Y-84496297D01*
X115890042Y-84745010D01*
X115869975Y-85000000D01*
X113831883Y-85000000D01*
X113797534Y-84926339D01*
X113674411Y-84750500D01*
X113670827Y-84745381D01*
X113598812Y-84673366D01*
X113514620Y-84589174D01*
X113514616Y-84589171D01*
X113514615Y-84589170D01*
X113333666Y-84462468D01*
X113333662Y-84462466D01*
X113204218Y-84402105D01*
X113151779Y-84355932D01*
X113132627Y-84288739D01*
X113152843Y-84221858D01*
X113204219Y-84177340D01*
X113333416Y-84117095D01*
X113333417Y-84117094D01*
X113398188Y-84071741D01*
X112727448Y-83401000D01*
X112750160Y-83401000D01*
X112847061Y-83375036D01*
X112933940Y-83324876D01*
X113004876Y-83253940D01*
X113055036Y-83167061D01*
X113081000Y-83070160D01*
X113081000Y-83047447D01*
X113751741Y-83718188D01*
X113797094Y-83653417D01*
X113797100Y-83653407D01*
X113890419Y-83453284D01*
X113890424Y-83453270D01*
X113947573Y-83239986D01*
X113947575Y-83239976D01*
X113966821Y-83020000D01*
X113966821Y-83019999D01*
X113947575Y-82800023D01*
X113947573Y-82800013D01*
X113890424Y-82586729D01*
X113890420Y-82586720D01*
X113797096Y-82386586D01*
X113751741Y-82321811D01*
X113751740Y-82321810D01*
X113081000Y-82992551D01*
X113081000Y-82969840D01*
X113055036Y-82872939D01*
X113004876Y-82786060D01*
X112933940Y-82715124D01*
X112847061Y-82664964D01*
X112750160Y-82639000D01*
X112727448Y-82639000D01*
X113398188Y-81968259D01*
X113398187Y-81968258D01*
X113333411Y-81922901D01*
X113333405Y-81922898D01*
X113204219Y-81862658D01*
X113151779Y-81816486D01*
X113132627Y-81749293D01*
X113152843Y-81682411D01*
X113204219Y-81637894D01*
X113333662Y-81577534D01*
X113514620Y-81450826D01*
X113670826Y-81294620D01*
X113797534Y-81113662D01*
X113890894Y-80913450D01*
X113948070Y-80700068D01*
X113967323Y-80480000D01*
X113948070Y-80259932D01*
X113890894Y-80046550D01*
X113797534Y-79846339D01*
X113670826Y-79665380D01*
X113514620Y-79509174D01*
X113514616Y-79509171D01*
X113514615Y-79509170D01*
X113333666Y-79382468D01*
X113333658Y-79382464D01*
X113204811Y-79322382D01*
X113152371Y-79276210D01*
X113133219Y-79209017D01*
X113153435Y-79142135D01*
X113204811Y-79097618D01*
X113210802Y-79094824D01*
X113333662Y-79037534D01*
X113514620Y-78910826D01*
X113670826Y-78754620D01*
X113797534Y-78573662D01*
X113890894Y-78373450D01*
X113912997Y-78290959D01*
X113949360Y-78231301D01*
X114012206Y-78200771D01*
X114081582Y-78209065D01*
X114120452Y-78235373D01*
X114522860Y-78637781D01*
X114522861Y-78637782D01*
X114639694Y-78754615D01*
X114662219Y-78777140D01*
X114826079Y-78886628D01*
X114826092Y-78886635D01*
X114954833Y-78939961D01*
X114990796Y-78954857D01*
X115008164Y-78962051D01*
X115104812Y-78981275D01*
X115153135Y-78990887D01*
X115201458Y-79000500D01*
X115201459Y-79000500D01*
X115201460Y-79000500D01*
X115398540Y-79000500D01*
X115622412Y-79000500D01*
X115689451Y-79020185D01*
X115693523Y-79022917D01*
X115847266Y-79130568D01*
X116053504Y-79226739D01*
X116273308Y-79285635D01*
X116435230Y-79299801D01*
X116499998Y-79305468D01*
X116500000Y-79305468D01*
X116500002Y-79305468D01*
X116556673Y-79300509D01*
X116726692Y-79285635D01*
X116946496Y-79226739D01*
X117152734Y-79130568D01*
X117339139Y-79000047D01*
X117500047Y-78839139D01*
X117630568Y-78652734D01*
X117726739Y-78446496D01*
X117785635Y-78226692D01*
X117805468Y-78000000D01*
X117785635Y-77773308D01*
X117726739Y-77553504D01*
X117630568Y-77347266D01*
X117532839Y-77207693D01*
X117500045Y-77160858D01*
X117339141Y-76999954D01*
X117152734Y-76869432D01*
X117152732Y-76869431D01*
X116946497Y-76773261D01*
X116946488Y-76773258D01*
X116726697Y-76714366D01*
X116726693Y-76714365D01*
X116726692Y-76714365D01*
X116726691Y-76714364D01*
X116726686Y-76714364D01*
X116500002Y-76694532D01*
X116499998Y-76694532D01*
X116273313Y-76714364D01*
X116273302Y-76714366D01*
X116053511Y-76773258D01*
X116053502Y-76773261D01*
X115847266Y-76869432D01*
X115777860Y-76918030D01*
X115711653Y-76940357D01*
X115643886Y-76923345D01*
X115619056Y-76904135D01*
X113985085Y-75270164D01*
X113951600Y-75208841D01*
X113949238Y-75193287D01*
X113948070Y-75179934D01*
X113948070Y-75179932D01*
X113890894Y-74966550D01*
X113797534Y-74766339D01*
X113707462Y-74637702D01*
X113670827Y-74585381D01*
X113598813Y-74513367D01*
X113514620Y-74429174D01*
X113514616Y-74429171D01*
X113514615Y-74429170D01*
X113333666Y-74302468D01*
X113333658Y-74302464D01*
X113204811Y-74242382D01*
X113152371Y-74196210D01*
X113133219Y-74129017D01*
X113153435Y-74062135D01*
X113204811Y-74017618D01*
X113210802Y-74014824D01*
X113333662Y-73957534D01*
X113514620Y-73830826D01*
X113670826Y-73674620D01*
X113797534Y-73493662D01*
X113890894Y-73293450D01*
X113948070Y-73080068D01*
X113967323Y-72860000D01*
X113948070Y-72639932D01*
X113890894Y-72426550D01*
X113797534Y-72226339D01*
X113670826Y-72045380D01*
X113514620Y-71889174D01*
X113514616Y-71889171D01*
X113514615Y-71889170D01*
X113333666Y-71762468D01*
X113333658Y-71762464D01*
X113204811Y-71702382D01*
X113152371Y-71656210D01*
X113133219Y-71589017D01*
X113153435Y-71522135D01*
X113204811Y-71477618D01*
X113210802Y-71474824D01*
X113333662Y-71417534D01*
X113514620Y-71290826D01*
X113670826Y-71134620D01*
X113797534Y-70953662D01*
X113890894Y-70753450D01*
X113948070Y-70540068D01*
X113967323Y-70320000D01*
X113956524Y-70196571D01*
X113970290Y-70128075D01*
X114018905Y-70077892D01*
X114086934Y-70061958D01*
X114152777Y-70085333D01*
G37*
%TD.AperFunction*%
%TD*%
M02*
